<?xml version="1.0" encoding="UTF-8" standalone="no"?>
<!DOCTYPE svg PUBLIC "-//W3C//DTD SVG 1.1//EN"
 "http://www.w3.org/Graphics/SVG/1.1/DTD/svg11.dtd">
<!-- Generated by graphviz version 2.36.0 (20140111.2315)
 -->
<!-- Title: controllers_diagram Pages: 1 -->
<svg width="486pt" height="586pt"
 viewBox="0.00 0.00 486.00 586.00" xmlns="http://www.w3.org/2000/svg" xmlns:xlink="http://www.w3.org/1999/xlink">
<g id="graph0" class="graph" transform="scale(1 1) rotate(0) translate(4 582)">
<title>controllers_diagram</title>
<polygon fill="none" stroke="none" points="-4,4 -4,-582 482,-582 482,4 -4,4"/>
<!-- _diagram_info -->
<g id="node1" class="node"><title>_diagram_info</title>
<text text-anchor="start" x="242" y="-423.6" font-family="Times,serif" font-size="13.00">Controllers diagram</text>
<text text-anchor="start" x="242" y="-409.6" font-family="Times,serif" font-size="13.00">Date: Sep 21 2015 &#45; 20:39</text>
<text text-anchor="start" x="242" y="-395.6" font-family="Times,serif" font-size="13.00">Migration version: 20150921230651</text>
<text text-anchor="start" x="242" y="-381.6" font-family="Times,serif" font-size="13.00">Generated by RailRoady 1.3.1</text>
<text text-anchor="start" x="242" y="-367.6" font-family="Times,serif" font-size="13.00">http://railroady.prestonlee.com</text>
</g>
<!-- OmniauthCallbacksController -->
<g id="node2" class="node"><title>OmniauthCallbacksController</title>
<path fill="none" stroke="black" d="M228,-126.5C228,-126.5 384,-126.5 384,-126.5 390,-126.5 396,-132.5 396,-138.5 396,-138.5 396,-312.5 396,-312.5 396,-318.5 390,-324.5 384,-324.5 384,-324.5 228,-324.5 228,-324.5 222,-324.5 216,-318.5 216,-312.5 216,-312.5 216,-138.5 216,-138.5 216,-132.5 222,-126.5 228,-126.5"/>
<text text-anchor="middle" x="306" y="-309.3" font-family="Times,serif" font-size="14.00">OmniauthCallbacksController</text>
<polyline fill="none" stroke="black" points="216,-301.5 396,-301.5 "/>
<text text-anchor="start" x="224" y="-286.3" font-family="Times,serif" font-size="14.00">all</text>
<text text-anchor="start" x="224" y="-271.3" font-family="Times,serif" font-size="14.00">facebook</text>
<text text-anchor="start" x="224" y="-256.3" font-family="Times,serif" font-size="14.00">failure</text>
<text text-anchor="start" x="224" y="-241.3" font-family="Times,serif" font-size="14.00">github</text>
<text text-anchor="start" x="224" y="-226.3" font-family="Times,serif" font-size="14.00">google_oauth2</text>
<text text-anchor="start" x="224" y="-211.3" font-family="Times,serif" font-size="14.00">linkedin</text>
<text text-anchor="start" x="224" y="-196.3" font-family="Times,serif" font-size="14.00">passthru</text>
<text text-anchor="start" x="224" y="-181.3" font-family="Times,serif" font-size="14.00">twitter</text>
<polyline fill="none" stroke="black" points="216,-173.5 396,-173.5 "/>
<polyline fill="none" stroke="black" points="216,-149.5 396,-149.5 "/>
<text text-anchor="start" x="224" y="-134.3" font-family="Times,serif" font-size="14.00">_layout</text>
</g>
<!-- HomepagesController -->
<g id="node3" class="node"><title>HomepagesController</title>
<path fill="none" stroke="black" d="M120,-0.5C120,-0.5 233,-0.5 233,-0.5 239,-0.5 245,-6.5 245,-12.5 245,-12.5 245,-81.5 245,-81.5 245,-87.5 239,-93.5 233,-93.5 233,-93.5 120,-93.5 120,-93.5 114,-93.5 108,-87.5 108,-81.5 108,-81.5 108,-12.5 108,-12.5 108,-6.5 114,-0.5 120,-0.5"/>
<text text-anchor="middle" x="176.5" y="-78.3" font-family="Times,serif" font-size="14.00">HomepagesController</text>
<polyline fill="none" stroke="black" points="108,-70.5 245,-70.5 "/>
<text text-anchor="start" x="116" y="-55.3" font-family="Times,serif" font-size="14.00">index</text>
<polyline fill="none" stroke="black" points="108,-47.5 245,-47.5 "/>
<polyline fill="none" stroke="black" points="108,-23.5 245,-23.5 "/>
<text text-anchor="start" x="116" y="-8.3" font-family="Times,serif" font-size="14.00">_layout</text>
</g>
<!-- UsersController -->
<g id="node4" class="node"><title>UsersController</title>
<path fill="none" stroke="black" d="M12,-126.5C12,-126.5 177,-126.5 177,-126.5 183,-126.5 189,-132.5 189,-138.5 189,-138.5 189,-297.5 189,-297.5 189,-303.5 183,-309.5 177,-309.5 177,-309.5 12,-309.5 12,-309.5 6,-309.5 0,-303.5 0,-297.5 0,-297.5 0,-138.5 0,-138.5 0,-132.5 6,-126.5 12,-126.5"/>
<text text-anchor="middle" x="94.5" y="-294.3" font-family="Times,serif" font-size="14.00">UsersController</text>
<polyline fill="none" stroke="black" points="0,-286.5 189,-286.5 "/>
<text text-anchor="start" x="8" y="-271.3" font-family="Times,serif" font-size="14.00">edit</text>
<text text-anchor="start" x="8" y="-256.3" font-family="Times,serif" font-size="14.00">index</text>
<text text-anchor="start" x="8" y="-241.3" font-family="Times,serif" font-size="14.00">show</text>
<text text-anchor="start" x="8" y="-226.3" font-family="Times,serif" font-size="14.00">update</text>
<polyline fill="none" stroke="black" points="0,-218.5 189,-218.5 "/>
<polyline fill="none" stroke="black" points="0,-194.5 189,-194.5 "/>
<text text-anchor="start" x="8" y="-179.3" font-family="Times,serif" font-size="14.00">_layout</text>
<text text-anchor="start" x="8" y="-164.3" font-family="Times,serif" font-size="14.00">set_user</text>
<text text-anchor="start" x="8" y="-149.3" font-family="Times,serif" font-size="14.00">user_params</text>
<text text-anchor="start" x="8" y="-134.3" font-family="Times,serif" font-size="14.00">validate_authorization_for_user</text>
</g>
<!-- ApplicationController -->
<g id="node5" class="node"><title>ApplicationController</title>
<path fill="none" stroke="black" d="M354,-468.5C354,-468.5 466,-468.5 466,-468.5 472,-468.5 478,-474.5 478,-480.5 478,-480.5 478,-565.5 478,-565.5 478,-571.5 472,-577.5 466,-577.5 466,-577.5 354,-577.5 354,-577.5 348,-577.5 342,-571.5 342,-565.5 342,-565.5 342,-480.5 342,-480.5 342,-474.5 348,-468.5 354,-468.5"/>
<text text-anchor="middle" x="410" y="-562.3" font-family="Times,serif" font-size="14.00">ApplicationController</text>
<polyline fill="none" stroke="black" points="342,-554.5 478,-554.5 "/>
<polyline fill="none" stroke="black" points="342,-530.5 478,-530.5 "/>
<polyline fill="none" stroke="black" points="342,-506.5 478,-506.5 "/>
<text text-anchor="start" x="350" y="-491.3" font-family="Times,serif" font-size="14.00">_layout</text>
<text text-anchor="start" x="350" y="-476.3" font-family="Times,serif" font-size="14.00">require_login</text>
</g>
<!-- RegistrationsController -->
<g id="node6" class="node"><title>RegistrationsController</title>
<path fill="none" stroke="black" d="M48,-342.5C48,-342.5 172,-342.5 172,-342.5 178,-342.5 184,-348.5 184,-354.5 184,-354.5 184,-454.5 184,-454.5 184,-460.5 178,-466.5 172,-466.5 172,-466.5 48,-466.5 48,-466.5 42,-466.5 36,-460.5 36,-454.5 36,-454.5 36,-354.5 36,-354.5 36,-348.5 42,-342.5 48,-342.5"/>
<text text-anchor="middle" x="110" y="-451.3" font-family="Times,serif" font-size="14.00">RegistrationsController</text>
<polyline fill="none" stroke="black" points="36,-443.5 184,-443.5 "/>
<polyline fill="none" stroke="black" points="36,-419.5 184,-419.5 "/>
<polyline fill="none" stroke="black" points="36,-395.5 184,-395.5 "/>
<text text-anchor="start" x="44" y="-380.3" font-family="Times,serif" font-size="14.00">_layout</text>
<text text-anchor="start" x="44" y="-365.3" font-family="Times,serif" font-size="14.00">account_update_params</text>
<text text-anchor="start" x="44" y="-350.3" font-family="Times,serif" font-size="14.00">sign_up_params</text>
</g>
</g>
</svg>
