<?xml version="1.0" encoding="UTF-8" standalone="no"?>
<!DOCTYPE svg PUBLIC "-//W3C//DTD SVG 1.1//EN"
 "http://www.w3.org/Graphics/SVG/1.1/DTD/svg11.dtd">
<!-- Generated by graphviz version 2.36.0 (20140111.2315)
 -->
<!-- Title: controllers_diagram Pages: 1 -->
<svg width="685pt" height="672pt"
 viewBox="0.00 0.00 685.00 672.00" xmlns="http://www.w3.org/2000/svg" xmlns:xlink="http://www.w3.org/1999/xlink">
<g id="graph0" class="graph" transform="scale(1 1) rotate(0) translate(4 668)">
<title>controllers_diagram</title>
<polygon fill="none" stroke="none" points="-4,4 -4,-668 681,-668 681,4 -4,4"/>
<!-- _diagram_info -->
<g id="node1" class="node"><title>_diagram_info</title>
<text text-anchor="start" x="260" y="-117.6" font-family="Times,serif" font-size="13.00">Controllers diagram</text>
<text text-anchor="start" x="260" y="-103.6" font-family="Times,serif" font-size="13.00">Date: Sep 22 2015 &#45; 20:03</text>
<text text-anchor="start" x="260" y="-89.6" font-family="Times,serif" font-size="13.00">Migration version: 20150921235055</text>
<text text-anchor="start" x="260" y="-75.6" font-family="Times,serif" font-size="13.00">Generated by RailRoady 1.3.1</text>
<text text-anchor="start" x="260" y="-61.6" font-family="Times,serif" font-size="13.00">http://railroady.prestonlee.com</text>
</g>
<!-- ProfilesController -->
<g id="node2" class="node"><title>ProfilesController</title>
<path fill="none" stroke="black" d="M228,-378.5C228,-378.5 318,-378.5 318,-378.5 324,-378.5 330,-384.5 330,-390.5 330,-390.5 330,-579.5 330,-579.5 330,-585.5 324,-591.5 318,-591.5 318,-591.5 228,-591.5 228,-591.5 222,-591.5 216,-585.5 216,-579.5 216,-579.5 216,-390.5 216,-390.5 216,-384.5 222,-378.5 228,-378.5"/>
<text text-anchor="middle" x="273" y="-576.3" font-family="Times,serif" font-size="14.00">ProfilesController</text>
<polyline fill="none" stroke="black" points="216,-568.5 330,-568.5 "/>
<text text-anchor="start" x="224" y="-553.3" font-family="Times,serif" font-size="14.00">create</text>
<text text-anchor="start" x="224" y="-538.3" font-family="Times,serif" font-size="14.00">destroy</text>
<text text-anchor="start" x="224" y="-523.3" font-family="Times,serif" font-size="14.00">edit</text>
<text text-anchor="start" x="224" y="-508.3" font-family="Times,serif" font-size="14.00">index</text>
<text text-anchor="start" x="224" y="-493.3" font-family="Times,serif" font-size="14.00">new</text>
<text text-anchor="start" x="224" y="-478.3" font-family="Times,serif" font-size="14.00">show</text>
<text text-anchor="start" x="224" y="-463.3" font-family="Times,serif" font-size="14.00">update</text>
<polyline fill="none" stroke="black" points="216,-455.5 330,-455.5 "/>
<polyline fill="none" stroke="black" points="216,-431.5 330,-431.5 "/>
<text text-anchor="start" x="224" y="-416.3" font-family="Times,serif" font-size="14.00">_layout</text>
<text text-anchor="start" x="224" y="-401.3" font-family="Times,serif" font-size="14.00">profile_params</text>
<text text-anchor="start" x="224" y="-386.3" font-family="Times,serif" font-size="14.00">set_profile</text>
</g>
<!-- ApplicationController -->
<g id="node3" class="node"><title>ApplicationController</title>
<path fill="none" stroke="black" d="M12,-18.5C12,-18.5 124,-18.5 124,-18.5 130,-18.5 136,-24.5 136,-30.5 136,-30.5 136,-115.5 136,-115.5 136,-121.5 130,-127.5 124,-127.5 124,-127.5 12,-127.5 12,-127.5 6,-127.5 0,-121.5 0,-115.5 0,-115.5 0,-30.5 0,-30.5 0,-24.5 6,-18.5 12,-18.5"/>
<text text-anchor="middle" x="68" y="-112.3" font-family="Times,serif" font-size="14.00">ApplicationController</text>
<polyline fill="none" stroke="black" points="0,-104.5 136,-104.5 "/>
<polyline fill="none" stroke="black" points="0,-80.5 136,-80.5 "/>
<polyline fill="none" stroke="black" points="0,-56.5 136,-56.5 "/>
<text text-anchor="start" x="8" y="-41.3" font-family="Times,serif" font-size="14.00">_layout</text>
<text text-anchor="start" x="8" y="-26.3" font-family="Times,serif" font-size="14.00">require_login</text>
</g>
<!-- RegistrationsController -->
<g id="node4" class="node"><title>RegistrationsController</title>
<path fill="none" stroke="black" d="M516,-0.5C516,-0.5 640,-0.5 640,-0.5 646,-0.5 652,-6.5 652,-12.5 652,-12.5 652,-112.5 652,-112.5 652,-118.5 646,-124.5 640,-124.5 640,-124.5 516,-124.5 516,-124.5 510,-124.5 504,-118.5 504,-112.5 504,-112.5 504,-12.5 504,-12.5 504,-6.5 510,-0.5 516,-0.5"/>
<text text-anchor="middle" x="578" y="-109.3" font-family="Times,serif" font-size="14.00">RegistrationsController</text>
<polyline fill="none" stroke="black" points="504,-101.5 652,-101.5 "/>
<polyline fill="none" stroke="black" points="504,-77.5 652,-77.5 "/>
<polyline fill="none" stroke="black" points="504,-53.5 652,-53.5 "/>
<text text-anchor="start" x="512" y="-38.3" font-family="Times,serif" font-size="14.00">_layout</text>
<text text-anchor="start" x="512" y="-23.3" font-family="Times,serif" font-size="14.00">account_update_params</text>
<text text-anchor="start" x="512" y="-8.3" font-family="Times,serif" font-size="14.00">sign_up_params</text>
</g>
<!-- HomepagesController -->
<g id="node5" class="node"><title>HomepagesController</title>
<path fill="none" stroke="black" d="M552,-396.5C552,-396.5 665,-396.5 665,-396.5 671,-396.5 677,-402.5 677,-408.5 677,-408.5 677,-477.5 677,-477.5 677,-483.5 671,-489.5 665,-489.5 665,-489.5 552,-489.5 552,-489.5 546,-489.5 540,-483.5 540,-477.5 540,-477.5 540,-408.5 540,-408.5 540,-402.5 546,-396.5 552,-396.5"/>
<text text-anchor="middle" x="608.5" y="-474.3" font-family="Times,serif" font-size="14.00">HomepagesController</text>
<polyline fill="none" stroke="black" points="540,-466.5 677,-466.5 "/>
<text text-anchor="start" x="548" y="-451.3" font-family="Times,serif" font-size="14.00">index</text>
<polyline fill="none" stroke="black" points="540,-443.5 677,-443.5 "/>
<polyline fill="none" stroke="black" points="540,-419.5 677,-419.5 "/>
<text text-anchor="start" x="548" y="-404.3" font-family="Times,serif" font-size="14.00">_layout</text>
</g>
<!-- OmniauthCallbacksController -->
<g id="node6" class="node"><title>OmniauthCallbacksController</title>
<path fill="none" stroke="black" d="M372,-162.5C372,-162.5 528,-162.5 528,-162.5 534,-162.5 540,-168.5 540,-174.5 540,-174.5 540,-348.5 540,-348.5 540,-354.5 534,-360.5 528,-360.5 528,-360.5 372,-360.5 372,-360.5 366,-360.5 360,-354.5 360,-348.5 360,-348.5 360,-174.5 360,-174.5 360,-168.5 366,-162.5 372,-162.5"/>
<text text-anchor="middle" x="450" y="-345.3" font-family="Times,serif" font-size="14.00">OmniauthCallbacksController</text>
<polyline fill="none" stroke="black" points="360,-337.5 540,-337.5 "/>
<text text-anchor="start" x="368" y="-322.3" font-family="Times,serif" font-size="14.00">all</text>
<text text-anchor="start" x="368" y="-307.3" font-family="Times,serif" font-size="14.00">facebook</text>
<text text-anchor="start" x="368" y="-292.3" font-family="Times,serif" font-size="14.00">failure</text>
<text text-anchor="start" x="368" y="-277.3" font-family="Times,serif" font-size="14.00">github</text>
<text text-anchor="start" x="368" y="-262.3" font-family="Times,serif" font-size="14.00">google_oauth2</text>
<text text-anchor="start" x="368" y="-247.3" font-family="Times,serif" font-size="14.00">linkedin</text>
<text text-anchor="start" x="368" y="-232.3" font-family="Times,serif" font-size="14.00">passthru</text>
<text text-anchor="start" x="368" y="-217.3" font-family="Times,serif" font-size="14.00">twitter</text>
<polyline fill="none" stroke="black" points="360,-209.5 540,-209.5 "/>
<polyline fill="none" stroke="black" points="360,-185.5 540,-185.5 "/>
<text text-anchor="start" x="368" y="-170.3" font-family="Times,serif" font-size="14.00">_layout</text>
</g>
<!-- TradesController -->
<g id="node7" class="node"><title>TradesController</title>
<path fill="none" stroke="black" d="M84,-450.5C84,-450.5 169,-450.5 169,-450.5 175,-450.5 181,-456.5 181,-462.5 181,-462.5 181,-651.5 181,-651.5 181,-657.5 175,-663.5 169,-663.5 169,-663.5 84,-663.5 84,-663.5 78,-663.5 72,-657.5 72,-651.5 72,-651.5 72,-462.5 72,-462.5 72,-456.5 78,-450.5 84,-450.5"/>
<text text-anchor="middle" x="126.5" y="-648.3" font-family="Times,serif" font-size="14.00">TradesController</text>
<polyline fill="none" stroke="black" points="72,-640.5 181,-640.5 "/>
<text text-anchor="start" x="80" y="-625.3" font-family="Times,serif" font-size="14.00">create</text>
<text text-anchor="start" x="80" y="-610.3" font-family="Times,serif" font-size="14.00">destroy</text>
<text text-anchor="start" x="80" y="-595.3" font-family="Times,serif" font-size="14.00">edit</text>
<text text-anchor="start" x="80" y="-580.3" font-family="Times,serif" font-size="14.00">index</text>
<text text-anchor="start" x="80" y="-565.3" font-family="Times,serif" font-size="14.00">new</text>
<text text-anchor="start" x="80" y="-550.3" font-family="Times,serif" font-size="14.00">show</text>
<text text-anchor="start" x="80" y="-535.3" font-family="Times,serif" font-size="14.00">update</text>
<polyline fill="none" stroke="black" points="72,-527.5 181,-527.5 "/>
<polyline fill="none" stroke="black" points="72,-503.5 181,-503.5 "/>
<text text-anchor="start" x="80" y="-488.3" font-family="Times,serif" font-size="14.00">_layout</text>
<text text-anchor="start" x="80" y="-473.3" font-family="Times,serif" font-size="14.00">set_trade</text>
<text text-anchor="start" x="80" y="-458.3" font-family="Times,serif" font-size="14.00">trade_params</text>
</g>
<!-- BottlesController -->
<g id="node8" class="node"><title>BottlesController</title>
<path fill="none" stroke="black" d="M12,-198.5C12,-198.5 98,-198.5 98,-198.5 104,-198.5 110,-204.5 110,-210.5 110,-210.5 110,-399.5 110,-399.5 110,-405.5 104,-411.5 98,-411.5 98,-411.5 12,-411.5 12,-411.5 6,-411.5 0,-405.5 0,-399.5 0,-399.5 0,-210.5 0,-210.5 0,-204.5 6,-198.5 12,-198.5"/>
<text text-anchor="middle" x="55" y="-396.3" font-family="Times,serif" font-size="14.00">BottlesController</text>
<polyline fill="none" stroke="black" points="0,-388.5 110,-388.5 "/>
<text text-anchor="start" x="8" y="-373.3" font-family="Times,serif" font-size="14.00">create</text>
<text text-anchor="start" x="8" y="-358.3" font-family="Times,serif" font-size="14.00">destroy</text>
<text text-anchor="start" x="8" y="-343.3" font-family="Times,serif" font-size="14.00">edit</text>
<text text-anchor="start" x="8" y="-328.3" font-family="Times,serif" font-size="14.00">index</text>
<text text-anchor="start" x="8" y="-313.3" font-family="Times,serif" font-size="14.00">new</text>
<text text-anchor="start" x="8" y="-298.3" font-family="Times,serif" font-size="14.00">show</text>
<text text-anchor="start" x="8" y="-283.3" font-family="Times,serif" font-size="14.00">update</text>
<polyline fill="none" stroke="black" points="0,-275.5 110,-275.5 "/>
<polyline fill="none" stroke="black" points="0,-251.5 110,-251.5 "/>
<text text-anchor="start" x="8" y="-236.3" font-family="Times,serif" font-size="14.00">_layout</text>
<text text-anchor="start" x="8" y="-221.3" font-family="Times,serif" font-size="14.00">bottle_params</text>
<text text-anchor="start" x="8" y="-206.3" font-family="Times,serif" font-size="14.00">set_bottle</text>
</g>
<!-- UsersController -->
<g id="node9" class="node"><title>UsersController</title>
<path fill="none" stroke="black" d="M156,-162.5C156,-162.5 321,-162.5 321,-162.5 327,-162.5 333,-168.5 333,-174.5 333,-174.5 333,-333.5 333,-333.5 333,-339.5 327,-345.5 321,-345.5 321,-345.5 156,-345.5 156,-345.5 150,-345.5 144,-339.5 144,-333.5 144,-333.5 144,-174.5 144,-174.5 144,-168.5 150,-162.5 156,-162.5"/>
<text text-anchor="middle" x="238.5" y="-330.3" font-family="Times,serif" font-size="14.00">UsersController</text>
<polyline fill="none" stroke="black" points="144,-322.5 333,-322.5 "/>
<text text-anchor="start" x="152" y="-307.3" font-family="Times,serif" font-size="14.00">edit</text>
<text text-anchor="start" x="152" y="-292.3" font-family="Times,serif" font-size="14.00">index</text>
<text text-anchor="start" x="152" y="-277.3" font-family="Times,serif" font-size="14.00">show</text>
<text text-anchor="start" x="152" y="-262.3" font-family="Times,serif" font-size="14.00">update</text>
<polyline fill="none" stroke="black" points="144,-254.5 333,-254.5 "/>
<polyline fill="none" stroke="black" points="144,-230.5 333,-230.5 "/>
<text text-anchor="start" x="152" y="-215.3" font-family="Times,serif" font-size="14.00">_layout</text>
<text text-anchor="start" x="152" y="-200.3" font-family="Times,serif" font-size="14.00">set_user</text>
<text text-anchor="start" x="152" y="-185.3" font-family="Times,serif" font-size="14.00">user_params</text>
<text text-anchor="start" x="152" y="-170.3" font-family="Times,serif" font-size="14.00">validate_authorization_for_user</text>
</g>
<!-- QuestionsController -->
<g id="node10" class="node"><title>QuestionsController</title>
<path fill="none" stroke="black" d="M390,-396.5C390,-396.5 492,-396.5 492,-396.5 498,-396.5 504,-402.5 504,-408.5 504,-408.5 504,-597.5 504,-597.5 504,-603.5 498,-609.5 492,-609.5 492,-609.5 390,-609.5 390,-609.5 384,-609.5 378,-603.5 378,-597.5 378,-597.5 378,-408.5 378,-408.5 378,-402.5 384,-396.5 390,-396.5"/>
<text text-anchor="middle" x="441" y="-594.3" font-family="Times,serif" font-size="14.00">QuestionsController</text>
<polyline fill="none" stroke="black" points="378,-586.5 504,-586.5 "/>
<text text-anchor="start" x="386" y="-571.3" font-family="Times,serif" font-size="14.00">create</text>
<text text-anchor="start" x="386" y="-556.3" font-family="Times,serif" font-size="14.00">destroy</text>
<text text-anchor="start" x="386" y="-541.3" font-family="Times,serif" font-size="14.00">edit</text>
<text text-anchor="start" x="386" y="-526.3" font-family="Times,serif" font-size="14.00">index</text>
<text text-anchor="start" x="386" y="-511.3" font-family="Times,serif" font-size="14.00">new</text>
<text text-anchor="start" x="386" y="-496.3" font-family="Times,serif" font-size="14.00">show</text>
<text text-anchor="start" x="386" y="-481.3" font-family="Times,serif" font-size="14.00">update</text>
<polyline fill="none" stroke="black" points="378,-473.5 504,-473.5 "/>
<polyline fill="none" stroke="black" points="378,-449.5 504,-449.5 "/>
<text text-anchor="start" x="386" y="-434.3" font-family="Times,serif" font-size="14.00">_layout</text>
<text text-anchor="start" x="386" y="-419.3" font-family="Times,serif" font-size="14.00">question_params</text>
<text text-anchor="start" x="386" y="-404.3" font-family="Times,serif" font-size="14.00">set_question</text>
</g>
</g>
</svg>
