<?xml version="1.0" encoding="UTF-8" standalone="no"?>
<!DOCTYPE svg PUBLIC "-//W3C//DTD SVG 1.1//EN"
 "http://www.w3.org/Graphics/SVG/1.1/DTD/svg11.dtd">
<!-- Generated by graphviz version 2.36.0 (20140111.2315)
 -->
<!-- Title: models_diagram Pages: 1 -->
<svg width="1777pt" height="1058pt"
 viewBox="0.00 0.00 1777.10 1058.00" xmlns="http://www.w3.org/2000/svg" xmlns:xlink="http://www.w3.org/1999/xlink">
<g id="graph0" class="graph" transform="scale(1 1) rotate(0) translate(4 1054)">
<title>models_diagram</title>
<polygon fill="none" stroke="none" points="-4,4 -4,-1054 1773.1,-1054 1773.1,4 -4,4"/>
<!-- _diagram_info -->
<g id="node1" class="node"><title>_diagram_info</title>
<text text-anchor="start" x="1413.1" y="-1028.6" font-family="Times,serif" font-size="13.00">Models diagram</text>
<text text-anchor="start" x="1413.1" y="-1014.6" font-family="Times,serif" font-size="13.00">Date: Sep 21 2015 &#45; 21:13</text>
<text text-anchor="start" x="1413.1" y="-1000.6" font-family="Times,serif" font-size="13.00">Migration version: 20150921235055</text>
<text text-anchor="start" x="1413.1" y="-986.6" font-family="Times,serif" font-size="13.00">Generated by RailRoady 1.3.1</text>
<text text-anchor="start" x="1413.1" y="-972.6" font-family="Times,serif" font-size="13.00">http://railroady.prestonlee.com</text>
</g>
<!-- City -->
<g id="node2" class="node"><title>City</title>
<path fill="none" stroke="black" d="M1649.6,-678C1649.6,-678 1756.6,-678 1756.6,-678 1762.6,-678 1768.6,-684 1768.6,-690 1768.6,-690 1768.6,-772 1768.6,-772 1768.6,-778 1762.6,-784 1756.6,-784 1756.6,-784 1649.6,-784 1649.6,-784 1643.6,-784 1637.6,-778 1637.6,-772 1637.6,-772 1637.6,-690 1637.6,-690 1637.6,-684 1643.6,-678 1649.6,-678"/>
<text text-anchor="middle" x="1703.1" y="-768.8" font-family="Times,serif" font-size="14.00">City</text>
<polyline fill="none" stroke="black" points="1637.6,-761 1768.6,-761 "/>
<text text-anchor="start" x="1645.6" y="-745.8" font-family="Times,serif" font-size="14.00">id :integer</text>
<text text-anchor="start" x="1645.6" y="-730.8" font-family="Times,serif" font-size="14.00">name :string</text>
<text text-anchor="start" x="1645.6" y="-715.8" font-family="Times,serif" font-size="14.00">state_id :integer</text>
<text text-anchor="start" x="1645.6" y="-700.8" font-family="Times,serif" font-size="14.00">created_at :datetime</text>
<text text-anchor="start" x="1645.6" y="-685.8" font-family="Times,serif" font-size="14.00">updated_at :datetime</text>
</g>
<!-- Profile -->
<g id="node11" class="node"><title>Profile</title>
<path fill="none" stroke="black" d="M1341.6,-300.5C1341.6,-300.5 1476.6,-300.5 1476.6,-300.5 1482.6,-300.5 1488.6,-306.5 1488.6,-312.5 1488.6,-312.5 1488.6,-469.5 1488.6,-469.5 1488.6,-475.5 1482.6,-481.5 1476.6,-481.5 1476.6,-481.5 1341.6,-481.5 1341.6,-481.5 1335.6,-481.5 1329.6,-475.5 1329.6,-469.5 1329.6,-469.5 1329.6,-312.5 1329.6,-312.5 1329.6,-306.5 1335.6,-300.5 1341.6,-300.5"/>
<text text-anchor="middle" x="1409.1" y="-466.3" font-family="Times,serif" font-size="14.00">Profile</text>
<polyline fill="none" stroke="black" points="1329.6,-458.5 1488.6,-458.5 "/>
<text text-anchor="start" x="1337.6" y="-443.3" font-family="Times,serif" font-size="14.00">id :integer</text>
<text text-anchor="start" x="1337.6" y="-428.3" font-family="Times,serif" font-size="14.00">first_name :string</text>
<text text-anchor="start" x="1337.6" y="-413.3" font-family="Times,serif" font-size="14.00">last_name :string</text>
<text text-anchor="start" x="1337.6" y="-398.3" font-family="Times,serif" font-size="14.00">birth_date :date</text>
<text text-anchor="start" x="1337.6" y="-383.3" font-family="Times,serif" font-size="14.00">state_id :string</text>
<text text-anchor="start" x="1337.6" y="-368.3" font-family="Times,serif" font-size="14.00">city_id :string</text>
<text text-anchor="start" x="1337.6" y="-353.3" font-family="Times,serif" font-size="14.00">about :text</text>
<text text-anchor="start" x="1337.6" y="-338.3" font-family="Times,serif" font-size="14.00">organization_name :string</text>
<text text-anchor="start" x="1337.6" y="-323.3" font-family="Times,serif" font-size="14.00">created_at :datetime</text>
<text text-anchor="start" x="1337.6" y="-308.3" font-family="Times,serif" font-size="14.00">updated_at :datetime</text>
</g>
<!-- City&#45;&gt;Profile -->
<g id="edge1" class="edge"><title>City&#45;&gt;Profile</title>
<path fill="none" stroke="#ec235e" d="M1652.37,-671.678C1608.83,-621.622 1545.18,-548.444 1493.9,-489.496"/>
<ellipse fill="none" stroke="#ec235e" cx="1655.18" cy="-674.91" rx="4.00002" ry="4.00002"/>
<polygon fill="#ec235e" stroke="#ec235e" points="1493.64,-489.191 1490.47,-478.692 1490.35,-485.418 1487.07,-481.645 1487.07,-481.645 1487.07,-481.645 1490.35,-485.418 1483.68,-484.599 1493.64,-489.191 1493.64,-489.191"/>
</g>
<!-- BottleTrade -->
<g id="node3" class="node"><title>BottleTrade</title>
<path fill="none" stroke="black" d="M1362.6,-111C1362.6,-111 1451.6,-111 1451.6,-111 1457.6,-111 1463.6,-117 1463.6,-123 1463.6,-123 1463.6,-205 1463.6,-205 1463.6,-211 1457.6,-217 1451.6,-217 1451.6,-217 1362.6,-217 1362.6,-217 1356.6,-217 1350.6,-211 1350.6,-205 1350.6,-205 1350.6,-123 1350.6,-123 1350.6,-117 1356.6,-111 1362.6,-111"/>
<text text-anchor="middle" x="1407.1" y="-201.8" font-family="Times,serif" font-size="14.00">BottleTrade</text>
<polyline fill="none" stroke="black" points="1350.6,-194 1463.6,-194 "/>
<text text-anchor="start" x="1358.6" y="-178.8" font-family="Times,serif" font-size="14.00">id :integer</text>
<text text-anchor="start" x="1358.6" y="-163.8" font-family="Times,serif" font-size="14.00">owner_id :integer</text>
<text text-anchor="start" x="1358.6" y="-148.8" font-family="Times,serif" font-size="14.00">trade_id :integer</text>
<text text-anchor="start" x="1358.6" y="-133.8" font-family="Times,serif" font-size="14.00">bottle_id :integer</text>
<text text-anchor="start" x="1358.6" y="-118.8" font-family="Times,serif" font-size="14.00">amount :integer</text>
</g>
<!-- State -->
<g id="node4" class="node"><title>State</title>
<path fill="none" stroke="black" d="M1649.6,-958.5C1649.6,-958.5 1756.6,-958.5 1756.6,-958.5 1762.6,-958.5 1768.6,-964.5 1768.6,-970.5 1768.6,-970.5 1768.6,-1037.5 1768.6,-1037.5 1768.6,-1043.5 1762.6,-1049.5 1756.6,-1049.5 1756.6,-1049.5 1649.6,-1049.5 1649.6,-1049.5 1643.6,-1049.5 1637.6,-1043.5 1637.6,-1037.5 1637.6,-1037.5 1637.6,-970.5 1637.6,-970.5 1637.6,-964.5 1643.6,-958.5 1649.6,-958.5"/>
<text text-anchor="middle" x="1703.1" y="-1034.3" font-family="Times,serif" font-size="14.00">State</text>
<polyline fill="none" stroke="black" points="1637.6,-1026.5 1768.6,-1026.5 "/>
<text text-anchor="start" x="1645.6" y="-1011.3" font-family="Times,serif" font-size="14.00">id :integer</text>
<text text-anchor="start" x="1645.6" y="-996.3" font-family="Times,serif" font-size="14.00">name :string</text>
<text text-anchor="start" x="1645.6" y="-981.3" font-family="Times,serif" font-size="14.00">created_at :datetime</text>
<text text-anchor="start" x="1645.6" y="-966.3" font-family="Times,serif" font-size="14.00">updated_at :datetime</text>
</g>
<!-- State&#45;&gt;City -->
<g id="edge2" class="edge"><title>State&#45;&gt;City</title>
<path fill="none" stroke="#e3ecf7" d="M1703.1,-950.165C1703.1,-905.515 1703.1,-841.483 1703.1,-794.333"/>
<ellipse fill="none" stroke="#e3ecf7" cx="1703.1" cy="-954.25" rx="4" ry="4"/>
<polygon fill="#e3ecf7" stroke="#e3ecf7" points="1703.1,-794.241 1707.6,-784.241 1703.1,-789.241 1703.1,-784.241 1703.1,-784.241 1703.1,-784.241 1703.1,-789.241 1698.6,-784.242 1703.1,-794.241 1703.1,-794.241"/>
</g>
<!-- Trade -->
<g id="node5" class="node"><title>Trade</title>
<path fill="none" stroke="black" d="M104.098,-345.5C104.098,-345.5 214.098,-345.5 214.098,-345.5 220.098,-345.5 226.098,-351.5 226.098,-357.5 226.098,-357.5 226.098,-424.5 226.098,-424.5 226.098,-430.5 220.098,-436.5 214.098,-436.5 214.098,-436.5 104.098,-436.5 104.098,-436.5 98.0978,-436.5 92.0978,-430.5 92.0978,-424.5 92.0978,-424.5 92.0978,-357.5 92.0978,-357.5 92.0978,-351.5 98.0978,-345.5 104.098,-345.5"/>
<text text-anchor="middle" x="159.098" y="-421.3" font-family="Times,serif" font-size="14.00">Trade</text>
<polyline fill="none" stroke="black" points="92.0978,-413.5 226.098,-413.5 "/>
<text text-anchor="start" x="100.098" y="-398.3" font-family="Times,serif" font-size="14.00">id :integer</text>
<text text-anchor="start" x="100.098" y="-383.3" font-family="Times,serif" font-size="14.00">negotiator_id :integer</text>
<text text-anchor="start" x="100.098" y="-368.3" font-family="Times,serif" font-size="14.00">negotiant_id :integer</text>
<text text-anchor="start" x="100.098" y="-353.3" font-family="Times,serif" font-size="14.00">status :integer</text>
</g>
<!-- MessageTrade -->
<g id="node8" class="node"><title>MessageTrade</title>
<path fill="none" stroke="black" d="M117.098,-118.5C117.098,-118.5 199.098,-118.5 199.098,-118.5 205.098,-118.5 211.098,-124.5 211.098,-130.5 211.098,-130.5 211.098,-197.5 211.098,-197.5 211.098,-203.5 205.098,-209.5 199.098,-209.5 199.098,-209.5 117.098,-209.5 117.098,-209.5 111.098,-209.5 105.098,-203.5 105.098,-197.5 105.098,-197.5 105.098,-130.5 105.098,-130.5 105.098,-124.5 111.098,-118.5 117.098,-118.5"/>
<text text-anchor="middle" x="158.098" y="-194.3" font-family="Times,serif" font-size="14.00">MessageTrade</text>
<polyline fill="none" stroke="black" points="105.098,-186.5 211.098,-186.5 "/>
<text text-anchor="start" x="113.098" y="-171.3" font-family="Times,serif" font-size="14.00">id :integer</text>
<text text-anchor="start" x="113.098" y="-156.3" font-family="Times,serif" font-size="14.00">user_id :integer</text>
<text text-anchor="start" x="113.098" y="-141.3" font-family="Times,serif" font-size="14.00">trade_id :integer</text>
<text text-anchor="start" x="113.098" y="-126.3" font-family="Times,serif" font-size="14.00">content :text</text>
</g>
<!-- Trade&#45;&gt;MessageTrade -->
<g id="edge3" class="edge"><title>Trade&#45;&gt;MessageTrade</title>
<path fill="none" stroke="#1fb4e7" d="M158.863,-337.217C158.706,-301.928 158.5,-255.599 158.342,-219.883"/>
<ellipse fill="none" stroke="#1fb4e7" cx="158.881" cy="-341.278" rx="4" ry="4"/>
<polygon fill="#1fb4e7" stroke="#1fb4e7" points="158.341,-219.637 162.796,-209.617 158.318,-214.637 158.296,-209.637 158.296,-209.637 158.296,-209.637 158.318,-214.637 153.796,-209.657 158.341,-219.637 158.341,-219.637"/>
<text text-anchor="middle" x="185.098" y="-262.3" font-family="Times,serif" font-size="14.00">messages</text>
</g>
<!-- FavoriteQuestion -->
<g id="node6" class="node"><title>FavoriteQuestion</title>
<path fill="none" stroke="black" d="M330.598,-126C330.598,-126 431.598,-126 431.598,-126 437.598,-126 443.598,-132 443.598,-138 443.598,-138 443.598,-190 443.598,-190 443.598,-196 437.598,-202 431.598,-202 431.598,-202 330.598,-202 330.598,-202 324.598,-202 318.598,-196 318.598,-190 318.598,-190 318.598,-138 318.598,-138 318.598,-132 324.598,-126 330.598,-126"/>
<text text-anchor="middle" x="381.098" y="-186.8" font-family="Times,serif" font-size="14.00">FavoriteQuestion</text>
<polyline fill="none" stroke="black" points="318.598,-179 443.598,-179 "/>
<text text-anchor="start" x="326.598" y="-163.8" font-family="Times,serif" font-size="14.00">id :integer</text>
<text text-anchor="start" x="326.598" y="-148.8" font-family="Times,serif" font-size="14.00">question_id :integer</text>
<text text-anchor="start" x="326.598" y="-133.8" font-family="Times,serif" font-size="14.00">user_id :integer</text>
</g>
<!-- User -->
<g id="node7" class="node"><title>User</title>
<path fill="none" stroke="black" d="M487.098,-543C487.098,-543 663.098,-543 663.098,-543 669.098,-543 675.098,-549 675.098,-555 675.098,-555 675.098,-907 675.098,-907 675.098,-913 669.098,-919 663.098,-919 663.098,-919 487.098,-919 487.098,-919 481.098,-919 475.098,-913 475.098,-907 475.098,-907 475.098,-555 475.098,-555 475.098,-549 481.098,-543 487.098,-543"/>
<text text-anchor="middle" x="575.098" y="-903.8" font-family="Times,serif" font-size="14.00">User</text>
<polyline fill="none" stroke="black" points="475.098,-896 675.098,-896 "/>
<text text-anchor="start" x="483.098" y="-880.8" font-family="Times,serif" font-size="14.00">id :integer</text>
<text text-anchor="start" x="483.098" y="-865.8" font-family="Times,serif" font-size="14.00">name :string</text>
<text text-anchor="start" x="483.098" y="-850.8" font-family="Times,serif" font-size="14.00">email :string</text>
<text text-anchor="start" x="483.098" y="-835.8" font-family="Times,serif" font-size="14.00">encrypted_password :string</text>
<text text-anchor="start" x="483.098" y="-820.8" font-family="Times,serif" font-size="14.00">reset_password_token :string</text>
<text text-anchor="start" x="483.098" y="-805.8" font-family="Times,serif" font-size="14.00">reset_password_sent_at :datetime</text>
<text text-anchor="start" x="483.098" y="-790.8" font-family="Times,serif" font-size="14.00">remember_created_at :datetime</text>
<text text-anchor="start" x="483.098" y="-775.8" font-family="Times,serif" font-size="14.00">sign_in_count :integer</text>
<text text-anchor="start" x="483.098" y="-760.8" font-family="Times,serif" font-size="14.00">current_sign_in_at :datetime</text>
<text text-anchor="start" x="483.098" y="-745.8" font-family="Times,serif" font-size="14.00">last_sign_in_at :datetime</text>
<text text-anchor="start" x="483.098" y="-730.8" font-family="Times,serif" font-size="14.00">current_sign_in_ip :inet</text>
<text text-anchor="start" x="483.098" y="-715.8" font-family="Times,serif" font-size="14.00">last_sign_in_ip :inet</text>
<text text-anchor="start" x="483.098" y="-700.8" font-family="Times,serif" font-size="14.00">confirmation_token :string</text>
<text text-anchor="start" x="483.098" y="-685.8" font-family="Times,serif" font-size="14.00">confirmed_at :datetime</text>
<text text-anchor="start" x="483.098" y="-670.8" font-family="Times,serif" font-size="14.00">confirmation_sent_at :datetime</text>
<text text-anchor="start" x="483.098" y="-655.8" font-family="Times,serif" font-size="14.00">unconfirmed_email :string</text>
<text text-anchor="start" x="483.098" y="-640.8" font-family="Times,serif" font-size="14.00">failed_attempts :integer</text>
<text text-anchor="start" x="483.098" y="-625.8" font-family="Times,serif" font-size="14.00">unlock_token :string</text>
<text text-anchor="start" x="483.098" y="-610.8" font-family="Times,serif" font-size="14.00">locked_at :datetime</text>
<text text-anchor="start" x="483.098" y="-595.8" font-family="Times,serif" font-size="14.00">created_at :datetime</text>
<text text-anchor="start" x="483.098" y="-580.8" font-family="Times,serif" font-size="14.00">updated_at :datetime</text>
<text text-anchor="start" x="483.098" y="-565.8" font-family="Times,serif" font-size="14.00">provider :string</text>
<text text-anchor="start" x="483.098" y="-550.8" font-family="Times,serif" font-size="14.00">uid :string</text>
</g>
<!-- User&#45;&gt;BottleTrade -->
<g id="edge8" class="edge"><title>User&#45;&gt;BottleTrade</title>
<path fill="none" stroke="#272eb5" d="M683.347,-718.199C904.857,-691.585 1397.42,-618.942 1497.1,-490 1560.2,-408.373 1538.01,-348.839 1489.1,-258 1483.88,-248.311 1479.48,-248.16 1472.1,-240 1467.67,-235.107 1463.11,-229.999 1458.56,-224.851"/>
<ellipse fill="none" stroke="#272eb5" cx="679.232" cy="-718.69" rx="4.00001" ry="4.00001"/>
<polygon fill="#272eb5" stroke="#272eb5" points="1458.53,-224.807 1455.3,-214.327 1455.22,-221.053 1451.92,-217.299 1451.92,-217.299 1451.92,-217.299 1455.22,-221.053 1448.54,-220.271 1458.53,-224.807 1458.53,-224.807"/>
</g>
<!-- User&#45;&gt;Trade -->
<g id="edge4" class="edge"><title>User&#45;&gt;Trade</title>
<path fill="none" stroke="#704f64" d="M467.578,-665.833C397.42,-621.239 306.039,-557.82 235.098,-490 221.047,-476.568 207.455,-460.421 195.745,-445.146"/>
<ellipse fill="none" stroke="#704f64" cx="471.35" cy="-668.221" rx="4.00002" ry="4.00002"/>
<polygon fill="#704f64" stroke="#704f64" points="195.456,-444.761 193.037,-434.065 192.449,-440.766 189.442,-436.771 189.442,-436.771 189.442,-436.771 192.449,-440.766 185.847,-439.478 195.456,-444.761 195.456,-444.761"/>
</g>
<!-- User&#45;&gt;FavoriteQuestion -->
<g id="edge12" class="edge"><title>User&#45;&gt;FavoriteQuestion</title>
<path fill="none" stroke="#d98d3b" d="M508.251,-535.126C479.05,-450.027 444.393,-349.065 413.098,-258 407.908,-242.899 402.24,-226.421 397.135,-211.586"/>
<ellipse fill="none" stroke="#d98d3b" cx="509.581" cy="-539.004" rx="4.00001" ry="4.00001"/>
<polygon fill="#d98d3b" stroke="#d98d3b" points="397.127,-211.562 398.128,-200.642 395.5,-206.834 393.873,-202.107 393.873,-202.107 393.873,-202.107 395.5,-206.834 389.618,-203.571 397.127,-211.562 397.127,-211.562"/>
</g>
<!-- User&#45;&gt;MessageTrade -->
<g id="edge9" class="edge"><title>User&#45;&gt;MessageTrade</title>
<path fill="none" stroke="#ce0697" d="M466.983,-717.119C337.937,-695.313 127.512,-637.916 31.0978,-490 -16.9554,-416.278 -2.57838,-373.301 31.0978,-292 44.7774,-258.974 71.6735,-230.059 97.2057,-208.196"/>
<ellipse fill="none" stroke="#ce0697" cx="471.033" cy="-717.789" rx="4.00001" ry="4.00001"/>
<polygon fill="#ce0697" stroke="#ce0697" points="97.3884,-208.044 107.951,-205.097 101.229,-204.842 105.07,-201.64 105.07,-201.64 105.07,-201.64 101.229,-204.842 102.188,-198.184 97.3884,-208.044 97.3884,-208.044"/>
<text text-anchor="middle" x="57.0978" y="-387.3" font-family="Times,serif" font-size="14.00">messages</text>
</g>
<!-- Answer -->
<g id="node9" class="node"><title>Answer</title>
<path fill="none" stroke="black" d="M473.598,-111C473.598,-111 574.598,-111 574.598,-111 580.598,-111 586.598,-117 586.598,-123 586.598,-123 586.598,-205 586.598,-205 586.598,-211 580.598,-217 574.598,-217 574.598,-217 473.598,-217 473.598,-217 467.598,-217 461.598,-211 461.598,-205 461.598,-205 461.598,-123 461.598,-123 461.598,-117 467.598,-111 473.598,-111"/>
<text text-anchor="middle" x="524.098" y="-201.8" font-family="Times,serif" font-size="14.00">Answer</text>
<polyline fill="none" stroke="black" points="461.598,-194 586.598,-194 "/>
<text text-anchor="start" x="469.598" y="-178.8" font-family="Times,serif" font-size="14.00">id :integer</text>
<text text-anchor="start" x="469.598" y="-163.8" font-family="Times,serif" font-size="14.00">content :text</text>
<text text-anchor="start" x="469.598" y="-148.8" font-family="Times,serif" font-size="14.00">user_id :integer</text>
<text text-anchor="start" x="469.598" y="-133.8" font-family="Times,serif" font-size="14.00">question_id :integer</text>
<text text-anchor="start" x="469.598" y="-118.8" font-family="Times,serif" font-size="14.00">best :boolean</text>
</g>
<!-- User&#45;&gt;Answer -->
<g id="edge6" class="edge"><title>User&#45;&gt;Answer</title>
<path fill="none" stroke="#738bf8" d="M557.458,-534.581C547.755,-427.09 536.37,-300.956 529.722,-227.31"/>
<ellipse fill="none" stroke="#738bf8" cx="557.827" cy="-538.664" rx="4" ry="4"/>
<polygon fill="#738bf8" stroke="#738bf8" points="529.715,-227.233 533.298,-216.869 529.266,-222.253 528.816,-217.274 528.816,-217.274 528.816,-217.274 529.266,-222.253 524.334,-217.678 529.715,-227.233 529.715,-227.233"/>
</g>
<!-- AvaliationTrade -->
<g id="node10" class="node"><title>AvaliationTrade</title>
<path fill="none" stroke="black" d="M256.098,-330.5C256.098,-330.5 360.098,-330.5 360.098,-330.5 366.098,-330.5 372.098,-336.5 372.098,-342.5 372.098,-342.5 372.098,-439.5 372.098,-439.5 372.098,-445.5 366.098,-451.5 360.098,-451.5 360.098,-451.5 256.098,-451.5 256.098,-451.5 250.098,-451.5 244.098,-445.5 244.098,-439.5 244.098,-439.5 244.098,-342.5 244.098,-342.5 244.098,-336.5 250.098,-330.5 256.098,-330.5"/>
<text text-anchor="middle" x="308.098" y="-436.3" font-family="Times,serif" font-size="14.00">AvaliationTrade</text>
<polyline fill="none" stroke="black" points="244.098,-428.5 372.098,-428.5 "/>
<text text-anchor="start" x="252.098" y="-413.3" font-family="Times,serif" font-size="14.00">id :integer</text>
<text text-anchor="start" x="252.098" y="-398.3" font-family="Times,serif" font-size="14.00">rating :integer</text>
<text text-anchor="start" x="252.098" y="-383.3" font-family="Times,serif" font-size="14.00">content :text</text>
<text text-anchor="start" x="252.098" y="-368.3" font-family="Times,serif" font-size="14.00">trade_id :integer</text>
<text text-anchor="start" x="252.098" y="-353.3" font-family="Times,serif" font-size="14.00">assessed_id :integer</text>
<text text-anchor="start" x="252.098" y="-338.3" font-family="Times,serif" font-size="14.00">appraiser_id :integer</text>
</g>
<!-- User&#45;&gt;AvaliationTrade -->
<g id="edge10" class="edge"><title>User&#45;&gt;AvaliationTrade</title>
<path fill="none" stroke="#af0d71" d="M468.009,-667.498C417,-632.013 360.065,-582.895 327.098,-524 316.65,-505.336 311.269,-482.952 308.658,-461.964"/>
<ellipse fill="none" stroke="#af0d71" cx="471.544" cy="-669.928" rx="4.00002" ry="4.00002"/>
<polygon fill="#af0d71" stroke="#af0d71" points="308.634,-461.741 312.064,-451.325 308.111,-456.768 307.588,-451.796 307.588,-451.796 307.588,-451.796 308.111,-456.768 303.113,-452.267 308.634,-461.741 308.634,-461.741"/>
<text text-anchor="middle" x="356.598" y="-512.3" font-family="Times,serif" font-size="14.00">avaliations</text>
</g>
<!-- User&#45;&gt;Profile -->
<g id="edge13" class="edge"><title>User&#45;&gt;Profile</title>
<path fill="none" stroke="#8b658e" d="M683.264,-705.355C826.229,-670.144 1083.32,-597.569 1283.1,-490 1296.5,-482.784 1309.95,-474.153 1322.81,-465.046"/>
<ellipse fill="none" stroke="#8b658e" cx="679.164" cy="-706.36" rx="4.00001" ry="4.00001"/>
<ellipse fill="#8b658e" stroke="#8b658e" cx="1326.24" cy="-462.582" rx="4.00002" ry="4.00002"/>
</g>
<!-- Bottle -->
<g id="node12" class="node"><title>Bottle</title>
<path fill="none" stroke="black" d="M1127.6,-293C1127.6,-293 1262.6,-293 1262.6,-293 1268.6,-293 1274.6,-299 1274.6,-305 1274.6,-305 1274.6,-477 1274.6,-477 1274.6,-483 1268.6,-489 1262.6,-489 1262.6,-489 1127.6,-489 1127.6,-489 1121.6,-489 1115.6,-483 1115.6,-477 1115.6,-477 1115.6,-305 1115.6,-305 1115.6,-299 1121.6,-293 1127.6,-293"/>
<text text-anchor="middle" x="1195.1" y="-473.8" font-family="Times,serif" font-size="14.00">Bottle</text>
<polyline fill="none" stroke="black" points="1115.6,-466 1274.6,-466 "/>
<text text-anchor="start" x="1123.6" y="-450.8" font-family="Times,serif" font-size="14.00">id :integer</text>
<text text-anchor="start" x="1123.6" y="-435.8" font-family="Times,serif" font-size="14.00">label :string</text>
<text text-anchor="start" x="1123.6" y="-420.8" font-family="Times,serif" font-size="14.00">organization_name :string</text>
<text text-anchor="start" x="1123.6" y="-405.8" font-family="Times,serif" font-size="14.00">filling_date :date</text>
<text text-anchor="start" x="1123.6" y="-390.8" font-family="Times,serif" font-size="14.00">style :string</text>
<text text-anchor="start" x="1123.6" y="-375.8" font-family="Times,serif" font-size="14.00">amount :integer</text>
<text text-anchor="start" x="1123.6" y="-360.8" font-family="Times,serif" font-size="14.00">about :text</text>
<text text-anchor="start" x="1123.6" y="-345.8" font-family="Times,serif" font-size="14.00">measure :string</text>
<text text-anchor="start" x="1123.6" y="-330.8" font-family="Times,serif" font-size="14.00">abv :string</text>
<text text-anchor="start" x="1123.6" y="-315.8" font-family="Times,serif" font-size="14.00">private :boolean</text>
<text text-anchor="start" x="1123.6" y="-300.8" font-family="Times,serif" font-size="14.00">user_id :integer</text>
</g>
<!-- User&#45;&gt;Bottle -->
<g id="edge7" class="edge"><title>User&#45;&gt;Bottle</title>
<path fill="none" stroke="#146879" d="M682.672,-671.354C802.639,-605.953 994.473,-501.373 1106.26,-440.432"/>
<ellipse fill="none" stroke="#146879" cx="678.913" cy="-673.404" rx="4.00002" ry="4.00002"/>
<polygon fill="#146879" stroke="#146879" points="1106.38,-440.365 1117.31,-439.53 1110.77,-437.972 1115.16,-435.579 1115.16,-435.579 1115.16,-435.579 1110.77,-437.972 1113.01,-431.628 1106.38,-440.365 1106.38,-440.365"/>
</g>
<!-- Question -->
<g id="node13" class="node"><title>Question</title>
<path fill="none" stroke="black" d="M609.598,-345.5C609.598,-345.5 686.598,-345.5 686.598,-345.5 692.598,-345.5 698.598,-351.5 698.598,-357.5 698.598,-357.5 698.598,-424.5 698.598,-424.5 698.598,-430.5 692.598,-436.5 686.598,-436.5 686.598,-436.5 609.598,-436.5 609.598,-436.5 603.598,-436.5 597.598,-430.5 597.598,-424.5 597.598,-424.5 597.598,-357.5 597.598,-357.5 597.598,-351.5 603.598,-345.5 609.598,-345.5"/>
<text text-anchor="middle" x="648.098" y="-421.3" font-family="Times,serif" font-size="14.00">Question</text>
<polyline fill="none" stroke="black" points="597.598,-413.5 698.598,-413.5 "/>
<text text-anchor="start" x="605.598" y="-398.3" font-family="Times,serif" font-size="14.00">id :integer</text>
<text text-anchor="start" x="605.598" y="-383.3" font-family="Times,serif" font-size="14.00">title :string</text>
<text text-anchor="start" x="605.598" y="-368.3" font-family="Times,serif" font-size="14.00">content :text</text>
<text text-anchor="start" x="605.598" y="-353.3" font-family="Times,serif" font-size="14.00">user_id :integer</text>
</g>
<!-- User&#45;&gt;Question -->
<g id="edge5" class="edge"><title>User&#45;&gt;Question</title>
<path fill="none" stroke="#34840b" d="M617.247,-534.844C624.226,-502.529 630.923,-471.522 636.283,-446.703"/>
<ellipse fill="none" stroke="#34840b" cx="616.392" cy="-538.803" rx="4.00001" ry="4.00001"/>
<polygon fill="#34840b" stroke="#34840b" points="636.309,-446.585 642.818,-437.76 637.364,-441.697 638.42,-436.81 638.42,-436.81 638.42,-436.81 637.364,-441.697 634.021,-435.86 636.309,-446.585 636.309,-446.585"/>
</g>
<!-- Picture -->
<g id="node14" class="node"><title>Picture</title>
<path fill="none" stroke="black" d="M1493.6,-88.5C1493.6,-88.5 1638.6,-88.5 1638.6,-88.5 1644.6,-88.5 1650.6,-94.5 1650.6,-100.5 1650.6,-100.5 1650.6,-227.5 1650.6,-227.5 1650.6,-233.5 1644.6,-239.5 1638.6,-239.5 1638.6,-239.5 1493.6,-239.5 1493.6,-239.5 1487.6,-239.5 1481.6,-233.5 1481.6,-227.5 1481.6,-227.5 1481.6,-100.5 1481.6,-100.5 1481.6,-94.5 1487.6,-88.5 1493.6,-88.5"/>
<text text-anchor="middle" x="1566.1" y="-224.3" font-family="Times,serif" font-size="14.00">Picture</text>
<polyline fill="none" stroke="black" points="1481.6,-216.5 1650.6,-216.5 "/>
<text text-anchor="start" x="1489.6" y="-201.3" font-family="Times,serif" font-size="14.00">id :integer</text>
<text text-anchor="start" x="1489.6" y="-186.3" font-family="Times,serif" font-size="14.00">user_id :integer</text>
<text text-anchor="start" x="1489.6" y="-171.3" font-family="Times,serif" font-size="14.00">picture_file_name :string</text>
<text text-anchor="start" x="1489.6" y="-156.3" font-family="Times,serif" font-size="14.00">picture_content_type :string</text>
<text text-anchor="start" x="1489.6" y="-141.3" font-family="Times,serif" font-size="14.00">picture_file_size :integer</text>
<text text-anchor="start" x="1489.6" y="-126.3" font-family="Times,serif" font-size="14.00">picture_update_at :datetime</text>
<text text-anchor="start" x="1489.6" y="-111.3" font-family="Times,serif" font-size="14.00">attachable_id :integer</text>
<text text-anchor="start" x="1489.6" y="-96.3" font-family="Times,serif" font-size="14.00">attachable_type :string</text>
</g>
<!-- User&#45;&gt;Picture -->
<g id="edge11" class="edge"><title>User&#45;&gt;Picture</title>
<path fill="none" stroke="#257d96" d="M683.299,-719.689C858.313,-699.944 1211.41,-647.27 1484.1,-524 1507.59,-513.38 1518.16,-512.298 1531.1,-490 1573.52,-416.905 1578.43,-318.868 1575.12,-249.645"/>
<ellipse fill="none" stroke="#257d96" cx="679.076" cy="-720.16" rx="4.00001" ry="4.00001"/>
<polygon fill="#257d96" stroke="#257d96" points="1575.12,-249.632 1579.07,-239.402 1574.84,-244.639 1574.57,-239.647 1574.57,-239.647 1574.57,-239.647 1574.84,-244.639 1570.08,-239.892 1575.12,-249.632 1575.12,-249.632"/>
</g>
<!-- ReputationSystem::Reputation -->
<g id="node15" class="node"><title>ReputationSystem::Reputation</title>
<ellipse fill="none" stroke="black" cx="462.098" cy="-18" rx="118.409" ry="18"/>
<text text-anchor="middle" x="462.098" y="-14.3" font-family="Times,serif" font-size="14.00">ReputationSystem::Reputation</text>
</g>
<!-- User&#45;&gt;ReputationSystem::Reputation -->
<g id="edge14" class="edge"><title>User&#45;&gt;ReputationSystem::Reputation</title>
<path fill="none" stroke="#2695c9" d="M470.514,-584.336C452.288,-554.201 435.053,-521.893 422.098,-490 388.276,-406.741 434.608,-364.199 381.098,-292 371.15,-278.578 361.809,-283.546 348.098,-274 329.226,-260.861 318.619,-260.932 309.098,-240 281.127,-178.507 272.44,-144.745 309.098,-88 325.718,-62.2718 354.486,-46.0386 382.623,-35.8408"/>
<ellipse fill="none" stroke="#2695c9" cx="472.829" cy="-588.127" rx="4.00002" ry="4.00002"/>
<polygon fill="#2695c9" stroke="#2695c9" points="382.655,-35.8299 393.572,-36.869 387.389,-34.2193 392.122,-32.6088 392.122,-32.6088 392.122,-32.6088 387.389,-34.2193 390.673,-28.3486 382.655,-35.8299 382.655,-35.8299"/>
<text text-anchor="middle" x="378.598" y="-262.3" font-family="Times,serif" font-size="14.00">reputations</text>
</g>
<!-- ReputationSystem::Evaluation -->
<g id="node16" class="node"><title>ReputationSystem::Evaluation</title>
<ellipse fill="none" stroke="black" cx="720.098" cy="-18" rx="117.935" ry="18"/>
<text text-anchor="middle" x="720.098" y="-14.3" font-family="Times,serif" font-size="14.00">ReputationSystem::Evaluation</text>
</g>
<!-- User&#45;&gt;ReputationSystem::Evaluation -->
<g id="edge15" class="edge"><title>User&#45;&gt;ReputationSystem::Evaluation</title>
<path fill="none" stroke="#c03760" d="M683.431,-718.877C862.32,-697.772 1228.21,-642.952 1515.1,-524 1645.83,-469.795 1634.52,-379.37 1659.1,-240 1670.83,-173.471 1705.08,-137.488 1659.1,-88 1605.08,-29.8691 1092.74,-20.2259 848.462,-18.9583"/>
<ellipse fill="none" stroke="#c03760" cx="679.289" cy="-719.361" rx="4.00001" ry="4.00001"/>
<polygon fill="#c03760" stroke="#c03760" points="848.46,-18.9584 838.482,-14.4103 843.46,-18.9343 838.46,-18.9103 838.46,-18.9103 838.46,-18.9103 843.46,-18.9343 838.438,-23.4102 848.46,-18.9584 848.46,-18.9584"/>
<text text-anchor="middle" x="1687.1" y="-262.3" font-family="Times,serif" font-size="14.00">evaluations</text>
</g>
<!-- Answer&#45;&gt;ReputationSystem::Reputation -->
<g id="edge16" class="edge"><title>Answer&#45;&gt;ReputationSystem::Reputation</title>
<path fill="none" stroke="#4e242b" d="M478.297,-103.603C472.099,-92.9146 466.656,-81.5001 463.098,-70 460.794,-62.5551 459.956,-54.2021 459.848,-46.4452"/>
<ellipse fill="none" stroke="#4e242b" cx="480.401" cy="-107.091" rx="4.00002" ry="4.00002"/>
<polygon fill="#4e242b" stroke="#4e242b" points="459.85,-46.3755 464.584,-36.4839 459.967,-41.3769 460.085,-36.3782 460.085,-36.3782 460.085,-36.3782 459.967,-41.3769 455.586,-36.2725 459.85,-46.3755 459.85,-46.3755"/>
<text text-anchor="middle" x="493.598" y="-58.3" font-family="Times,serif" font-size="14.00">reputations</text>
</g>
<!-- Answer&#45;&gt;ReputationSystem::Evaluation -->
<g id="edge17" class="edge"><title>Answer&#45;&gt;ReputationSystem::Evaluation</title>
<path fill="none" stroke="#15f52b" d="M578.83,-105.337C598.192,-87.1929 620.944,-68.2055 644.098,-54 652.641,-48.7584 662.1,-43.7997 671.361,-39.3521"/>
<ellipse fill="none" stroke="#15f52b" cx="575.834" cy="-108.181" rx="4.00002" ry="4.00002"/>
<polygon fill="#15f52b" stroke="#15f52b" points="671.451,-39.3101 682.416,-39.1618 675.983,-37.1968 680.514,-35.0835 680.514,-35.0835 680.514,-35.0835 675.983,-37.1968 678.612,-31.0052 671.451,-39.3101 671.451,-39.3101"/>
<text text-anchor="middle" x="675.098" y="-58.3" font-family="Times,serif" font-size="14.00">evaluations</text>
</g>
<!-- Profile&#45;&gt;Picture -->
<g id="edge18" class="edge"><title>Profile&#45;&gt;Picture</title>
<path fill="none" stroke="#17106b" d="M1495.41,-341.865C1519.8,-323.85 1543.62,-301.065 1558.1,-274 1562.12,-266.484 1564.98,-258.25 1566.95,-249.781"/>
<ellipse fill="none" stroke="#17106b" cx="1492.1" cy="-344.242" rx="4.00002" ry="4.00002"/>
<polygon fill="#17106b" stroke="#17106b" points="1566.99,-249.578 1573.3,-240.612 1567.94,-244.669 1568.88,-239.759 1568.88,-239.759 1568.88,-239.759 1567.94,-244.669 1564.47,-238.907 1566.99,-249.578 1566.99,-249.578"/>
</g>
<!-- ActsAsTaggableOn::Tagging -->
<g id="node17" class="node"><title>ActsAsTaggableOn::Tagging</title>
<ellipse fill="none" stroke="black" cx="914.098" cy="-164" rx="114.085" ry="18"/>
<text text-anchor="middle" x="914.098" y="-160.3" font-family="Times,serif" font-size="14.00">ActsAsTaggableOn::Tagging</text>
</g>
<!-- Profile&#45;&gt;ActsAsTaggableOn::Tagging -->
<g id="edge19" class="edge"><title>Profile&#45;&gt;ActsAsTaggableOn::Tagging</title>
<path fill="none" stroke="#0e62cd" d="M1322.47,-312.38C1309.93,-304.283 1296.65,-297.147 1283.1,-292 1225.43,-270.099 1061.17,-301.79 1006.1,-274 987.365,-264.547 953.117,-219.843 932.105,-190.702"/>
<ellipse fill="none" stroke="#0e62cd" cx="1326.03" cy="-314.753" rx="4.00002" ry="4.00002"/>
<polygon fill="#0e62cd" stroke="#0e62cd" points="931.854,-190.35 929.702,-179.598 928.947,-186.282 926.04,-182.214 926.04,-182.214 926.04,-182.214 928.947,-186.282 922.379,-184.83 931.854,-190.35 931.854,-190.35"/>
<text text-anchor="middle" x="1029.1" y="-262.3" font-family="Times,serif" font-size="14.00">taggings</text>
</g>
<!-- Profile&#45;&gt;ActsAsTaggableOn::Tagging -->
<g id="edge21" class="edge"><title>Profile&#45;&gt;ActsAsTaggableOn::Tagging</title>
<path fill="none" stroke="#ed18b6" d="M1330.03,-294.972C1313.67,-280.423 1295.46,-267.207 1276.1,-258 1207.88,-225.562 1180.5,-257.836 1107.1,-240 1053.8,-227.05 995.481,-202.896 957.055,-185.493"/>
<ellipse fill="none" stroke="#ed18b6" cx="1333.02" cy="-297.694" rx="4.00002" ry="4.00002"/>
<polygon fill="#ed18b6" stroke="#ed18b6" points="956.822,-185.387 949.602,-177.133 952.276,-183.306 947.729,-181.225 947.729,-181.225 947.729,-181.225 952.276,-183.306 945.856,-185.317 956.822,-185.387 956.822,-185.387"/>
<text text-anchor="middle" x="1338.1" y="-262.3" font-family="Times,serif" font-size="14.00">tag_taggings</text>
</g>
<!-- ActsAsTaggableOn::Tag -->
<g id="node18" class="node"><title>ActsAsTaggableOn::Tag</title>
<ellipse fill="none" stroke="black" cx="1215.1" cy="-164" rx="98.1881" ry="18"/>
<text text-anchor="middle" x="1215.1" y="-160.3" font-family="Times,serif" font-size="14.00">ActsAsTaggableOn::Tag</text>
</g>
<!-- Profile&#45;&gt;ActsAsTaggableOn::Tag -->
<g id="edge20" class="edge"><title>Profile&#45;&gt;ActsAsTaggableOn::Tag</title>
<path fill="none" stroke="#314807" d="M1404.03,-290.231C1400.21,-278.546 1394.76,-267.445 1387.1,-258 1373.27,-240.95 1360.82,-249.647 1341.1,-240 1308.72,-224.159 1273.6,-202.894 1248.69,-187.053"/>
<polygon fill="#314807" stroke="#314807" points="1404.12,-290.545 1402.54,-301.397 1405.49,-295.352 1406.86,-300.16 1406.86,-300.16 1406.86,-300.16 1405.49,-295.352 1411.19,-298.923 1404.12,-290.545 1404.12,-290.545"/>
<polygon fill="#314807" stroke="#314807" points="1248.42,-186.878 1242.43,-177.694 1244.21,-184.18 1240,-181.483 1240,-181.483 1240,-181.483 1244.21,-184.18 1237.57,-185.271 1248.42,-186.878 1248.42,-186.878"/>
<text text-anchor="middle" x="1423.6" y="-262.3" font-family="Times,serif" font-size="14.00">base_tags</text>
</g>
<!-- Profile&#45;&gt;ActsAsTaggableOn::Tag -->
<g id="edge22" class="edge"><title>Profile&#45;&gt;ActsAsTaggableOn::Tag</title>
<path fill="none" stroke="#038170" d="M1464.86,-289.99C1465.2,-278.468 1462.18,-267.473 1454.1,-258 1437.59,-238.657 1365.01,-248.658 1341.1,-240 1305.98,-227.284 1269.74,-204.512 1245.19,-187.386"/>
<polygon fill="#038170" stroke="#038170" points="1464.83,-290.286 1459.27,-299.739 1464.29,-295.257 1463.75,-300.227 1463.75,-300.227 1463.75,-300.227 1464.29,-295.257 1468.22,-300.715 1464.83,-290.286 1464.83,-290.286"/>
<polygon fill="#038170" stroke="#038170" points="1245.17,-187.373 1239.61,-177.918 1241.09,-184.481 1237.01,-181.589 1237.01,-181.589 1237.01,-181.589 1241.09,-184.481 1234.41,-185.26 1245.17,-187.373 1245.17,-187.373"/>
<text text-anchor="middle" x="1474.1" y="-262.3" font-family="Times,serif" font-size="14.00">tags</text>
</g>
<!-- Bottle&#45;&gt;BottleTrade -->
<g id="edge24" class="edge"><title>Bottle&#45;&gt;BottleTrade</title>
<path fill="none" stroke="#ae321e" d="M1281.63,-313.054C1293.94,-304.896 1306.91,-297.562 1320.1,-292 1347.78,-280.321 1434.32,-296.615 1454.1,-274 1466.12,-260.258 1464.19,-242.973 1456.53,-226.243"/>
<ellipse fill="none" stroke="#ae321e" cx="1278.17" cy="-315.413" rx="4.00002" ry="4.00002"/>
<polygon fill="#ae321e" stroke="#ae321e" points="1456.35,-225.902 1455.72,-214.954 1454.04,-221.467 1451.73,-217.032 1451.73,-217.032 1451.73,-217.032 1454.04,-221.467 1447.74,-219.109 1456.35,-225.902 1456.35,-225.902"/>
</g>
<!-- Bottle&#45;&gt;Picture -->
<g id="edge23" class="edge"><title>Bottle&#45;&gt;Picture</title>
<path fill="none" stroke="#cb6966" d="M1281.49,-312.708C1293.82,-304.607 1306.84,-297.381 1320.1,-292 1390.09,-263.596 1423.96,-312.247 1489.1,-274 1500.75,-267.156 1511.1,-257.77 1520.12,-247.357"/>
<ellipse fill="none" stroke="#cb6966" cx="1278.02" cy="-315.052" rx="4.00002" ry="4.00002"/>
<polygon fill="#cb6966" stroke="#cb6966" points="1520.12,-247.354 1529.94,-242.465 1523.29,-243.484 1526.45,-239.615 1526.45,-239.615 1526.45,-239.615 1523.29,-243.484 1522.97,-236.765 1520.12,-247.354 1520.12,-247.354"/>
</g>
<!-- Bottle&#45;&gt;ActsAsTaggableOn::Tagging -->
<g id="edge25" class="edge"><title>Bottle&#45;&gt;ActsAsTaggableOn::Tagging</title>
<path fill="none" stroke="#be07ac" d="M1107.4,-388.244C1024.36,-381.335 903.763,-356.558 844.098,-274 823.235,-245.133 854.973,-210.268 882.216,-187.873"/>
<ellipse fill="none" stroke="#be07ac" cx="1111.58" cy="-388.567" rx="4" ry="4"/>
<polygon fill="#be07ac" stroke="#be07ac" points="882.262,-187.837 892.893,-185.15 886.18,-184.73 890.097,-181.624 890.097,-181.624 890.097,-181.624 886.18,-184.73 887.301,-178.098 882.262,-187.837 882.262,-187.837"/>
<text text-anchor="middle" x="867.098" y="-262.3" font-family="Times,serif" font-size="14.00">taggings</text>
</g>
<!-- Bottle&#45;&gt;ActsAsTaggableOn::Tagging -->
<g id="edge27" class="edge"><title>Bottle&#45;&gt;ActsAsTaggableOn::Tagging</title>
<path fill="none" stroke="#f307bd" d="M1107.56,-379.737C1041.86,-366.936 956.135,-338.239 913.098,-274 896.949,-249.896 900.501,-215.569 905.949,-191.909"/>
<ellipse fill="none" stroke="#f307bd" cx="1111.53" cy="-380.483" rx="4.00001" ry="4.00001"/>
<polygon fill="#f307bd" stroke="#f307bd" points="905.961,-191.863 912.795,-183.287 907.198,-187.019 908.435,-182.174 908.435,-182.174 908.435,-182.174 907.198,-187.019 904.075,-181.061 905.961,-191.863 905.961,-191.863"/>
<text text-anchor="middle" x="948.098" y="-262.3" font-family="Times,serif" font-size="14.00">tag_taggings</text>
</g>
<!-- Bottle&#45;&gt;ActsAsTaggableOn::Tag -->
<g id="edge26" class="edge"><title>Bottle&#45;&gt;ActsAsTaggableOn::Tag</title>
<path fill="none" stroke="#0f600b" d="M1217.14,-282.711C1217.5,-279.781 1217.82,-276.873 1218.1,-274 1218.79,-266.923 1218.21,-265.11 1218.1,-258 1217.74,-235.856 1216.91,-210.759 1216.21,-192.221"/>
<polygon fill="#0f600b" stroke="#0f600b" points="1217.13,-282.824 1211.36,-292.148 1216.47,-287.781 1215.82,-292.738 1215.82,-292.738 1215.82,-292.738 1216.47,-287.781 1220.28,-293.327 1217.13,-282.824 1217.13,-282.824"/>
<polygon fill="#0f600b" stroke="#0f600b" points="1216.2,-192.129 1220.31,-181.962 1216.01,-187.133 1215.82,-182.137 1215.82,-182.137 1215.82,-182.137 1216.01,-187.133 1211.32,-182.311 1216.2,-192.129 1216.2,-192.129"/>
<text text-anchor="middle" x="1245.6" y="-262.3" font-family="Times,serif" font-size="14.00">base_tags</text>
</g>
<!-- Bottle&#45;&gt;ActsAsTaggableOn::Tag -->
<g id="edge28" class="edge"><title>Bottle&#45;&gt;ActsAsTaggableOn::Tag</title>
<path fill="none" stroke="#162e15" d="M1190.08,-282.669C1190.47,-274.308 1191.12,-266.008 1192.1,-258 1194.85,-235.398 1201.24,-210.375 1206.58,-191.984"/>
<polygon fill="#162e15" stroke="#162e15" points="1190.07,-282.89 1185.22,-292.724 1189.89,-287.886 1189.71,-292.883 1189.71,-292.883 1189.71,-292.883 1189.89,-287.886 1194.21,-293.043 1190.07,-282.89 1190.07,-282.89"/>
<polygon fill="#162e15" stroke="#162e15" points="1206.63,-191.829 1213.81,-183.538 1208.06,-187.038 1209.49,-182.248 1209.49,-182.248 1209.49,-182.248 1208.06,-187.038 1205.18,-180.958 1206.63,-191.829 1206.63,-191.829"/>
<text text-anchor="middle" x="1203.1" y="-262.3" font-family="Times,serif" font-size="14.00">tags</text>
</g>
<!-- Question&#45;&gt;FavoriteQuestion -->
<g id="edge30" class="edge"><title>Question&#45;&gt;FavoriteQuestion</title>
<path fill="none" stroke="#f4d0a8" d="M602.788,-339.364C576.244,-312.187 540.794,-279.877 504.098,-258 483.091,-245.476 472.648,-253.26 452.098,-240 439.367,-231.786 427.305,-220.823 416.857,-209.821"/>
<ellipse fill="none" stroke="#f4d0a8" cx="605.875" cy="-342.559" rx="4.00002" ry="4.00002"/>
<polygon fill="#f4d0a8" stroke="#f4d0a8" points="416.654,-209.599 413.21,-199.189 413.274,-205.915 409.894,-202.231 409.894,-202.231 409.894,-202.231 413.274,-205.915 406.578,-205.273 416.654,-209.599 416.654,-209.599"/>
</g>
<!-- Question&#45;&gt;Answer -->
<g id="edge29" class="edge"><title>Question&#45;&gt;Answer</title>
<path fill="none" stroke="#62470b" d="M624.053,-337.93C612.306,-313.365 597.601,-283.84 583.098,-258 577.116,-247.343 570.444,-236.21 563.799,-225.504"/>
<ellipse fill="none" stroke="#62470b" cx="625.882" cy="-341.773" rx="4.00002" ry="4.00002"/>
<polygon fill="#62470b" stroke="#62470b" points="563.797,-225.501 562.302,-214.638 561.143,-221.264 558.489,-217.026 558.489,-217.026 558.489,-217.026 561.143,-221.264 554.675,-219.415 563.797,-225.501 563.797,-225.501"/>
</g>
<!-- Question&#45;&gt;ReputationSystem::Reputation -->
<g id="edge31" class="edge"><title>Question&#45;&gt;ReputationSystem::Reputation</title>
<path fill="none" stroke="#3f49f4" d="M638.123,-337.308C632.995,-308.625 627.017,-272.463 623.098,-240 620.614,-219.424 622.546,-69.7698 609.098,-54 601.393,-44.9646 580.755,-37.9427 557.294,-32.6402"/>
<ellipse fill="none" stroke="#3f49f4" cx="638.835" cy="-341.254" rx="4.00001" ry="4.00001"/>
<polygon fill="#3f49f4" stroke="#3f49f4" points="557.244,-32.6294 548.401,-26.1444 552.353,-31.5875 547.463,-30.5456 547.463,-30.5456 547.463,-30.5456 552.353,-31.5875 546.525,-34.9468 557.244,-32.6294 557.244,-32.6294"/>
<text text-anchor="middle" x="653.598" y="-160.3" font-family="Times,serif" font-size="14.00">reputations</text>
</g>
<!-- Question&#45;&gt;ReputationSystem::Evaluation -->
<g id="edge32" class="edge"><title>Question&#45;&gt;ReputationSystem::Evaluation</title>
<path fill="none" stroke="#4f1245" d="M650.236,-337.517C652.974,-312.377 658.822,-282.488 671.098,-258 676.029,-248.163 683.308,-249.907 688.098,-240 719.209,-175.647 722.105,-89.3551 721.291,-46.1064"/>
<ellipse fill="none" stroke="#4f1245" cx="649.844" cy="-341.519" rx="4" ry="4"/>
<polygon fill="#4f1245" stroke="#4f1245" points="721.29,-46.0742 725.517,-35.9557 721.154,-41.076 721.019,-36.0779 721.019,-36.0779 721.019,-36.0779 721.154,-41.076 716.52,-36.2 721.29,-46.0742 721.29,-46.0742"/>
<text text-anchor="middle" x="752.098" y="-160.3" font-family="Times,serif" font-size="14.00">evaluations</text>
</g>
<!-- Question&#45;&gt;ActsAsTaggableOn::Tagging -->
<g id="edge33" class="edge"><title>Question&#45;&gt;ActsAsTaggableOn::Tagging</title>
<path fill="none" stroke="#3419a1" d="M692.029,-339.379C715.474,-313.688 745.53,-282.763 775.098,-258 807.576,-230.8 848.185,-204.395 877.107,-186.714"/>
<ellipse fill="none" stroke="#3419a1" cx="689.209" cy="-342.489" rx="4.00002" ry="4.00002"/>
<polygon fill="#3419a1" stroke="#3419a1" points="877.133,-186.699 888.017,-185.365 881.409,-184.107 885.685,-181.516 885.685,-181.516 885.685,-181.516 881.409,-184.107 883.353,-177.668 877.133,-186.699 877.133,-186.699"/>
<text text-anchor="middle" x="798.098" y="-262.3" font-family="Times,serif" font-size="14.00">taggings</text>
</g>
<!-- Question&#45;&gt;ActsAsTaggableOn::Tagging -->
<g id="edge35" class="edge"><title>Question&#45;&gt;ActsAsTaggableOn::Tagging</title>
<path fill="none" stroke="#6b5fad" d="M650.809,-337.454C655.031,-309.971 664.847,-277.98 687.098,-258 720.373,-228.121 744.164,-255.542 786.098,-240 821.311,-226.949 857.936,-204.434 882.941,-187.47"/>
<ellipse fill="none" stroke="#6b5fad" cx="650.258" cy="-341.482" rx="4.00001" ry="4.00001"/>
<polygon fill="#6b5fad" stroke="#6b5fad" points="883.044,-187.399 893.832,-185.432 887.162,-184.563 891.279,-181.726 891.279,-181.726 891.279,-181.726 887.162,-184.563 888.726,-178.02 883.044,-187.399 883.044,-187.399"/>
<text text-anchor="middle" x="722.098" y="-262.3" font-family="Times,serif" font-size="14.00">tag_taggings</text>
</g>
<!-- Question&#45;&gt;ActsAsTaggableOn::Tag -->
<g id="edge34" class="edge"><title>Question&#45;&gt;ActsAsTaggableOn::Tag</title>
<path fill="none" stroke="#2eb088" d="M708.87,-383.847C798.552,-372.723 969.487,-343.598 1097.1,-274 1136.47,-252.525 1172.94,-215.016 1194.62,-190.092"/>
<polygon fill="#2eb088" stroke="#2eb088" points="708.798,-383.855 698.331,-380.586 703.834,-384.455 698.87,-385.054 698.87,-385.054 698.87,-385.054 703.834,-384.455 699.409,-389.521 708.798,-383.855 708.798,-383.855"/>
<polygon fill="#2eb088" stroke="#2eb088" points="1194.9,-189.77 1204.81,-185.085 1198.14,-185.967 1201.39,-182.164 1201.39,-182.164 1201.39,-182.164 1198.14,-185.967 1197.97,-179.243 1194.9,-189.77 1194.9,-189.77"/>
<text text-anchor="middle" x="1146.6" y="-262.3" font-family="Times,serif" font-size="14.00">base_tags</text>
</g>
<!-- Question&#45;&gt;ActsAsTaggableOn::Tag -->
<g id="edge36" class="edge"><title>Question&#45;&gt;ActsAsTaggableOn::Tag</title>
<path fill="none" stroke="#b78a49" d="M708.717,-380.774C790.457,-366.556 938.819,-334.385 1052.1,-274 1061.84,-268.807 1062.22,-264.563 1071.1,-258 1106.56,-231.784 1149.21,-204.76 1178.85,-186.646"/>
<polygon fill="#b78a49" stroke="#b78a49" points="708.701,-380.777 698.086,-378.025 703.772,-381.619 698.844,-382.461 698.844,-382.461 698.844,-382.461 703.772,-381.619 699.601,-386.896 708.701,-380.777 708.701,-380.777"/>
<polygon fill="#b78a49" stroke="#b78a49" points="1179.06,-186.516 1189.94,-185.166 1183.33,-183.918 1187.61,-181.321 1187.61,-181.321 1187.61,-181.321 1183.33,-183.918 1185.27,-177.476 1179.06,-186.516 1179.06,-186.516"/>
<text text-anchor="middle" x="1082.1" y="-262.3" font-family="Times,serif" font-size="14.00">tags</text>
</g>
</g>
</svg>
