<?xml version="1.0" encoding="UTF-8" standalone="no"?>
<!DOCTYPE svg PUBLIC "-//W3C//DTD SVG 1.1//EN"
 "http://www.w3.org/Graphics/SVG/1.1/DTD/svg11.dtd">
<!-- Generated by graphviz version 2.36.0 (20140111.2315)
 -->
<!-- Title: models_diagram Pages: 1 -->
<svg width="1598pt" height="424pt"
 viewBox="0.00 0.00 1598.00 424.00" xmlns="http://www.w3.org/2000/svg" xmlns:xlink="http://www.w3.org/1999/xlink">
<g id="graph0" class="graph" transform="scale(1 1) rotate(0) translate(4 420)">
<title>models_diagram</title>
<polygon fill="none" stroke="none" points="-4,4 -4,-420 1594,-420 1594,4 -4,4"/>
<!-- _diagram_info -->
<g id="node1" class="node"><title>_diagram_info</title>
<text text-anchor="start" x="1309" y="-401.6" font-family="Times,serif" font-size="13.00">Models diagram</text>
<text text-anchor="start" x="1309" y="-387.6" font-family="Times,serif" font-size="13.00">Date: Sep 21 2015 &#45; 21:13</text>
<text text-anchor="start" x="1309" y="-373.6" font-family="Times,serif" font-size="13.00">Migration version: 20150921235055</text>
<text text-anchor="start" x="1309" y="-359.6" font-family="Times,serif" font-size="13.00">Generated by RailRoady 1.3.1</text>
<text text-anchor="start" x="1309" y="-345.6" font-family="Times,serif" font-size="13.00">http://railroady.prestonlee.com</text>
</g>
<!-- City -->
<g id="node2" class="node"><title>City</title>
<ellipse fill="none" stroke="black" cx="1562" cy="-282" rx="27" ry="18"/>
<text text-anchor="middle" x="1562" y="-278.3" font-family="Times,serif" font-size="14.00">City</text>
</g>
<!-- Profile -->
<g id="node11" class="node"><title>Profile</title>
<ellipse fill="none" stroke="black" cx="1286" cy="-194" rx="34.1708" ry="18"/>
<text text-anchor="middle" x="1286" y="-190.3" font-family="Times,serif" font-size="14.00">Profile</text>
</g>
<!-- City&#45;&gt;Profile -->
<g id="edge1" class="edge"><title>City&#45;&gt;Profile</title>
<path fill="none" stroke="#ecf985" d="M1530.09,-271.057C1479.04,-255.15 1379.19,-224.038 1324.35,-206.948"/>
<ellipse fill="none" stroke="#ecf985" cx="1534.17" cy="-272.329" rx="4.00001" ry="4.00001"/>
<polygon fill="#ecf985" stroke="#ecf985" points="1324.2,-206.902 1315.99,-199.631 1319.42,-205.415 1314.65,-203.927 1314.65,-203.927 1314.65,-203.927 1319.42,-205.415 1313.31,-208.223 1324.2,-206.902 1324.2,-206.902"/>
</g>
<!-- BottleTrade -->
<g id="node3" class="node"><title>BottleTrade</title>
<ellipse fill="none" stroke="black" cx="1354" cy="-106" rx="52.4675" ry="18"/>
<text text-anchor="middle" x="1354" y="-102.3" font-family="Times,serif" font-size="14.00">BottleTrade</text>
</g>
<!-- State -->
<g id="node4" class="node"><title>State</title>
<ellipse fill="none" stroke="black" cx="1562" cy="-377" rx="28.3955" ry="18"/>
<text text-anchor="middle" x="1562" y="-373.3" font-family="Times,serif" font-size="14.00">State</text>
</g>
<!-- State&#45;&gt;City -->
<g id="edge2" class="edge"><title>State&#45;&gt;City</title>
<path fill="none" stroke="#f1480c" d="M1562,-350.562C1562,-338.078 1562,-323.025 1562,-310.299"/>
<ellipse fill="none" stroke="#f1480c" cx="1562" cy="-354.942" rx="4" ry="4"/>
<polygon fill="#f1480c" stroke="#f1480c" points="1562,-310.264 1566.5,-300.264 1562,-305.264 1562,-300.264 1562,-300.264 1562,-300.264 1562,-305.264 1557.5,-300.264 1562,-310.264 1562,-310.264"/>
</g>
<!-- Trade -->
<g id="node5" class="node"><title>Trade</title>
<ellipse fill="none" stroke="black" cx="116" cy="-194" rx="31.2965" ry="18"/>
<text text-anchor="middle" x="116" y="-190.3" font-family="Times,serif" font-size="14.00">Trade</text>
</g>
<!-- MessageTrade -->
<g id="node8" class="node"><title>MessageTrade</title>
<ellipse fill="none" stroke="black" cx="62" cy="-106" rx="62.0922" ry="18"/>
<text text-anchor="middle" x="62" y="-102.3" font-family="Times,serif" font-size="14.00">MessageTrade</text>
</g>
<!-- Trade&#45;&gt;MessageTrade -->
<g id="edge3" class="edge"><title>Trade&#45;&gt;MessageTrade</title>
<path fill="none" stroke="#d776aa" d="M101.351,-169.67C94.1316,-158.173 85.411,-144.284 78.0157,-132.506"/>
<ellipse fill="none" stroke="#d776aa" cx="103.716" cy="-173.436" rx="4.00002" ry="4.00002"/>
<polygon fill="#d776aa" stroke="#d776aa" points="77.9834,-132.455 76.4767,-121.593 75.3245,-128.22 72.6656,-123.986 72.6656,-123.986 72.6656,-123.986 75.3245,-128.22 68.8546,-126.379 77.9834,-132.455 77.9834,-132.455"/>
<text text-anchor="middle" x="120" y="-146.3" font-family="Times,serif" font-size="14.00">messages</text>
</g>
<!-- FavoriteQuestion -->
<g id="node6" class="node"><title>FavoriteQuestion</title>
<ellipse fill="none" stroke="black" cx="298" cy="-106" rx="71.2405" ry="18"/>
<text text-anchor="middle" x="298" y="-102.3" font-family="Times,serif" font-size="14.00">FavoriteQuestion</text>
</g>
<!-- User -->
<g id="node7" class="node"><title>User</title>
<ellipse fill="none" stroke="black" cx="456" cy="-282" rx="26.949" ry="18"/>
<text text-anchor="middle" x="456" y="-278.3" font-family="Times,serif" font-size="14.00">User</text>
</g>
<!-- User&#45;&gt;BottleTrade -->
<g id="edge8" class="edge"><title>User&#45;&gt;BottleTrade</title>
<path fill="none" stroke="#1cf9bb" d="M491.582,-280.059C646.342,-275.714 1256.38,-255.914 1329,-212 1353.27,-197.324 1355.14,-185.249 1363,-158 1365.22,-150.312 1364.81,-141.805 1363.33,-133.978"/>
<ellipse fill="none" stroke="#1cf9bb" cx="487.298" cy="-280.178" rx="4" ry="4"/>
<polygon fill="#1cf9bb" stroke="#1cf9bb" points="1363.31,-133.911 1365.26,-123.12 1362.1,-129.059 1360.89,-124.207 1360.89,-124.207 1360.89,-124.207 1362.1,-129.059 1356.53,-125.294 1363.31,-133.911 1363.31,-133.911"/>
</g>
<!-- User&#45;&gt;Trade -->
<g id="edge4" class="edge"><title>User&#45;&gt;Trade</title>
<path fill="none" stroke="#9b5e26" d="M421.137,-277.779C378.003,-273.242 302.597,-263.501 240,-246 201.212,-235.155 193.201,-227.433 156,-212 153.961,-211.154 151.866,-210.28 149.755,-209.394"/>
<ellipse fill="none" stroke="#9b5e26" cx="425.341" cy="-278.21" rx="4" ry="4"/>
<polygon fill="#9b5e26" stroke="#9b5e26" points="149.725,-209.382 142.259,-201.35 145.118,-207.439 140.51,-205.496 140.51,-205.496 140.51,-205.496 145.118,-207.439 138.762,-209.642 149.725,-209.382 149.725,-209.382"/>
</g>
<!-- User&#45;&gt;FavoriteQuestion -->
<g id="edge12" class="edge"><title>User&#45;&gt;FavoriteQuestion</title>
<path fill="none" stroke="#b3d10a" d="M436.991,-260.066C407.652,-227.756 351.471,-165.885 320.271,-131.526"/>
<ellipse fill="none" stroke="#b3d10a" cx="439.84" cy="-263.204" rx="4.00002" ry="4.00002"/>
<polygon fill="#b3d10a" stroke="#b3d10a" points="319.998,-131.225 316.607,-120.797 316.637,-127.524 313.275,-123.822 313.275,-123.822 313.275,-123.822 316.637,-127.524 309.944,-126.847 319.998,-131.225 319.998,-131.225"/>
</g>
<!-- User&#45;&gt;MessageTrade -->
<g id="edge9" class="edge"><title>User&#45;&gt;MessageTrade</title>
<path fill="none" stroke="#a73078" d="M420.717,-281.073C326.704,-280.432 73.92,-272.963 24,-212 4.74777,-188.489 23.3188,-154.403 40.6124,-131.508"/>
<ellipse fill="none" stroke="#a73078" cx="424.786" cy="-281.094" rx="4" ry="4"/>
<polygon fill="#a73078" stroke="#a73078" points="40.649,-131.462 50.3827,-126.411 43.7513,-127.54 46.8536,-123.619 46.8536,-123.619 46.8536,-123.619 43.7513,-127.54 43.3245,-120.827 40.649,-131.462 40.649,-131.462"/>
<text text-anchor="middle" x="50" y="-190.3" font-family="Times,serif" font-size="14.00">messages</text>
</g>
<!-- Answer -->
<g id="node9" class="node"><title>Answer</title>
<ellipse fill="none" stroke="black" cx="426" cy="-106" rx="38.0212" ry="18"/>
<text text-anchor="middle" x="426" y="-102.3" font-family="Times,serif" font-size="14.00">Answer</text>
</g>
<!-- User&#45;&gt;Answer -->
<g id="edge6" class="edge"><title>User&#45;&gt;Answer</title>
<path fill="none" stroke="#a45020" d="M451.683,-255.963C446.099,-223.573 436.407,-167.363 430.66,-134.029"/>
<ellipse fill="none" stroke="#a45020" cx="452.389" cy="-260.057" rx="4.00001" ry="4.00001"/>
<polygon fill="#a45020" stroke="#a45020" points="430.642,-133.924 433.378,-123.305 429.793,-128.997 428.943,-124.07 428.943,-124.07 428.943,-124.07 429.793,-128.997 424.508,-124.834 430.642,-133.924 430.642,-133.924"/>
</g>
<!-- AvaliationTrade -->
<g id="node10" class="node"><title>AvaliationTrade</title>
<ellipse fill="none" stroke="black" cx="233" cy="-194" rx="68.3664" ry="18"/>
<text text-anchor="middle" x="233" y="-190.3" font-family="Times,serif" font-size="14.00">AvaliationTrade</text>
</g>
<!-- User&#45;&gt;AvaliationTrade -->
<g id="edge10" class="edge"><title>User&#45;&gt;AvaliationTrade</title>
<path fill="none" stroke="#7eb9cf" d="M420.988,-278.781C370.672,-274.952 281.188,-265.556 256,-246 248.308,-240.028 243.113,-230.91 239.639,-222.027"/>
<ellipse fill="none" stroke="#7eb9cf" cx="425.02" cy="-279.077" rx="4" ry="4"/>
<polygon fill="#7eb9cf" stroke="#7eb9cf" points="239.554,-221.77 240.678,-210.862 237.98,-217.024 236.407,-212.278 236.407,-212.278 236.407,-212.278 237.98,-217.024 232.135,-213.695 239.554,-221.77 239.554,-221.77"/>
<text text-anchor="middle" x="285.5" y="-234.3" font-family="Times,serif" font-size="14.00">avaliations</text>
</g>
<!-- User&#45;&gt;Profile -->
<g id="edge13" class="edge"><title>User&#45;&gt;Profile</title>
<path fill="none" stroke="#100f20" d="M490.712,-277.403C623.596,-263.635 1099.74,-214.3 1244.17,-199.334"/>
<ellipse fill="none" stroke="#100f20" cx="486.654" cy="-277.824" rx="4" ry="4"/>
<ellipse fill="#100f20" stroke="#100f20" cx="1248.42" cy="-198.894" rx="4" ry="4"/>
</g>
<!-- Bottle -->
<g id="node12" class="node"><title>Bottle</title>
<ellipse fill="none" stroke="black" cx="1072" cy="-194" rx="32.2457" ry="18"/>
<text text-anchor="middle" x="1072" y="-190.3" font-family="Times,serif" font-size="14.00">Bottle</text>
</g>
<!-- User&#45;&gt;Bottle -->
<g id="edge7" class="edge"><title>User&#45;&gt;Bottle</title>
<path fill="none" stroke="#960793" d="M490.535,-276.179C596.477,-261.388 916.586,-216.697 1030.89,-200.74"/>
<ellipse fill="none" stroke="#960793" cx="486.43" cy="-276.752" rx="4.00001" ry="4.00001"/>
<polygon fill="#960793" stroke="#960793" points="1031.07,-200.714 1041.6,-203.788 1036.03,-200.022 1040.98,-199.331 1040.98,-199.331 1040.98,-199.331 1036.03,-200.022 1040.36,-194.874 1031.07,-200.714 1031.07,-200.714"/>
</g>
<!-- Question -->
<g id="node13" class="node"><title>Question</title>
<ellipse fill="none" stroke="black" cx="525" cy="-194" rx="42.3701" ry="18"/>
<text text-anchor="middle" x="525" y="-190.3" font-family="Times,serif" font-size="14.00">Question</text>
</g>
<!-- User&#45;&gt;Question -->
<g id="edge5" class="edge"><title>User&#45;&gt;Question</title>
<path fill="none" stroke="#5da10e" d="M473.529,-259.152C483.305,-246.967 495.503,-231.764 505.57,-219.217"/>
<ellipse fill="none" stroke="#5da10e" cx="470.839" cy="-262.505" rx="4.00002" ry="4.00002"/>
<polygon fill="#5da10e" stroke="#5da10e" points="505.573,-219.213 515.341,-214.229 508.702,-215.313 511.831,-211.413 511.831,-211.413 511.831,-211.413 508.702,-215.313 508.321,-208.597 505.573,-219.213 505.573,-219.213"/>
</g>
<!-- Picture -->
<g id="node14" class="node"><title>Picture</title>
<ellipse fill="none" stroke="black" cx="1460" cy="-106" rx="35.6194" ry="18"/>
<text text-anchor="middle" x="1460" y="-102.3" font-family="Times,serif" font-size="14.00">Picture</text>
</g>
<!-- User&#45;&gt;Picture -->
<g id="edge11" class="edge"><title>User&#45;&gt;Picture</title>
<path fill="none" stroke="#31863e" d="M491.42,-280.248C621.472,-277.348 1072.48,-266.048 1215,-246 1279.69,-236.9 1301.2,-244.27 1358,-212 1393.42,-191.874 1424.48,-155.779 1442.75,-131.607"/>
<ellipse fill="none" stroke="#31863e" cx="487.323" cy="-280.338" rx="4" ry="4"/>
<polygon fill="#31863e" stroke="#31863e" points="1442.95,-131.339 1452.51,-125.965 1445.92,-127.316 1448.89,-123.293 1448.89,-123.293 1448.89,-123.293 1445.92,-127.316 1445.26,-120.621 1442.95,-131.339 1442.95,-131.339"/>
</g>
<!-- ReputationSystem::Reputation -->
<g id="node15" class="node"><title>ReputationSystem::Reputation</title>
<ellipse fill="none" stroke="black" cx="339" cy="-18" rx="118.409" ry="18"/>
<text text-anchor="middle" x="339" y="-14.3" font-family="Times,serif" font-size="14.00">ReputationSystem::Reputation</text>
</g>
<!-- User&#45;&gt;ReputationSystem::Reputation -->
<g id="edge14" class="edge"><title>User&#45;&gt;ReputationSystem::Reputation</title>
<path fill="none" stroke="#98a494" d="M431.166,-263.822C411.268,-249.984 382.693,-229.947 358,-212 336.429,-196.322 333.247,-189.065 310,-176 269.055,-152.989 239.366,-165.827 218,-124 210.721,-109.751 209.963,-101.835 218,-88 231.351,-65.0175 255.542,-49.0507 278.803,-38.3118"/>
<ellipse fill="none" stroke="#98a494" cx="434.537" cy="-266.163" rx="4.00002" ry="4.00002"/>
<polygon fill="#98a494" stroke="#98a494" points="278.823,-38.3032 289.788,-38.4325 283.407,-36.3053 287.99,-34.3074 287.99,-34.3074 287.99,-34.3074 283.407,-36.3053 286.192,-30.1822 278.823,-38.3032 278.823,-38.3032"/>
<text text-anchor="middle" x="290.5" y="-146.3" font-family="Times,serif" font-size="14.00">reputations</text>
</g>
<!-- ReputationSystem::Evaluation -->
<g id="node16" class="node"><title>ReputationSystem::Evaluation</title>
<ellipse fill="none" stroke="black" cx="597" cy="-18" rx="117.935" ry="18"/>
<text text-anchor="middle" x="597" y="-14.3" font-family="Times,serif" font-size="14.00">ReputationSystem::Evaluation</text>
</g>
<!-- User&#45;&gt;ReputationSystem::Evaluation -->
<g id="edge15" class="edge"><title>User&#45;&gt;ReputationSystem::Evaluation</title>
<path fill="none" stroke="#45274d" d="M491.323,-280.663C628.446,-279.176 1125.55,-272.064 1281,-246 1392.42,-227.319 1455.29,-225.932 1504,-124 1510.9,-109.564 1514.88,-99.735 1504,-88 1452.18,-32.0854 962.477,-21.2648 724.969,-19.323"/>
<ellipse fill="none" stroke="#45274d" cx="487.19" cy="-280.707" rx="4" ry="4"/>
<polygon fill="#45274d" stroke="#45274d" points="724.892,-19.3225 714.928,-14.7448 719.893,-19.2836 714.893,-19.2447 714.893,-19.2447 714.893,-19.2447 719.893,-19.2836 714.858,-23.7445 724.892,-19.3225 724.892,-19.3225"/>
<text text-anchor="middle" x="1524" y="-146.3" font-family="Times,serif" font-size="14.00">evaluations</text>
</g>
<!-- Answer&#45;&gt;ReputationSystem::Reputation -->
<g id="edge16" class="edge"><title>Answer&#45;&gt;ReputationSystem::Reputation</title>
<path fill="none" stroke="#ab4598" d="M388.624,-91.9526C366.854,-83.9826 343.082,-74.4866 340,-70 335.275,-63.1227 333.893,-54.3994 334.033,-46.1206"/>
<ellipse fill="none" stroke="#ab4598" cx="392.443" cy="-93.3354" rx="4.00001" ry="4.00001"/>
<polygon fill="#ab4598" stroke="#ab4598" points="334.042,-46.0084 339.37,-36.4242 334.464,-41.0263 334.887,-36.0442 334.887,-36.0442 334.887,-36.0442 334.464,-41.0263 330.403,-35.6641 334.042,-46.0084 334.042,-46.0084"/>
<text text-anchor="middle" x="370.5" y="-58.3" font-family="Times,serif" font-size="14.00">reputations</text>
</g>
<!-- Answer&#45;&gt;ReputationSystem::Evaluation -->
<g id="edge17" class="edge"><title>Answer&#45;&gt;ReputationSystem::Evaluation</title>
<path fill="none" stroke="#90945c" d="M456.653,-87.9297C475.144,-77.7868 499.255,-64.8311 521,-54 530.656,-49.1901 541.106,-44.2253 551.076,-39.6004"/>
<ellipse fill="none" stroke="#90945c" cx="453.11" cy="-89.8799" rx="4.00002" ry="4.00002"/>
<polygon fill="#90945c" stroke="#90945c" points="551.363,-39.4684 562.329,-39.3741 555.905,-37.3774 560.447,-35.2864 560.447,-35.2864 560.447,-35.2864 555.905,-37.3774 558.565,-31.1988 551.363,-39.4684 551.363,-39.4684"/>
<text text-anchor="middle" x="552" y="-58.3" font-family="Times,serif" font-size="14.00">evaluations</text>
</g>
<!-- Profile&#45;&gt;Picture -->
<g id="edge18" class="edge"><title>Profile&#45;&gt;Picture</title>
<path fill="none" stroke="#909f9c" d="M1328.72,-192.511C1361.05,-190.057 1404.86,-182.019 1435,-158 1442.82,-151.772 1448.36,-142.482 1452.21,-133.531"/>
<ellipse fill="none" stroke="#909f9c" cx="1324.35" cy="-192.789" rx="4" ry="4"/>
<polygon fill="#909f9c" stroke="#909f9c" points="1452.23,-133.474 1459.96,-125.694 1453.99,-128.793 1455.74,-124.112 1455.74,-124.112 1455.74,-124.112 1453.99,-128.793 1451.53,-122.53 1452.23,-133.474 1452.23,-133.474"/>
</g>
<!-- ActsAsTaggableOn::Tagging -->
<g id="node17" class="node"><title>ActsAsTaggableOn::Tagging</title>
<ellipse fill="none" stroke="black" cx="791" cy="-106" rx="114.085" ry="18"/>
<text text-anchor="middle" x="791" y="-102.3" font-family="Times,serif" font-size="14.00">ActsAsTaggableOn::Tagging</text>
</g>
<!-- Profile&#45;&gt;ActsAsTaggableOn::Tagging -->
<g id="edge19" class="edge"><title>Profile&#45;&gt;ActsAsTaggableOn::Tagging</title>
<path fill="none" stroke="#c8f72d" d="M1244.43,-188.682C1209.4,-185.099 1157.95,-179.967 1113,-176 1061.93,-171.493 931.282,-175.24 883,-158 871.273,-153.813 870.689,-148.387 860,-142 851.871,-137.143 842.986,-132.306 834.379,-127.847"/>
<ellipse fill="none" stroke="#c8f72d" cx="1248.55" cy="-189.104" rx="4" ry="4"/>
<polygon fill="#c8f72d" stroke="#c8f72d" points="834.109,-127.71 827.237,-119.164 829.652,-125.442 825.196,-123.175 825.196,-123.175 825.196,-123.175 829.652,-125.442 823.155,-127.185 834.109,-127.71 834.109,-127.71"/>
<text text-anchor="middle" x="906" y="-146.3" font-family="Times,serif" font-size="14.00">taggings</text>
</g>
<!-- Profile&#45;&gt;ActsAsTaggableOn::Tagging -->
<g id="edge21" class="edge"><title>Profile&#45;&gt;ActsAsTaggableOn::Tagging</title>
<path fill="none" stroke="#c902de" d="M1250.03,-180.648C1231.9,-174.228 1209.64,-166.055 1190,-158 1174.18,-151.51 1171.52,-146.435 1155,-142 1142.63,-138.679 1001.21,-125.637 898.359,-116.449"/>
<ellipse fill="none" stroke="#c902de" cx="1254.28" cy="-182.14" rx="4.00001" ry="4.00001"/>
<polygon fill="#c902de" stroke="#c902de" points="898.179,-116.433 888.618,-111.063 893.198,-115.989 888.218,-115.545 888.218,-115.545 888.218,-115.545 893.198,-115.989 887.818,-120.027 898.179,-116.433 898.179,-116.433"/>
<text text-anchor="middle" x="1225" y="-146.3" font-family="Times,serif" font-size="14.00">tag_taggings</text>
</g>
<!-- ActsAsTaggableOn::Tag -->
<g id="node18" class="node"><title>ActsAsTaggableOn::Tag</title>
<ellipse fill="none" stroke="black" cx="1095" cy="-106" rx="98.1881" ry="18"/>
<text text-anchor="middle" x="1095" y="-102.3" font-family="Times,serif" font-size="14.00">ActsAsTaggableOn::Tag</text>
</g>
<!-- Profile&#45;&gt;ActsAsTaggableOn::Tag -->
<g id="edge20" class="edge"><title>Profile&#45;&gt;ActsAsTaggableOn::Tag</title>
<path fill="none" stroke="#1df664" d="M1279.8,-166.124C1276.49,-157.256 1271.49,-148.109 1264,-142 1251.26,-131.619 1218.42,-123.709 1185.04,-118.058"/>
<polygon fill="#1df664" stroke="#1df664" points="1279.86,-166.303 1278.57,-177.193 1281.36,-171.072 1282.86,-175.841 1282.86,-175.841 1282.86,-175.841 1281.36,-171.072 1287.15,-174.489 1279.86,-166.303 1279.86,-166.303"/>
<polygon fill="#1df664" stroke="#1df664" points="1185.03,-118.056 1175.88,-112.009 1180.09,-117.253 1175.16,-116.45 1175.16,-116.45 1175.16,-116.45 1180.09,-117.253 1174.43,-120.892 1185.03,-118.056 1185.03,-118.056"/>
<text text-anchor="middle" x="1302.5" y="-146.3" font-family="Times,serif" font-size="14.00">base_tags</text>
</g>
<!-- Profile&#45;&gt;ActsAsTaggableOn::Tag -->
<g id="edge22" class="edge"><title>Profile&#45;&gt;ActsAsTaggableOn::Tag</title>
<path fill="none" stroke="#99a72f" d="M1318.59,-175.174C1332.14,-165.497 1342.71,-153.244 1333,-142 1323.51,-131.016 1254.15,-121.64 1192.74,-115.366"/>
<polygon fill="#99a72f" stroke="#99a72f" points="1318.29,-175.369 1307.45,-177.067 1314.1,-178.102 1309.91,-180.835 1309.91,-180.835 1309.91,-180.835 1314.1,-178.102 1312.37,-184.603 1318.29,-175.369 1318.29,-175.369"/>
<polygon fill="#99a72f" stroke="#99a72f" points="1192.52,-115.344 1183.02,-109.869 1187.54,-114.845 1182.57,-114.347 1182.57,-114.347 1182.57,-114.347 1187.54,-114.845 1182.12,-118.824 1192.52,-115.344 1192.52,-115.344"/>
<text text-anchor="middle" x="1348" y="-146.3" font-family="Times,serif" font-size="14.00">tags</text>
</g>
<!-- Bottle&#45;&gt;BottleTrade -->
<g id="edge24" class="edge"><title>Bottle&#45;&gt;BottleTrade</title>
<path fill="none" stroke="#222908" d="M1111.74,-188.723C1182.63,-180.946 1324.33,-164.68 1333,-158 1340.6,-152.138 1345.47,-143.045 1348.58,-134.15"/>
<ellipse fill="none" stroke="#222908" cx="1107.44" cy="-189.193" rx="4" ry="4"/>
<polygon fill="#222908" stroke="#222908" points="1348.63,-133.985 1355.72,-125.621 1350.01,-129.18 1351.4,-124.375 1351.4,-124.375 1351.4,-124.375 1350.01,-129.18 1347.07,-123.13 1348.63,-133.985 1348.63,-133.985"/>
</g>
<!-- Bottle&#45;&gt;Picture -->
<g id="edge23" class="edge"><title>Bottle&#45;&gt;Picture</title>
<path fill="none" stroke="#19a901" d="M1111.59,-189.046C1185.59,-181.536 1339.52,-165.311 1363,-158 1387.04,-150.514 1412.15,-137.138 1430.8,-125.962"/>
<ellipse fill="none" stroke="#19a901" cx="1107.38" cy="-189.471" rx="4" ry="4"/>
<polygon fill="#19a901" stroke="#19a901" points="1430.87,-125.915 1441.75,-124.525 1435.13,-123.302 1439.4,-120.689 1439.4,-120.689 1439.4,-120.689 1435.13,-123.302 1437.05,-116.852 1430.87,-125.915 1430.87,-125.915"/>
</g>
<!-- Bottle&#45;&gt;ActsAsTaggableOn::Tagging -->
<g id="edge25" class="edge"><title>Bottle&#45;&gt;ActsAsTaggableOn::Tagging</title>
<path fill="none" stroke="#95add9" d="M1031.65,-191.959C943.828,-189.277 741.529,-180.678 721,-158 710.442,-146.337 720.206,-135.689 735.445,-127.174"/>
<ellipse fill="none" stroke="#95add9" cx="1035.79" cy="-192.082" rx="4" ry="4"/>
<polygon fill="#95add9" stroke="#95add9" points="735.45,-127.171 746.405,-126.688 739.915,-124.921 744.38,-122.67 744.38,-122.67 744.38,-122.67 739.915,-124.921 742.354,-118.652 735.45,-127.171 735.45,-127.171"/>
<text text-anchor="middle" x="744" y="-146.3" font-family="Times,serif" font-size="14.00">taggings</text>
</g>
<!-- Bottle&#45;&gt;ActsAsTaggableOn::Tagging -->
<g id="edge27" class="edge"><title>Bottle&#45;&gt;ActsAsTaggableOn::Tagging</title>
<path fill="none" stroke="#ac3e02" d="M1031.83,-190.913C957.753,-186.653 805.746,-175.821 790,-158 784.331,-151.583 783.086,-142.739 783.733,-134.215"/>
<ellipse fill="none" stroke="#ac3e02" cx="1036.04" cy="-191.151" rx="4" ry="4"/>
<polygon fill="#ac3e02" stroke="#ac3e02" points="783.759,-134.045 789.737,-124.852 784.525,-129.104 785.29,-124.163 785.29,-124.163 785.29,-124.163 784.525,-129.104 780.843,-123.474 783.759,-134.045 783.759,-134.045"/>
<text text-anchor="middle" x="825" y="-146.3" font-family="Times,serif" font-size="14.00">tag_taggings</text>
</g>
<!-- Bottle&#45;&gt;ActsAsTaggableOn::Tag -->
<g id="edge26" class="edge"><title>Bottle&#45;&gt;ActsAsTaggableOn::Tag</title>
<path fill="none" stroke="#d61bb4" d="M1090.47,-168.659C1092.32,-165.226 1093.92,-161.627 1095,-158 1097.23,-150.535 1097.93,-142.176 1097.89,-134.42"/>
<polygon fill="#d61bb4" stroke="#d61bb4" points="1090.4,-168.762 1081.31,-174.891 1087.77,-173.012 1085.14,-177.261 1085.14,-177.261 1085.14,-177.261 1087.77,-173.012 1088.96,-179.632 1090.4,-168.762 1090.4,-168.762"/>
<polygon fill="#d61bb4" stroke="#d61bb4" points="1097.88,-134.347 1101.93,-124.156 1097.66,-129.352 1097.44,-124.357 1097.44,-124.357 1097.44,-124.357 1097.66,-129.352 1092.94,-124.557 1097.88,-134.347 1097.88,-134.347"/>
<text text-anchor="middle" x="1124.5" y="-146.3" font-family="Times,serif" font-size="14.00">base_tags</text>
</g>
<!-- Bottle&#45;&gt;ActsAsTaggableOn::Tag -->
<g id="edge28" class="edge"><title>Bottle&#45;&gt;ActsAsTaggableOn::Tag</title>
<path fill="none" stroke="#6086b4" d="M1066.68,-165.873C1066.12,-158.013 1066.51,-149.526 1069,-142 1070.1,-138.665 1071.66,-135.389 1073.47,-132.26"/>
<polygon fill="#6086b4" stroke="#6086b4" points="1066.71,-166.125 1063.44,-176.591 1067.31,-171.089 1067.9,-176.053 1067.9,-176.053 1067.9,-176.053 1067.31,-171.089 1072.37,-175.515 1066.71,-166.125 1066.71,-166.125"/>
<polygon fill="#6086b4" stroke="#6086b4" points="1073.51,-132.208 1082.82,-126.413 1076.29,-128.057 1079.08,-123.905 1079.08,-123.905 1079.08,-123.905 1076.29,-128.057 1075.34,-121.397 1073.51,-132.208 1073.51,-132.208"/>
<text text-anchor="middle" x="1080" y="-146.3" font-family="Times,serif" font-size="14.00">tags</text>
</g>
<!-- Question&#45;&gt;FavoriteQuestion -->
<g id="edge30" class="edge"><title>Question&#45;&gt;FavoriteQuestion</title>
<path fill="none" stroke="#bfadde" d="M487.701,-178.231C461.533,-167.931 425.698,-153.947 394,-142 378.749,-136.252 362.08,-130.122 346.975,-124.624"/>
<ellipse fill="none" stroke="#bfadde" cx="491.433" cy="-179.702" rx="4.00001" ry="4.00001"/>
<polygon fill="#bfadde" stroke="#bfadde" points="346.705,-124.526 338.841,-116.883 342.005,-122.819 337.305,-121.113 337.305,-121.113 337.305,-121.113 342.005,-122.819 335.769,-125.343 346.705,-124.526 346.705,-124.526"/>
</g>
<!-- Question&#45;&gt;Answer -->
<g id="edge29" class="edge"><title>Question&#45;&gt;Answer</title>
<path fill="none" stroke="#a241ae" d="M501.064,-172.207C485.957,-159.084 466.472,-142.157 451.14,-128.839"/>
<ellipse fill="none" stroke="#a241ae" cx="504.281" cy="-175.002" rx="4.00002" ry="4.00002"/>
<polygon fill="#a241ae" stroke="#a241ae" points="451.095,-128.8 446.497,-118.845 447.321,-125.521 443.546,-122.242 443.546,-122.242 443.546,-122.242 447.321,-125.521 440.595,-125.639 451.095,-128.8 451.095,-128.8"/>
</g>
<!-- Question&#45;&gt;ReputationSystem::Reputation -->
<g id="edge31" class="edge"><title>Question&#45;&gt;ReputationSystem::Reputation</title>
<path fill="none" stroke="#0051a9" d="M515.13,-168.561C510.112,-155.494 504.203,-139.04 500,-124 491.461,-93.4435 508.023,-76.8385 486,-54 477.637,-45.3277 456.354,-38.3731 432.497,-33.0199"/>
<ellipse fill="none" stroke="#0051a9" cx="516.662" cy="-172.49" rx="4.00001" ry="4.00001"/>
<polygon fill="#0051a9" stroke="#0051a9" points="432.298,-32.9777 423.453,-26.4965 427.408,-31.9379 422.517,-30.8981 422.517,-30.8981 422.517,-30.8981 427.408,-31.9379 421.581,-35.2997 432.298,-32.9777 432.298,-32.9777"/>
<text text-anchor="middle" x="530.5" y="-102.3" font-family="Times,serif" font-size="14.00">reputations</text>
</g>
<!-- Question&#45;&gt;ReputationSystem::Evaluation -->
<g id="edge32" class="edge"><title>Question&#45;&gt;ReputationSystem::Evaluation</title>
<path fill="none" stroke="#eb9955" d="M528.344,-167.62C530.391,-158.918 533.689,-149.493 539,-142 547.127,-130.533 556.714,-135.352 565,-124 581.877,-100.879 589.966,-68.7405 593.769,-46.1273"/>
<ellipse fill="none" stroke="#eb9955" cx="527.522" cy="-171.732" rx="4.00001" ry="4.00001"/>
<polygon fill="#eb9955" stroke="#eb9955" points="593.779,-46.0618 599.721,-36.8454 594.525,-41.1178 595.271,-36.1738 595.271,-36.1738 595.271,-36.1738 594.525,-41.1178 590.822,-35.5021 593.779,-46.0618 593.779,-46.0618"/>
<text text-anchor="middle" x="614" y="-102.3" font-family="Times,serif" font-size="14.00">evaluations</text>
</g>
<!-- Question&#45;&gt;ActsAsTaggableOn::Tagging -->
<g id="edge33" class="edge"><title>Question&#45;&gt;ActsAsTaggableOn::Tagging</title>
<path fill="none" stroke="#9a12b8" d="M567.906,-181.555C587.102,-175.683 609.706,-167.709 629,-158 640.123,-152.403 640.667,-147.16 652,-142 669.744,-133.922 689.645,-127.51 708.722,-122.501"/>
<ellipse fill="none" stroke="#9a12b8" cx="564.015" cy="-182.717" rx="4.00001" ry="4.00001"/>
<polygon fill="#9a12b8" stroke="#9a12b8" points="708.91,-122.454 719.707,-124.372 713.758,-121.231 718.607,-120.008 718.607,-120.008 718.607,-120.008 713.758,-121.231 717.506,-115.645 708.91,-122.454 708.91,-122.454"/>
<text text-anchor="middle" x="675" y="-146.3" font-family="Times,serif" font-size="14.00">taggings</text>
</g>
<!-- Question&#45;&gt;ActsAsTaggableOn::Tagging -->
<g id="edge35" class="edge"><title>Question&#45;&gt;ActsAsTaggableOn::Tagging</title>
<path fill="none" stroke="#20d3c0" d="M533.94,-168.444C538.716,-158.709 545.591,-148.343 555,-142 558.107,-139.905 633.158,-128.989 697.798,-119.897"/>
<ellipse fill="none" stroke="#20d3c0" cx="532.183" cy="-172.375" rx="4.00002" ry="4.00002"/>
<polygon fill="#20d3c0" stroke="#20d3c0" points="698.167,-119.845 708.696,-122.911 703.119,-119.15 708.07,-118.455 708.07,-118.455 708.07,-118.455 703.119,-119.15 707.445,-113.999 698.167,-119.845 698.167,-119.845"/>
<text text-anchor="middle" x="590" y="-146.3" font-family="Times,serif" font-size="14.00">tag_taggings</text>
</g>
<!-- Question&#45;&gt;ActsAsTaggableOn::Tag -->
<g id="edge34" class="edge"><title>Question&#45;&gt;ActsAsTaggableOn::Tag</title>
<path fill="none" stroke="#981673" d="M577.041,-191.161C678.698,-187.205 900.172,-176.695 974,-158 990.973,-153.702 993.903,-148.89 1010,-142 1021.92,-136.896 1034.84,-131.506 1046.93,-126.524"/>
<polygon fill="#981673" stroke="#981673" points="576.994,-191.163 566.829,-187.049 571.998,-191.354 567.002,-191.546 567.002,-191.546 567.002,-191.546 571.998,-191.354 567.174,-196.042 576.994,-191.163 576.994,-191.163"/>
<polygon fill="#981673" stroke="#981673" points="1047.15,-126.432 1058.11,-126.793 1051.78,-124.531 1056.4,-122.631 1056.4,-122.631 1056.4,-122.631 1051.78,-124.531 1054.69,-118.469 1047.15,-126.432 1047.15,-126.432"/>
<text text-anchor="middle" x="1036.5" y="-146.3" font-family="Times,serif" font-size="14.00">base_tags</text>
</g>
<!-- Question&#45;&gt;ActsAsTaggableOn::Tag -->
<g id="edge36" class="edge"><title>Question&#45;&gt;ActsAsTaggableOn::Tag</title>
<path fill="none" stroke="#7e48b7" d="M577.412,-192.367C671.907,-190.586 866.79,-183.802 929,-158 939.197,-153.771 938.141,-146.968 948,-142 967.213,-132.317 989.203,-125.246 1010.22,-120.108"/>
<polygon fill="#7e48b7" stroke="#7e48b7" points="577.219,-192.371 567.141,-188.048 572.22,-192.459 567.22,-192.547 567.22,-192.547 567.22,-192.547 572.22,-192.459 567.3,-197.047 577.219,-192.371 577.219,-192.371"/>
<polygon fill="#7e48b7" stroke="#7e48b7" points="1010.37,-120.071 1021.13,-122.192 1015.24,-118.94 1020.11,-117.809 1020.11,-117.809 1020.11,-117.809 1015.24,-118.94 1019.1,-113.425 1010.37,-120.071 1010.37,-120.071"/>
<text text-anchor="middle" x="959" y="-146.3" font-family="Times,serif" font-size="14.00">tags</text>
</g>
</g>
</svg>
