<?xml version="1.0" encoding="UTF-8" standalone="no"?>
<!DOCTYPE svg PUBLIC "-//W3C//DTD SVG 1.1//EN"
 "http://www.w3.org/Graphics/SVG/1.1/DTD/svg11.dtd">
<!-- Generated by graphviz version 2.36.0 (20140111.2315)
 -->
<!-- Title: models_diagram Pages: 1 -->
<svg width="1929pt" height="424pt"
 viewBox="0.00 0.00 1929.00 424.00" xmlns="http://www.w3.org/2000/svg" xmlns:xlink="http://www.w3.org/1999/xlink">
<g id="graph0" class="graph" transform="scale(1 1) rotate(0) translate(4 420)">
<title>models_diagram</title>
<polygon fill="none" stroke="none" points="-4,4 -4,-420 1925,-420 1925,4 -4,4"/>
<!-- _diagram_info -->
<g id="node1" class="node"><title>_diagram_info</title>
<text text-anchor="start" x="8" y="-401.6" font-family="Times,serif" font-size="13.00">Models diagram</text>
<text text-anchor="start" x="8" y="-387.6" font-family="Times,serif" font-size="13.00">Date: Sep 22 2015 &#45; 20:03</text>
<text text-anchor="start" x="8" y="-373.6" font-family="Times,serif" font-size="13.00">Migration version: 20150921235055</text>
<text text-anchor="start" x="8" y="-359.6" font-family="Times,serif" font-size="13.00">Generated by RailRoady 1.3.1</text>
<text text-anchor="start" x="8" y="-345.6" font-family="Times,serif" font-size="13.00">http://railroady.prestonlee.com</text>
</g>
<!-- BottleTrade -->
<g id="node2" class="node"><title>BottleTrade</title>
<ellipse fill="none" stroke="black" cx="1073" cy="-106" rx="52.4675" ry="18"/>
<text text-anchor="middle" x="1073" y="-102.3" font-family="Times,serif" font-size="14.00">BottleTrade</text>
</g>
<!-- Bottle -->
<g id="node3" class="node"><title>Bottle</title>
<ellipse fill="none" stroke="black" cx="883" cy="-194" rx="32.2457" ry="18"/>
<text text-anchor="middle" x="883" y="-190.3" font-family="Times,serif" font-size="14.00">Bottle</text>
</g>
<!-- Bottle&#45;&gt;BottleTrade -->
<g id="edge2" class="edge"><title>Bottle&#45;&gt;BottleTrade</title>
<path fill="none" stroke="#4baf40" d="M923.449,-191.43C1003.97,-187.888 1178.13,-177.981 1196,-158 1200.74,-152.7 1200.29,-147.675 1196,-142 1193.64,-138.879 1156.61,-128.588 1123.79,-119.967"/>
<ellipse fill="none" stroke="#4baf40" cx="919.029" cy="-191.62" rx="4" ry="4"/>
<polygon fill="#4baf40" stroke="#4baf40" points="1123.46,-119.881 1114.92,-113.001 1118.62,-118.618 1113.78,-117.355 1113.78,-117.355 1113.78,-117.355 1118.62,-118.618 1112.65,-121.709 1123.46,-119.881 1123.46,-119.881"/>
</g>
<!-- Picture -->
<g id="node12" class="node"><title>Picture</title>
<ellipse fill="none" stroke="black" cx="311" cy="-106" rx="35.6194" ry="18"/>
<text text-anchor="middle" x="311" y="-102.3" font-family="Times,serif" font-size="14.00">Picture</text>
</g>
<!-- Bottle&#45;&gt;Picture -->
<g id="edge1" class="edge"><title>Bottle&#45;&gt;Picture</title>
<path fill="none" stroke="#404faf" d="M842.585,-192.762C775.467,-191.549 637.196,-185.563 524,-158 505.396,-153.47 502.347,-147.476 484,-142 440.705,-129.077 389.894,-119.43 354.586,-113.572"/>
<ellipse fill="none" stroke="#404faf" cx="846.799" cy="-192.829" rx="4" ry="4"/>
<polygon fill="#404faf" stroke="#404faf" points="354.476,-113.554 345.328,-107.507 349.54,-112.751 344.605,-111.948 344.605,-111.948 344.605,-111.948 349.54,-112.751 343.883,-116.39 354.476,-113.554 354.476,-113.554"/>
</g>
<!-- ActsAsTaggableOn::Tagging -->
<g id="node15" class="node"><title>ActsAsTaggableOn::Tagging</title>
<ellipse fill="none" stroke="black" cx="578" cy="-106" rx="114.085" ry="18"/>
<text text-anchor="middle" x="578" y="-102.3" font-family="Times,serif" font-size="14.00">ActsAsTaggableOn::Tagging</text>
</g>
<!-- Bottle&#45;&gt;ActsAsTaggableOn::Tagging -->
<g id="edge3" class="edge"><title>Bottle&#45;&gt;ActsAsTaggableOn::Tagging</title>
<path fill="none" stroke="#6ebf43" d="M842.73,-190.858C779.928,-186.968 662.018,-177.296 625,-158 613.439,-151.973 603.249,-141.921 595.339,-132.326"/>
<ellipse fill="none" stroke="#6ebf43" cx="846.85" cy="-191.107" rx="4" ry="4"/>
<polygon fill="#6ebf43" stroke="#6ebf43" points="595.115,-132.036 592.557,-121.372 592.056,-128.08 588.998,-124.125 588.998,-124.125 588.998,-124.125 592.056,-128.08 585.438,-126.878 595.115,-132.036 595.115,-132.036"/>
<text text-anchor="middle" x="648" y="-146.3" font-family="Times,serif" font-size="14.00">taggings</text>
</g>
<!-- Bottle&#45;&gt;ActsAsTaggableOn::Tagging -->
<g id="edge5" class="edge"><title>Bottle&#45;&gt;ActsAsTaggableOn::Tagging</title>
<path fill="none" stroke="#13ba38" d="M842.539,-191.968C754.464,-189.304 551.59,-180.739 531,-158 522.546,-148.663 528.849,-138.441 539.26,-129.616"/>
<ellipse fill="none" stroke="#13ba38" cx="846.695" cy="-192.09" rx="4" ry="4"/>
<polygon fill="#13ba38" stroke="#13ba38" points="539.429,-129.489 550.124,-127.064 543.422,-126.479 547.415,-123.47 547.415,-123.47 547.415,-123.47 543.422,-126.479 544.707,-119.876 539.429,-129.489 539.429,-129.489"/>
<text text-anchor="middle" x="566" y="-146.3" font-family="Times,serif" font-size="14.00">tag_taggings</text>
</g>
<!-- ActsAsTaggableOn::Tag -->
<g id="node16" class="node"><title>ActsAsTaggableOn::Tag</title>
<ellipse fill="none" stroke="black" cx="893" cy="-106" rx="98.1881" ry="18"/>
<text text-anchor="middle" x="893" y="-102.3" font-family="Times,serif" font-size="14.00">ActsAsTaggableOn::Tag</text>
</g>
<!-- Bottle&#45;&gt;ActsAsTaggableOn::Tag -->
<g id="edge4" class="edge"><title>Bottle&#45;&gt;ActsAsTaggableOn::Tag</title>
<path fill="none" stroke="#6e535b" d="M901.468,-168.659C903.32,-165.226 904.915,-161.627 906,-158 908.357,-150.121 907.45,-141.479 905.283,-133.584"/>
<polygon fill="#6e535b" stroke="#6e535b" points="901.404,-168.762 892.31,-174.891 898.769,-173.012 896.135,-177.261 896.135,-177.261 896.135,-177.261 898.769,-173.012 899.96,-179.632 901.404,-168.762 901.404,-168.762"/>
<polygon fill="#6e535b" stroke="#6e535b" points="905.271,-133.551 906.269,-122.63 903.643,-128.824 902.014,-124.096 902.014,-124.096 902.014,-124.096 903.643,-128.824 897.76,-125.562 905.271,-133.551 905.271,-133.551"/>
<text text-anchor="middle" x="934.5" y="-146.3" font-family="Times,serif" font-size="14.00">base_tags</text>
</g>
<!-- Bottle&#45;&gt;ActsAsTaggableOn::Tag -->
<g id="edge6" class="edge"><title>Bottle&#45;&gt;ActsAsTaggableOn::Tag</title>
<path fill="none" stroke="#d5e688" d="M879.036,-165.861C878.542,-158.109 878.619,-149.682 880,-142 880.488,-139.283 881.174,-136.501 881.978,-133.751"/>
<polygon fill="#d5e688" stroke="#d5e688" points="879.042,-165.926 875.514,-176.309 879.518,-170.903 879.994,-175.88 879.994,-175.88 879.994,-175.88 879.518,-170.903 884.473,-175.452 879.042,-165.926 879.042,-165.926"/>
<polygon fill="#d5e688" stroke="#d5e688" points="882.04,-133.569 889.525,-125.556 883.653,-128.837 885.266,-124.104 885.266,-124.104 885.266,-124.104 883.653,-128.837 881.006,-122.652 882.04,-133.569 882.04,-133.569"/>
<text text-anchor="middle" x="891" y="-146.3" font-family="Times,serif" font-size="14.00">tags</text>
</g>
<!-- City -->
<g id="node4" class="node"><title>City</title>
<ellipse fill="none" stroke="black" cx="261" cy="-282" rx="27" ry="18"/>
<text text-anchor="middle" x="261" y="-278.3" font-family="Times,serif" font-size="14.00">City</text>
</g>
<!-- Profile -->
<g id="node10" class="node"><title>Profile</title>
<ellipse fill="none" stroke="black" cx="413" cy="-194" rx="34.1708" ry="18"/>
<text text-anchor="middle" x="413" y="-190.3" font-family="Times,serif" font-size="14.00">Profile</text>
</g>
<!-- City&#45;&gt;Profile -->
<g id="edge7" class="edge"><title>City&#45;&gt;Profile</title>
<path fill="none" stroke="#da1c30" d="M287.919,-265.77C314.19,-250.905 354.135,-228.305 381.785,-212.661"/>
<ellipse fill="none" stroke="#da1c30" cx="284.353" cy="-267.787" rx="4.00002" ry="4.00002"/>
<polygon fill="#da1c30" stroke="#da1c30" points="381.95,-212.568 392.87,-211.56 386.302,-210.106 390.654,-207.643 390.654,-207.643 390.654,-207.643 386.302,-210.106 388.438,-203.727 381.95,-212.568 381.95,-212.568"/>
</g>
<!-- Question -->
<g id="node5" class="node"><title>Question</title>
<ellipse fill="none" stroke="black" cx="1235" cy="-194" rx="42.3701" ry="18"/>
<text text-anchor="middle" x="1235" y="-190.3" font-family="Times,serif" font-size="14.00">Question</text>
</g>
<!-- Answer -->
<g id="node8" class="node"><title>Answer</title>
<ellipse fill="none" stroke="black" cx="1377" cy="-106" rx="38.0212" ry="18"/>
<text text-anchor="middle" x="1377" y="-102.3" font-family="Times,serif" font-size="14.00">Answer</text>
</g>
<!-- Question&#45;&gt;Answer -->
<g id="edge8" class="edge"><title>Question&#45;&gt;Answer</title>
<path fill="none" stroke="#7b4a30" d="M1265.32,-174.64C1289.01,-160.29 1321.83,-140.413 1345.76,-125.921"/>
<ellipse fill="none" stroke="#7b4a30" cx="1261.87" cy="-176.727" rx="4.00002" ry="4.00002"/>
<polygon fill="#7b4a30" stroke="#7b4a30" points="1345.9,-125.834 1356.79,-124.503 1350.18,-123.244 1354.46,-120.654 1354.46,-120.654 1354.46,-120.654 1350.18,-123.244 1352.12,-116.805 1345.9,-125.834 1345.9,-125.834"/>
</g>
<!-- FavoriteQuestion -->
<g id="node14" class="node"><title>FavoriteQuestion</title>
<ellipse fill="none" stroke="black" cx="1505" cy="-106" rx="71.2405" ry="18"/>
<text text-anchor="middle" x="1505" y="-102.3" font-family="Times,serif" font-size="14.00">FavoriteQuestion</text>
</g>
<!-- Question&#45;&gt;FavoriteQuestion -->
<g id="edge9" class="edge"><title>Question&#45;&gt;FavoriteQuestion</title>
<path fill="none" stroke="#6bdc24" d="M1275.61,-180.065C1322.94,-164.99 1401.25,-140.047 1452.99,-123.567"/>
<ellipse fill="none" stroke="#6bdc24" cx="1271.65" cy="-181.327" rx="4.00001" ry="4.00001"/>
<polygon fill="#6bdc24" stroke="#6bdc24" points="1453.11,-123.526 1464.01,-124.779 1457.88,-122.009 1462.64,-120.491 1462.64,-120.491 1462.64,-120.491 1457.88,-122.009 1461.28,-116.204 1453.11,-123.526 1453.11,-123.526"/>
</g>
<!-- Question&#45;&gt;ActsAsTaggableOn::Tagging -->
<g id="edge12" class="edge"><title>Question&#45;&gt;ActsAsTaggableOn::Tagging</title>
<path fill="none" stroke="#3fc4c9" d="M1185.25,-190.217C1052.9,-182.761 701.418,-162.587 690,-158 679.756,-153.884 680.526,-147.58 671,-142 660.65,-135.937 649.062,-130.585 637.671,-126.006"/>
<ellipse fill="none" stroke="#3fc4c9" cx="1189.27" cy="-190.444" rx="4" ry="4"/>
<polygon fill="#3fc4c9" stroke="#3fc4c9" points="637.51,-125.944 629.802,-118.145 632.846,-124.143 628.181,-122.343 628.181,-122.343 628.181,-122.343 632.846,-124.143 626.561,-126.541 637.51,-125.944 637.51,-125.944"/>
<text text-anchor="middle" x="713" y="-146.3" font-family="Times,serif" font-size="14.00">taggings</text>
</g>
<!-- Question&#45;&gt;ActsAsTaggableOn::Tagging -->
<g id="edge14" class="edge"><title>Question&#45;&gt;ActsAsTaggableOn::Tagging</title>
<path fill="none" stroke="#fb52cc" d="M1185.65,-189.506C1137.72,-185.209 1063.26,-176.129 1001,-158 984.189,-153.105 981.946,-146.403 965,-142 951.624,-138.525 796.774,-125.155 687.067,-115.984"/>
<ellipse fill="none" stroke="#fb52cc" cx="1189.71" cy="-189.858" rx="4" ry="4"/>
<polygon fill="#fb52cc" stroke="#fb52cc" points="686.895,-115.97 677.304,-110.653 681.912,-115.554 676.93,-115.138 676.93,-115.138 676.93,-115.138 681.912,-115.554 676.555,-119.622 686.895,-115.97 686.895,-115.97"/>
<text text-anchor="middle" x="1036" y="-146.3" font-family="Times,serif" font-size="14.00">tag_taggings</text>
</g>
<!-- Question&#45;&gt;ActsAsTaggableOn::Tag -->
<g id="edge13" class="edge"><title>Question&#45;&gt;ActsAsTaggableOn::Tag</title>
<path fill="none" stroke="#eb4613" d="M1186.32,-184.973C1159.47,-179.472 1126.01,-170.811 1098,-158 1086.68,-152.821 1086.47,-146.837 1075,-142 1057.17,-134.486 1015.93,-126.308 977.212,-119.748"/>
<polygon fill="#eb4613" stroke="#eb4613" points="1186.44,-184.998 1195.39,-191.344 1191.35,-185.964 1196.25,-186.929 1196.25,-186.929 1196.25,-186.929 1191.35,-185.964 1197.12,-182.514 1186.44,-184.998 1186.44,-184.998"/>
<polygon fill="#eb4613" stroke="#eb4613" points="976.774,-119.675 967.651,-113.591 971.842,-118.853 966.911,-118.03 966.911,-118.03 966.911,-118.03 971.842,-118.853 966.17,-122.469 976.774,-119.675 976.774,-119.675"/>
<text text-anchor="middle" x="1124.5" y="-146.3" font-family="Times,serif" font-size="14.00">base_tags</text>
</g>
<!-- Question&#45;&gt;ActsAsTaggableOn::Tag -->
<g id="edge15" class="edge"><title>Question&#45;&gt;ActsAsTaggableOn::Tag</title>
<path fill="none" stroke="#06e2e6" d="M1207.29,-172.107C1191.59,-161.347 1171.11,-149.04 1151,-142 1091.79,-121.27 1073.16,-132.473 1011,-124 1000.06,-122.508 988.546,-120.899 977.183,-119.288"/>
<polygon fill="#06e2e6" stroke="#06e2e6" points="1207.31,-172.124 1212.9,-181.562 1211.4,-175.003 1215.49,-177.883 1215.49,-177.883 1215.49,-177.883 1211.4,-175.003 1218.08,-174.204 1207.31,-172.124 1207.31,-172.124"/>
<polygon fill="#06e2e6" stroke="#06e2e6" points="977.153,-119.283 967.887,-113.418 972.203,-118.578 967.253,-117.873 967.253,-117.873 967.253,-117.873 972.203,-118.578 966.618,-122.328 977.153,-119.283 977.153,-119.283"/>
<text text-anchor="middle" x="1194" y="-146.3" font-family="Times,serif" font-size="14.00">tags</text>
</g>
<!-- ReputationSystem::Reputation -->
<g id="node17" class="node"><title>ReputationSystem::Reputation</title>
<ellipse fill="none" stroke="black" cx="1398" cy="-18" rx="118.409" ry="18"/>
<text text-anchor="middle" x="1398" y="-14.3" font-family="Times,serif" font-size="14.00">ReputationSystem::Reputation</text>
</g>
<!-- Question&#45;&gt;ReputationSystem::Reputation -->
<g id="edge10" class="edge"><title>Question&#45;&gt;ReputationSystem::Reputation</title>
<path fill="none" stroke="#4e5ac4" d="M1235.01,-167.694C1236.42,-136.672 1243.57,-84.4792 1274,-54 1282.33,-45.6524 1292.5,-39.2587 1303.38,-34.3682"/>
<ellipse fill="none" stroke="#4e5ac4" cx="1234.87" cy="-171.848" rx="4" ry="4"/>
<polygon fill="#4e5ac4" stroke="#4e5ac4" points="1303.4,-34.3602 1314.36,-34.7743 1308.03,-32.482 1312.67,-30.6038 1312.67,-30.6038 1312.67,-30.6038 1308.03,-32.482 1310.98,-26.4334 1303.4,-34.3602 1303.4,-34.3602"/>
<text text-anchor="middle" x="1281.5" y="-102.3" font-family="Times,serif" font-size="14.00">reputations</text>
</g>
<!-- ReputationSystem::Evaluation -->
<g id="node18" class="node"><title>ReputationSystem::Evaluation</title>
<ellipse fill="none" stroke="black" cx="1143" cy="-18" rx="117.935" ry="18"/>
<text text-anchor="middle" x="1143" y="-14.3" font-family="Times,serif" font-size="14.00">ReputationSystem::Evaluation</text>
</g>
<!-- Question&#45;&gt;ReputationSystem::Evaluation -->
<g id="edge11" class="edge"><title>Question&#45;&gt;ReputationSystem::Evaluation</title>
<path fill="none" stroke="#d2a42f" d="M1227.67,-168.022C1224.07,-158.999 1218.97,-149.259 1212,-142 1199.61,-129.101 1187.6,-137.614 1176,-124 1157.27,-102.03 1149.16,-69.4231 1145.65,-46.3853"/>
<ellipse fill="none" stroke="#d2a42f" cx="1229.09" cy="-171.927" rx="4.00001" ry="4.00001"/>
<polygon fill="#d2a42f" stroke="#d2a42f" points="1145.62,-46.1534 1148.77,-35.649 1144.96,-41.1967 1144.31,-36.2399 1144.31,-36.2399 1144.31,-36.2399 1144.96,-41.1967 1139.84,-36.8308 1145.62,-46.1534 1145.62,-46.1534"/>
<text text-anchor="middle" x="1207" y="-102.3" font-family="Times,serif" font-size="14.00">evaluations</text>
</g>
<!-- Trade -->
<g id="node6" class="node"><title>Trade</title>
<ellipse fill="none" stroke="black" cx="1890" cy="-194" rx="31.2965" ry="18"/>
<text text-anchor="middle" x="1890" y="-190.3" font-family="Times,serif" font-size="14.00">Trade</text>
</g>
<!-- MessageTrade -->
<g id="node11" class="node"><title>MessageTrade</title>
<ellipse fill="none" stroke="black" cx="1755" cy="-106" rx="62.0922" ry="18"/>
<text text-anchor="middle" x="1755" y="-102.3" font-family="Times,serif" font-size="14.00">MessageTrade</text>
</g>
<!-- Trade&#45;&gt;MessageTrade -->
<g id="edge16" class="edge"><title>Trade&#45;&gt;MessageTrade</title>
<path fill="none" stroke="#a578ac" d="M1862.92,-175.747C1841.39,-162.034 1811.19,-142.793 1788.2,-128.153"/>
<ellipse fill="none" stroke="#a578ac" cx="1866.42" cy="-177.976" rx="4.00002" ry="4.00002"/>
<polygon fill="#a578ac" stroke="#a578ac" points="1787.91,-127.962 1781.89,-118.794 1783.69,-125.276 1779.47,-122.59 1779.47,-122.59 1779.47,-122.59 1783.69,-125.276 1777.05,-126.385 1787.91,-127.962 1787.91,-127.962"/>
<text text-anchor="middle" x="1860" y="-146.3" font-family="Times,serif" font-size="14.00">messages</text>
</g>
<!-- AvaliationTrade -->
<g id="node7" class="node"><title>AvaliationTrade</title>
<ellipse fill="none" stroke="black" cx="1773" cy="-194" rx="68.3664" ry="18"/>
<text text-anchor="middle" x="1773" y="-190.3" font-family="Times,serif" font-size="14.00">AvaliationTrade</text>
</g>
<!-- Answer&#45;&gt;ReputationSystem::Reputation -->
<g id="edge17" class="edge"><title>Answer&#45;&gt;ReputationSystem::Reputation</title>
<path fill="none" stroke="#eebf7d" d="M1383.07,-80.1512C1385.67,-69.4889 1388.72,-57.0029 1391.38,-46.103"/>
<ellipse fill="none" stroke="#eebf7d" cx="1382.1" cy="-84.1233" rx="4.00001" ry="4.00001"/>
<polygon fill="#eebf7d" stroke="#eebf7d" points="1391.42,-45.9645 1398.16,-37.3174 1392.6,-41.1072 1393.79,-36.2499 1393.79,-36.2499 1393.79,-36.2499 1392.6,-41.1072 1389.42,-35.1824 1391.42,-45.9645 1391.42,-45.9645"/>
<text text-anchor="middle" x="1419.5" y="-58.3" font-family="Times,serif" font-size="14.00">reputations</text>
</g>
<!-- Answer&#45;&gt;ReputationSystem::Evaluation -->
<g id="edge18" class="edge"><title>Answer&#45;&gt;ReputationSystem::Evaluation</title>
<path fill="none" stroke="#7c8ade" d="M1340.09,-91.4366C1301.23,-77.1539 1239.7,-54.5387 1195.73,-38.3781"/>
<ellipse fill="none" stroke="#7c8ade" cx="1344.08" cy="-92.902" rx="4.00001" ry="4.00001"/>
<polygon fill="#7c8ade" stroke="#7c8ade" points="1195.45,-38.2782 1187.62,-30.6047 1190.76,-36.5533 1186.07,-34.8285 1186.07,-34.8285 1186.07,-34.8285 1190.76,-36.5533 1184.52,-39.0523 1195.45,-38.2782 1195.45,-38.2782"/>
<text text-anchor="middle" x="1312" y="-58.3" font-family="Times,serif" font-size="14.00">evaluations</text>
</g>
<!-- User -->
<g id="node9" class="node"><title>User</title>
<ellipse fill="none" stroke="black" cx="1348" cy="-282" rx="26.949" ry="18"/>
<text text-anchor="middle" x="1348" y="-278.3" font-family="Times,serif" font-size="14.00">User</text>
</g>
<!-- User&#45;&gt;BottleTrade -->
<g id="edge23" class="edge"><title>User&#45;&gt;BottleTrade</title>
<path fill="none" stroke="#40d7f6" d="M1338.81,-256.921C1328.86,-233.602 1311,-198.552 1286,-176 1259.13,-151.754 1246.14,-154.025 1212,-142 1184.44,-132.292 1152.92,-124.127 1126.87,-118.131"/>
<ellipse fill="none" stroke="#40d7f6" cx="1340.35" cy="-260.648" rx="4.00002" ry="4.00002"/>
<polygon fill="#40d7f6" stroke="#40d7f6" points="1126.56,-118.062 1117.8,-111.47 1121.69,-116.961 1116.81,-115.86 1116.81,-115.86 1116.81,-115.86 1121.69,-116.961 1115.82,-120.249 1126.56,-118.062 1126.56,-118.062"/>
</g>
<!-- User&#45;&gt;Bottle -->
<g id="edge22" class="edge"><title>User&#45;&gt;Bottle</title>
<path fill="none" stroke="#4fd2ed" d="M1314.02,-274.716C1230.15,-259.205 1013.57,-219.148 923.363,-202.465"/>
<ellipse fill="none" stroke="#4fd2ed" cx="1318.07" cy="-275.464" rx="4.00001" ry="4.00001"/>
<polygon fill="#4fd2ed" stroke="#4fd2ed" points="923.092,-202.415 914.077,-196.171 918.175,-201.506 913.259,-200.596 913.259,-200.596 913.259,-200.596 918.175,-201.506 912.44,-205.021 923.092,-202.415 923.092,-202.415"/>
</g>
<!-- User&#45;&gt;Question -->
<g id="edge20" class="edge"><title>User&#45;&gt;Question</title>
<path fill="none" stroke="#67219f" d="M1324.24,-262.915C1306.43,-249.361 1281.99,-230.764 1263.19,-216.457"/>
<ellipse fill="none" stroke="#67219f" cx="1327.65" cy="-265.516" rx="4.00002" ry="4.00002"/>
<polygon fill="#67219f" stroke="#67219f" points="1262.95,-216.275 1257.72,-206.638 1258.98,-213.247 1255,-210.219 1255,-210.219 1255,-210.219 1258.98,-213.247 1252.27,-213.8 1262.95,-216.275 1262.95,-216.275"/>
</g>
<!-- User&#45;&gt;Trade -->
<g id="edge19" class="edge"><title>User&#45;&gt;Trade</title>
<path fill="none" stroke="#c606e9" d="M1383.41,-281.104C1454.91,-280.63 1621.27,-276.058 1757,-246 1792.7,-238.095 1831.52,-222.311 1857.96,-210.385"/>
<ellipse fill="none" stroke="#c606e9" cx="1379.17" cy="-281.124" rx="4" ry="4"/>
<polygon fill="#c606e9" stroke="#c606e9" points="1858.02,-210.357 1868.98,-210.277 1862.56,-208.272 1867.1,-206.187 1867.1,-206.187 1867.1,-206.187 1862.56,-208.272 1865.23,-202.097 1858.02,-210.357 1858.02,-210.357"/>
</g>
<!-- User&#45;&gt;AvaliationTrade -->
<g id="edge25" class="edge"><title>User&#45;&gt;AvaliationTrade</title>
<path fill="none" stroke="#efc82a" d="M1383.75,-280.003C1440.72,-277.714 1555.25,-270.235 1649,-246 1678.25,-238.439 1709.71,-225.438 1733.62,-214.456"/>
<ellipse fill="none" stroke="#efc82a" cx="1379.44" cy="-280.165" rx="4" ry="4"/>
<polygon fill="#efc82a" stroke="#efc82a" points="1733.66,-214.437 1744.62,-214.283 1738.19,-212.321 1742.72,-210.206 1742.72,-210.206 1742.72,-210.206 1738.19,-212.321 1740.82,-206.129 1733.66,-214.437 1733.66,-214.437"/>
<text text-anchor="middle" x="1723.5" y="-234.3" font-family="Times,serif" font-size="14.00">avaliations</text>
</g>
<!-- User&#45;&gt;Answer -->
<g id="edge21" class="edge"><title>User&#45;&gt;Answer</title>
<path fill="none" stroke="#2b8e97" d="M1352.17,-255.963C1357.57,-223.573 1366.94,-167.363 1372.5,-134.029"/>
<ellipse fill="none" stroke="#2b8e97" cx="1351.49" cy="-260.054" rx="4.00001" ry="4.00001"/>
<polygon fill="#2b8e97" stroke="#2b8e97" points="1372.51,-133.934 1378.59,-124.81 1373.33,-129.002 1374.16,-124.07 1374.16,-124.07 1374.16,-124.07 1373.33,-129.002 1369.72,-123.33 1372.51,-133.934 1372.51,-133.934"/>
</g>
<!-- User&#45;&gt;Profile -->
<g id="edge28" class="edge"><title>User&#45;&gt;Profile</title>
<path fill="none" stroke="#f98e45" d="M1312.67,-277.75C1166.83,-264.336 612.025,-213.306 454.772,-198.842"/>
<ellipse fill="none" stroke="#f98e45" cx="1317.04" cy="-278.153" rx="4" ry="4"/>
<ellipse fill="#f98e45" stroke="#f98e45" cx="450.7" cy="-198.468" rx="4" ry="4"/>
</g>
<!-- User&#45;&gt;MessageTrade -->
<g id="edge24" class="edge"><title>User&#45;&gt;MessageTrade</title>
<path fill="none" stroke="#5be017" d="M1383.19,-279.027C1441.18,-275.259 1553.79,-265.607 1588,-246 1622.57,-226.188 1614.21,-202.454 1644,-176 1665.92,-156.535 1693.99,-139.143 1716.41,-126.689"/>
<ellipse fill="none" stroke="#5be017" cx="1379.04" cy="-279.289" rx="4" ry="4"/>
<polygon fill="#5be017" stroke="#5be017" points="1716.55,-126.615 1727.48,-125.781 1720.94,-124.222 1725.33,-121.83 1725.33,-121.83 1725.33,-121.83 1720.94,-124.222 1723.18,-117.878 1716.55,-126.615 1716.55,-126.615"/>
<text text-anchor="middle" x="1670" y="-190.3" font-family="Times,serif" font-size="14.00">messages</text>
</g>
<!-- User&#45;&gt;Picture -->
<g id="edge26" class="edge"><title>User&#45;&gt;Picture</title>
<path fill="none" stroke="#a36af3" d="M1312.24,-279.923C1146.51,-274.736 457.442,-250.975 370,-212 338.126,-197.793 327.414,-189.781 313,-158 309.729,-150.788 308.498,-142.395 308.281,-134.526"/>
<ellipse fill="none" stroke="#a36af3" cx="1316.63" cy="-280.059" rx="4" ry="4"/>
<polygon fill="#a36af3" stroke="#a36af3" points="308.287,-134.276 313.017,-124.383 308.403,-129.277 308.519,-124.278 308.519,-124.278 308.519,-124.278 308.403,-129.277 304.02,-124.174 308.287,-134.276 308.287,-134.276"/>
</g>
<!-- User&#45;&gt;FavoriteQuestion -->
<g id="edge27" class="edge"><title>User&#45;&gt;FavoriteQuestion</title>
<path fill="none" stroke="#bf31b6" d="M1366.89,-260.066C1396.04,-227.756 1451.87,-165.885 1482.87,-131.526"/>
<ellipse fill="none" stroke="#bf31b6" cx="1364.07" cy="-263.195" rx="4.00002" ry="4.00002"/>
<polygon fill="#bf31b6" stroke="#bf31b6" points="1483.12,-131.247 1493.16,-126.837 1486.47,-127.534 1489.82,-123.822 1489.82,-123.822 1489.82,-123.822 1486.47,-127.534 1486.48,-120.808 1483.12,-131.247 1483.12,-131.247"/>
</g>
<!-- User&#45;&gt;ReputationSystem::Reputation -->
<g id="edge29" class="edge"><title>User&#45;&gt;ReputationSystem::Reputation</title>
<path fill="none" stroke="#0eb3f2" d="M1380.11,-270.912C1434.03,-252.027 1541.13,-205.682 1585,-124 1610.74,-76.0716 1546.18,-48.6488 1486.01,-33.9376"/>
<ellipse fill="none" stroke="#0eb3f2" cx="1376.03" cy="-272.309" rx="4.00001" ry="4.00001"/>
<polygon fill="#0eb3f2" stroke="#0eb3f2" points="1485.76,-33.878 1477.05,-27.2161 1480.89,-32.7377 1476.02,-31.5975 1476.02,-31.5975 1476.02,-31.5975 1480.89,-32.7377 1474.99,-35.9789 1485.76,-33.878 1485.76,-33.878"/>
<text text-anchor="middle" x="1602.5" y="-146.3" font-family="Times,serif" font-size="14.00">reputations</text>
</g>
<!-- User&#45;&gt;ReputationSystem::Evaluation -->
<g id="edge30" class="edge"><title>User&#45;&gt;ReputationSystem::Evaluation</title>
<path fill="none" stroke="#f55072" d="M1312.52,-280.508C1169.05,-278.377 631.422,-268.996 463,-246 358.658,-231.754 291.305,-251.578 243,-158 230.74,-134.249 254.478,-96.2834 266,-88 325.491,-45.2293 788.578,-27.8094 1016.76,-21.7672"/>
<ellipse fill="none" stroke="#f55072" cx="1316.62" cy="-280.568" rx="4" ry="4"/>
<polygon fill="#f55072" stroke="#f55072" points="1016.79,-21.7667 1026.9,-26.0036 1021.78,-21.6359 1026.78,-21.5052 1026.78,-21.5052 1026.78,-21.5052 1021.78,-21.6359 1026.66,-17.0067 1016.79,-21.7667 1016.79,-21.7667"/>
<text text-anchor="middle" x="274" y="-146.3" font-family="Times,serif" font-size="14.00">evaluations</text>
</g>
<!-- Profile&#45;&gt;Picture -->
<g id="edge31" class="edge"><title>Profile&#45;&gt;Picture</title>
<path fill="none" stroke="#381c0c" d="M372.711,-185.339C355.85,-180.222 337.345,-171.792 325,-158 319.166,-151.482 315.736,-142.753 313.727,-134.361"/>
<ellipse fill="none" stroke="#381c0c" cx="376.967" cy="-186.523" rx="4.00001" ry="4.00001"/>
<polygon fill="#381c0c" stroke="#381c0c" points="313.716,-134.299 316.344,-123.653 312.817,-129.381 311.917,-124.462 311.917,-124.462 311.917,-124.462 312.817,-129.381 307.491,-125.272 313.716,-134.299 313.716,-134.299"/>
</g>
<!-- Profile&#45;&gt;ActsAsTaggableOn::Tagging -->
<g id="edge32" class="edge"><title>Profile&#45;&gt;ActsAsTaggableOn::Tagging</title>
<path fill="none" stroke="#1b6cd0" d="M376.399,-181.105C353.73,-171.825 331.332,-157.875 345,-142 360.231,-124.31 408.197,-115.437 456.679,-111.035"/>
<ellipse fill="none" stroke="#1b6cd0" cx="380.316" cy="-182.623" rx="4.00001" ry="4.00001"/>
<polygon fill="#1b6cd0" stroke="#1b6cd0" points="456.732,-111.03 467.076,-114.671 461.715,-110.609 466.697,-110.187 466.697,-110.187 466.697,-110.187 461.715,-110.609 466.317,-105.703 456.732,-111.03 456.732,-111.03"/>
<text text-anchor="middle" x="368" y="-146.3" font-family="Times,serif" font-size="14.00">taggings</text>
</g>
<!-- Profile&#45;&gt;ActsAsTaggableOn::Tagging -->
<g id="edge34" class="edge"><title>Profile&#45;&gt;ActsAsTaggableOn::Tagging</title>
<path fill="none" stroke="#d78c41" d="M420.628,-168.231C424.689,-158.778 430.622,-148.679 439,-142 450.892,-132.52 465.028,-125.572 479.658,-120.487"/>
<ellipse fill="none" stroke="#d78c41" cx="419.089" cy="-172.202" rx="4.00001" ry="4.00001"/>
<polygon fill="#d78c41" stroke="#d78c41" points="479.797,-120.442 490.692,-121.694 484.561,-118.924 489.325,-117.406 489.325,-117.406 489.325,-117.406 484.561,-118.924 487.959,-113.118 479.797,-120.442 479.797,-120.442"/>
<text text-anchor="middle" x="474" y="-146.3" font-family="Times,serif" font-size="14.00">tag_taggings</text>
</g>
<!-- Profile&#45;&gt;ActsAsTaggableOn::Tag -->
<g id="edge33" class="edge"><title>Profile&#45;&gt;ActsAsTaggableOn::Tag</title>
<path fill="none" stroke="#2dfc5f" d="M457.371,-190.976C534.354,-187.014 689.295,-176.924 740,-158 751.666,-153.646 751.709,-147.252 763,-142 780.505,-133.857 800.248,-127.325 818.963,-122.212"/>
<polygon fill="#2dfc5f" stroke="#2dfc5f" points="457.032,-190.993 446.819,-187.001 452.039,-191.244 447.045,-191.495 447.045,-191.495 447.045,-191.495 452.039,-191.244 447.271,-195.989 457.032,-190.993 457.032,-190.993"/>
<polygon fill="#2dfc5f" stroke="#2dfc5f" points="818.967,-122.211 829.783,-124.019 823.803,-120.939 828.638,-119.667 828.638,-119.667 828.638,-119.667 823.803,-120.939 827.493,-115.315 818.967,-122.211 818.967,-122.211"/>
<text text-anchor="middle" x="789.5" y="-146.3" font-family="Times,serif" font-size="14.00">base_tags</text>
</g>
<!-- Profile&#45;&gt;ActsAsTaggableOn::Tag -->
<g id="edge35" class="edge"><title>Profile&#45;&gt;ActsAsTaggableOn::Tag</title>
<path fill="none" stroke="#d8ba7b" d="M457.341,-191.9C547.843,-189.209 750.784,-180.763 816,-158 833.802,-151.786 851.497,-140.52 865.426,-130.154"/>
<polygon fill="#d8ba7b" stroke="#d8ba7b" points="457.131,-191.906 447.006,-187.695 452.133,-192.05 447.135,-192.194 447.135,-192.194 447.135,-192.194 452.133,-192.05 447.264,-196.692 457.131,-191.906 457.131,-191.906"/>
<polygon fill="#d8ba7b" stroke="#d8ba7b" points="865.66,-129.974 876.327,-127.434 869.62,-126.922 873.58,-123.869 873.58,-123.869 873.58,-123.869 869.62,-126.922 870.833,-120.305 865.66,-129.974 865.66,-129.974"/>
<text text-anchor="middle" x="859" y="-146.3" font-family="Times,serif" font-size="14.00">tags</text>
</g>
<!-- State -->
<g id="node13" class="node"><title>State</title>
<ellipse fill="none" stroke="black" cx="261" cy="-377" rx="28.3955" ry="18"/>
<text text-anchor="middle" x="261" y="-373.3" font-family="Times,serif" font-size="14.00">State</text>
</g>
<!-- State&#45;&gt;City -->
<g id="edge36" class="edge"><title>State&#45;&gt;City</title>
<path fill="none" stroke="#5499d2" d="M261,-350.562C261,-338.078 261,-323.025 261,-310.299"/>
<ellipse fill="none" stroke="#5499d2" cx="261" cy="-354.942" rx="4" ry="4"/>
<polygon fill="#5499d2" stroke="#5499d2" points="261,-310.264 265.5,-300.264 261,-305.264 261,-300.264 261,-300.264 261,-300.264 261,-305.264 256.5,-300.264 261,-310.264 261,-310.264"/>
</g>
</g>
</svg>
