<?xml version="1.0" encoding="UTF-8" standalone="no"?>
<!DOCTYPE svg PUBLIC "-//W3C//DTD SVG 1.1//EN"
 "http://www.w3.org/Graphics/SVG/1.1/DTD/svg11.dtd">
<!-- Generated by graphviz version 2.36.0 (20140111.2315)
 -->
<!-- Title: models_diagram Pages: 1 -->
<svg width="1286pt" height="928pt"
 viewBox="0.00 0.00 1286.00 928.00" xmlns="http://www.w3.org/2000/svg" xmlns:xlink="http://www.w3.org/1999/xlink">
<g id="graph0" class="graph" transform="scale(1 1) rotate(0) translate(4 924)">
<title>models_diagram</title>
<polygon fill="none" stroke="none" points="-4,4 -4,-924 1282,-924 1282,4 -4,4"/>
<!-- _diagram_info -->
<g id="node1" class="node"><title>_diagram_info</title>
<text text-anchor="start" x="218" y="-755.6" font-family="Times,serif" font-size="13.00">Models diagram</text>
<text text-anchor="start" x="218" y="-741.6" font-family="Times,serif" font-size="13.00">Date: Sep 21 2015 &#45; 20:39</text>
<text text-anchor="start" x="218" y="-727.6" font-family="Times,serif" font-size="13.00">Migration version: 20150921230651</text>
<text text-anchor="start" x="218" y="-713.6" font-family="Times,serif" font-size="13.00">Generated by RailRoady 1.3.1</text>
<text text-anchor="start" x="218" y="-699.6" font-family="Times,serif" font-size="13.00">http://railroady.prestonlee.com</text>
</g>
<!-- BottleTrade -->
<g id="node2" class="node"><title>BottleTrade</title>
<path fill="none" stroke="black" d="M397.5,-111C397.5,-111 486.5,-111 486.5,-111 492.5,-111 498.5,-117 498.5,-123 498.5,-123 498.5,-205 498.5,-205 498.5,-211 492.5,-217 486.5,-217 486.5,-217 397.5,-217 397.5,-217 391.5,-217 385.5,-211 385.5,-205 385.5,-205 385.5,-123 385.5,-123 385.5,-117 391.5,-111 397.5,-111"/>
<text text-anchor="middle" x="442" y="-201.8" font-family="Times,serif" font-size="14.00">BottleTrade</text>
<polyline fill="none" stroke="black" points="385.5,-194 498.5,-194 "/>
<text text-anchor="start" x="393.5" y="-178.8" font-family="Times,serif" font-size="14.00">id :integer</text>
<text text-anchor="start" x="393.5" y="-163.8" font-family="Times,serif" font-size="14.00">owner_id :integer</text>
<text text-anchor="start" x="393.5" y="-148.8" font-family="Times,serif" font-size="14.00">trade_id :integer</text>
<text text-anchor="start" x="393.5" y="-133.8" font-family="Times,serif" font-size="14.00">bottle_id :integer</text>
<text text-anchor="start" x="393.5" y="-118.8" font-family="Times,serif" font-size="14.00">amount :integer</text>
</g>
<!-- State -->
<g id="node3" class="node"><title>State</title>
<path fill="none" stroke="black" d="M1159.5,-685.5C1159.5,-685.5 1266.5,-685.5 1266.5,-685.5 1272.5,-685.5 1278.5,-691.5 1278.5,-697.5 1278.5,-697.5 1278.5,-764.5 1278.5,-764.5 1278.5,-770.5 1272.5,-776.5 1266.5,-776.5 1266.5,-776.5 1159.5,-776.5 1159.5,-776.5 1153.5,-776.5 1147.5,-770.5 1147.5,-764.5 1147.5,-764.5 1147.5,-697.5 1147.5,-697.5 1147.5,-691.5 1153.5,-685.5 1159.5,-685.5"/>
<text text-anchor="middle" x="1213" y="-761.3" font-family="Times,serif" font-size="14.00">State</text>
<polyline fill="none" stroke="black" points="1147.5,-753.5 1278.5,-753.5 "/>
<text text-anchor="start" x="1155.5" y="-738.3" font-family="Times,serif" font-size="14.00">id :integer</text>
<text text-anchor="start" x="1155.5" y="-723.3" font-family="Times,serif" font-size="14.00">name :string</text>
<text text-anchor="start" x="1155.5" y="-708.3" font-family="Times,serif" font-size="14.00">created_at :datetime</text>
<text text-anchor="start" x="1155.5" y="-693.3" font-family="Times,serif" font-size="14.00">updated_at :datetime</text>
</g>
<!-- City -->
<g id="node13" class="node"><title>City</title>
<ellipse fill="none" stroke="black" cx="1213" cy="-391" rx="27" ry="18"/>
<text text-anchor="middle" x="1213" y="-387.3" font-family="Times,serif" font-size="14.00">City</text>
</g>
<!-- State&#45;&gt;City -->
<g id="edge1" class="edge"><title>State&#45;&gt;City</title>
<path fill="none" stroke="#08e9c8" d="M1213,-677.217C1213,-604.237 1213,-475.188 1213,-419.19"/>
<ellipse fill="none" stroke="#08e9c8" cx="1213" cy="-681.465" rx="4" ry="4"/>
<polygon fill="#08e9c8" stroke="#08e9c8" points="1213,-419.003 1217.5,-409.003 1213,-414.003 1213,-409.003 1213,-409.003 1213,-409.003 1213,-414.003 1208.5,-409.003 1213,-419.003 1213,-419.003"/>
</g>
<!-- Trade -->
<g id="node4" class="node"><title>Trade</title>
<path fill="none" stroke="black" d="M12,-345.5C12,-345.5 122,-345.5 122,-345.5 128,-345.5 134,-351.5 134,-357.5 134,-357.5 134,-424.5 134,-424.5 134,-430.5 128,-436.5 122,-436.5 122,-436.5 12,-436.5 12,-436.5 6,-436.5 0,-430.5 0,-424.5 0,-424.5 0,-357.5 0,-357.5 0,-351.5 6,-345.5 12,-345.5"/>
<text text-anchor="middle" x="67" y="-421.3" font-family="Times,serif" font-size="14.00">Trade</text>
<polyline fill="none" stroke="black" points="0,-413.5 134,-413.5 "/>
<text text-anchor="start" x="8" y="-398.3" font-family="Times,serif" font-size="14.00">id :integer</text>
<text text-anchor="start" x="8" y="-383.3" font-family="Times,serif" font-size="14.00">negotiator_id :integer</text>
<text text-anchor="start" x="8" y="-368.3" font-family="Times,serif" font-size="14.00">negotiant_id :integer</text>
<text text-anchor="start" x="8" y="-353.3" font-family="Times,serif" font-size="14.00">status :integer</text>
</g>
<!-- MessageTrade -->
<g id="node6" class="node"><title>MessageTrade</title>
<path fill="none" stroke="black" d="M86,-118.5C86,-118.5 168,-118.5 168,-118.5 174,-118.5 180,-124.5 180,-130.5 180,-130.5 180,-197.5 180,-197.5 180,-203.5 174,-209.5 168,-209.5 168,-209.5 86,-209.5 86,-209.5 80,-209.5 74,-203.5 74,-197.5 74,-197.5 74,-130.5 74,-130.5 74,-124.5 80,-118.5 86,-118.5"/>
<text text-anchor="middle" x="127" y="-194.3" font-family="Times,serif" font-size="14.00">MessageTrade</text>
<polyline fill="none" stroke="black" points="74,-186.5 180,-186.5 "/>
<text text-anchor="start" x="82" y="-171.3" font-family="Times,serif" font-size="14.00">id :integer</text>
<text text-anchor="start" x="82" y="-156.3" font-family="Times,serif" font-size="14.00">user_id :integer</text>
<text text-anchor="start" x="82" y="-141.3" font-family="Times,serif" font-size="14.00">trade_id :integer</text>
<text text-anchor="start" x="82" y="-126.3" font-family="Times,serif" font-size="14.00">content :text</text>
</g>
<!-- Trade&#45;&gt;MessageTrade -->
<g id="edge2" class="edge"><title>Trade&#45;&gt;MessageTrade</title>
<path fill="none" stroke="#9adb8f" d="M81.0754,-337.217C90.5263,-301.776 102.946,-255.201 112.487,-219.424"/>
<ellipse fill="none" stroke="#9adb8f" cx="79.9565" cy="-341.413" rx="4.00001" ry="4.00001"/>
<polygon fill="#9adb8f" stroke="#9adb8f" points="112.52,-219.299 119.445,-210.797 113.808,-214.468 115.097,-209.637 115.097,-209.637 115.097,-209.637 113.808,-214.468 110.749,-208.478 112.52,-219.299 112.52,-219.299"/>
<text text-anchor="middle" x="127" y="-262.3" font-family="Times,serif" font-size="14.00">messages</text>
</g>
<!-- User -->
<g id="node5" class="node"><title>User</title>
<path fill="none" stroke="black" d="M454,-543C454,-543 630,-543 630,-543 636,-543 642,-549 642,-555 642,-555 642,-907 642,-907 642,-913 636,-919 630,-919 630,-919 454,-919 454,-919 448,-919 442,-913 442,-907 442,-907 442,-555 442,-555 442,-549 448,-543 454,-543"/>
<text text-anchor="middle" x="542" y="-903.8" font-family="Times,serif" font-size="14.00">User</text>
<polyline fill="none" stroke="black" points="442,-896 642,-896 "/>
<text text-anchor="start" x="450" y="-880.8" font-family="Times,serif" font-size="14.00">id :integer</text>
<text text-anchor="start" x="450" y="-865.8" font-family="Times,serif" font-size="14.00">name :string</text>
<text text-anchor="start" x="450" y="-850.8" font-family="Times,serif" font-size="14.00">email :string</text>
<text text-anchor="start" x="450" y="-835.8" font-family="Times,serif" font-size="14.00">encrypted_password :string</text>
<text text-anchor="start" x="450" y="-820.8" font-family="Times,serif" font-size="14.00">reset_password_token :string</text>
<text text-anchor="start" x="450" y="-805.8" font-family="Times,serif" font-size="14.00">reset_password_sent_at :datetime</text>
<text text-anchor="start" x="450" y="-790.8" font-family="Times,serif" font-size="14.00">remember_created_at :datetime</text>
<text text-anchor="start" x="450" y="-775.8" font-family="Times,serif" font-size="14.00">sign_in_count :integer</text>
<text text-anchor="start" x="450" y="-760.8" font-family="Times,serif" font-size="14.00">current_sign_in_at :datetime</text>
<text text-anchor="start" x="450" y="-745.8" font-family="Times,serif" font-size="14.00">last_sign_in_at :datetime</text>
<text text-anchor="start" x="450" y="-730.8" font-family="Times,serif" font-size="14.00">current_sign_in_ip :inet</text>
<text text-anchor="start" x="450" y="-715.8" font-family="Times,serif" font-size="14.00">last_sign_in_ip :inet</text>
<text text-anchor="start" x="450" y="-700.8" font-family="Times,serif" font-size="14.00">confirmation_token :string</text>
<text text-anchor="start" x="450" y="-685.8" font-family="Times,serif" font-size="14.00">confirmed_at :datetime</text>
<text text-anchor="start" x="450" y="-670.8" font-family="Times,serif" font-size="14.00">confirmation_sent_at :datetime</text>
<text text-anchor="start" x="450" y="-655.8" font-family="Times,serif" font-size="14.00">unconfirmed_email :string</text>
<text text-anchor="start" x="450" y="-640.8" font-family="Times,serif" font-size="14.00">failed_attempts :integer</text>
<text text-anchor="start" x="450" y="-625.8" font-family="Times,serif" font-size="14.00">unlock_token :string</text>
<text text-anchor="start" x="450" y="-610.8" font-family="Times,serif" font-size="14.00">locked_at :datetime</text>
<text text-anchor="start" x="450" y="-595.8" font-family="Times,serif" font-size="14.00">created_at :datetime</text>
<text text-anchor="start" x="450" y="-580.8" font-family="Times,serif" font-size="14.00">updated_at :datetime</text>
<text text-anchor="start" x="450" y="-565.8" font-family="Times,serif" font-size="14.00">provider :string</text>
<text text-anchor="start" x="450" y="-550.8" font-family="Times,serif" font-size="14.00">uid :string</text>
</g>
<!-- User&#45;&gt;BottleTrade -->
<g id="edge7" class="edge"><title>User&#45;&gt;BottleTrade</title>
<path fill="none" stroke="#0deafe" d="M435.655,-545.269C434.447,-544.162 433.228,-543.073 432,-542 386.676,-502.423 340.391,-540.056 307,-490 258.166,-416.793 272.087,-372.778 307,-292 321.641,-258.126 350.255,-229.115 377.386,-207.408"/>
<ellipse fill="none" stroke="#0deafe" cx="438.711" cy="-548.175" rx="4.00002" ry="4.00002"/>
<polygon fill="#0deafe" stroke="#0deafe" points="377.473,-207.341 388.128,-204.746 381.418,-204.268 385.362,-201.196 385.362,-201.196 385.362,-201.196 381.418,-204.268 382.597,-197.646 377.473,-207.341 377.473,-207.341"/>
</g>
<!-- User&#45;&gt;Trade -->
<g id="edge3" class="edge"><title>User&#45;&gt;Trade</title>
<path fill="none" stroke="#1b994f" d="M435.14,-543.998C434.102,-543.318 433.056,-542.652 432,-542 379.706,-509.703 209.298,-554.612 156,-524 125.615,-506.548 103.497,-474.008 88.9107,-445.604"/>
<ellipse fill="none" stroke="#1b994f" cx="438.578" cy="-546.393" rx="4.00002" ry="4.00002"/>
<polygon fill="#1b994f" stroke="#1b994f" points="88.8679,-445.518 88.4731,-434.559 86.6532,-441.035 84.4386,-436.552 84.4386,-436.552 84.4386,-436.552 86.6532,-441.035 80.4041,-438.545 88.8679,-445.518 88.8679,-445.518"/>
</g>
<!-- User&#45;&gt;MessageTrade -->
<g id="edge8" class="edge"><title>User&#45;&gt;MessageTrade</title>
<path fill="none" stroke="#a1dc22" d="M435.115,-544.039C434.085,-543.346 433.047,-542.666 432,-542 395.094,-518.527 277.303,-538.393 236,-524 209.925,-514.913 198.572,-513.455 184,-490 129.191,-401.78 177.771,-359.552 156,-258 153.314,-245.473 149.679,-232.217 145.891,-219.76"/>
<ellipse fill="none" stroke="#a1dc22" cx="438.528" cy="-546.477" rx="4.00002" ry="4.00002"/>
<polygon fill="#a1dc22" stroke="#a1dc22" points="145.815,-219.516 147.131,-208.63 144.325,-214.743 142.836,-209.97 142.836,-209.97 142.836,-209.97 144.325,-214.743 138.54,-211.311 145.815,-219.516 145.815,-219.516"/>
<text text-anchor="middle" x="210" y="-387.3" font-family="Times,serif" font-size="14.00">messages</text>
</g>
<!-- Answer -->
<g id="node7" class="node"><title>Answer</title>
<path fill="none" stroke="black" d="M1016.5,-111C1016.5,-111 1117.5,-111 1117.5,-111 1123.5,-111 1129.5,-117 1129.5,-123 1129.5,-123 1129.5,-205 1129.5,-205 1129.5,-211 1123.5,-217 1117.5,-217 1117.5,-217 1016.5,-217 1016.5,-217 1010.5,-217 1004.5,-211 1004.5,-205 1004.5,-205 1004.5,-123 1004.5,-123 1004.5,-117 1010.5,-111 1016.5,-111"/>
<text text-anchor="middle" x="1067" y="-201.8" font-family="Times,serif" font-size="14.00">Answer</text>
<polyline fill="none" stroke="black" points="1004.5,-194 1129.5,-194 "/>
<text text-anchor="start" x="1012.5" y="-178.8" font-family="Times,serif" font-size="14.00">id :integer</text>
<text text-anchor="start" x="1012.5" y="-163.8" font-family="Times,serif" font-size="14.00">content :text</text>
<text text-anchor="start" x="1012.5" y="-148.8" font-family="Times,serif" font-size="14.00">user_id :integer</text>
<text text-anchor="start" x="1012.5" y="-133.8" font-family="Times,serif" font-size="14.00">question_id :integer</text>
<text text-anchor="start" x="1012.5" y="-118.8" font-family="Times,serif" font-size="14.00">best :boolean</text>
</g>
<!-- User&#45;&gt;Answer -->
<g id="edge5" class="edge"><title>User&#45;&gt;Answer</title>
<path fill="none" stroke="#9aa454" d="M649.989,-697.946C749.821,-662.805 895.032,-596.752 979,-490 1039.45,-413.145 1058.47,-297.968 1064.4,-227.363"/>
<ellipse fill="none" stroke="#9aa454" cx="646.058" cy="-699.314" rx="4.00001" ry="4.00001"/>
<polygon fill="#9aa454" stroke="#9aa454" points="1064.41,-227.249 1069.67,-217.627 1064.8,-222.264 1065.18,-217.279 1065.18,-217.279 1065.18,-217.279 1064.8,-222.264 1060.7,-216.93 1064.41,-227.249 1064.41,-227.249"/>
</g>
<!-- AvaliationTrade -->
<g id="node8" class="node"><title>AvaliationTrade</title>
<path fill="none" stroke="black" d="M328,-330.5C328,-330.5 432,-330.5 432,-330.5 438,-330.5 444,-336.5 444,-342.5 444,-342.5 444,-439.5 444,-439.5 444,-445.5 438,-451.5 432,-451.5 432,-451.5 328,-451.5 328,-451.5 322,-451.5 316,-445.5 316,-439.5 316,-439.5 316,-342.5 316,-342.5 316,-336.5 322,-330.5 328,-330.5"/>
<text text-anchor="middle" x="380" y="-436.3" font-family="Times,serif" font-size="14.00">AvaliationTrade</text>
<polyline fill="none" stroke="black" points="316,-428.5 444,-428.5 "/>
<text text-anchor="start" x="324" y="-413.3" font-family="Times,serif" font-size="14.00">id :integer</text>
<text text-anchor="start" x="324" y="-398.3" font-family="Times,serif" font-size="14.00">rating :integer</text>
<text text-anchor="start" x="324" y="-383.3" font-family="Times,serif" font-size="14.00">content :text</text>
<text text-anchor="start" x="324" y="-368.3" font-family="Times,serif" font-size="14.00">trade_id :integer</text>
<text text-anchor="start" x="324" y="-353.3" font-family="Times,serif" font-size="14.00">assessed_id :integer</text>
<text text-anchor="start" x="324" y="-338.3" font-family="Times,serif" font-size="14.00">appraiser_id :integer</text>
</g>
<!-- User&#45;&gt;AvaliationTrade -->
<g id="edge9" class="edge"><title>User&#45;&gt;AvaliationTrade</title>
<path fill="none" stroke="#d7fad8" d="M448.716,-535.371C435.949,-508.734 423.599,-482.966 412.974,-460.798"/>
<ellipse fill="none" stroke="#d7fad8" cx="450.506" cy="-539.105" rx="4.00002" ry="4.00002"/>
<polygon fill="#d7fad8" stroke="#d7fad8" points="412.852,-460.544 412.588,-449.581 410.691,-456.035 408.53,-451.526 408.53,-451.526 408.53,-451.526 410.691,-456.035 404.472,-453.471 412.852,-460.544 412.852,-460.544"/>
<text text-anchor="middle" x="471.5" y="-512.3" font-family="Times,serif" font-size="14.00">avaliations</text>
</g>
<!-- Profile -->
<g id="node9" class="node"><title>Profile</title>
<path fill="none" stroke="black" d="M474.5,-300.5C474.5,-300.5 609.5,-300.5 609.5,-300.5 615.5,-300.5 621.5,-306.5 621.5,-312.5 621.5,-312.5 621.5,-469.5 621.5,-469.5 621.5,-475.5 615.5,-481.5 609.5,-481.5 609.5,-481.5 474.5,-481.5 474.5,-481.5 468.5,-481.5 462.5,-475.5 462.5,-469.5 462.5,-469.5 462.5,-312.5 462.5,-312.5 462.5,-306.5 468.5,-300.5 474.5,-300.5"/>
<text text-anchor="middle" x="542" y="-466.3" font-family="Times,serif" font-size="14.00">Profile</text>
<polyline fill="none" stroke="black" points="462.5,-458.5 621.5,-458.5 "/>
<text text-anchor="start" x="470.5" y="-443.3" font-family="Times,serif" font-size="14.00">id :integer</text>
<text text-anchor="start" x="470.5" y="-428.3" font-family="Times,serif" font-size="14.00">first_name :string</text>
<text text-anchor="start" x="470.5" y="-413.3" font-family="Times,serif" font-size="14.00">last_name :string</text>
<text text-anchor="start" x="470.5" y="-398.3" font-family="Times,serif" font-size="14.00">birth_date :date</text>
<text text-anchor="start" x="470.5" y="-383.3" font-family="Times,serif" font-size="14.00">state_id :string</text>
<text text-anchor="start" x="470.5" y="-368.3" font-family="Times,serif" font-size="14.00">city_id :string</text>
<text text-anchor="start" x="470.5" y="-353.3" font-family="Times,serif" font-size="14.00">about :text</text>
<text text-anchor="start" x="470.5" y="-338.3" font-family="Times,serif" font-size="14.00">organization_name :string</text>
<text text-anchor="start" x="470.5" y="-323.3" font-family="Times,serif" font-size="14.00">created_at :datetime</text>
<text text-anchor="start" x="470.5" y="-308.3" font-family="Times,serif" font-size="14.00">updated_at :datetime</text>
</g>
<!-- User&#45;&gt;Profile -->
<g id="edge11" class="edge"><title>User&#45;&gt;Profile</title>
<path fill="none" stroke="#2d78fc" d="M542,-534.301C542,-519.045 542,-504.087 542,-489.941"/>
<ellipse fill="none" stroke="#2d78fc" cx="542" cy="-538.713" rx="4" ry="4"/>
<ellipse fill="#2d78fc" stroke="#2d78fc" cx="542" cy="-485.71" rx="4" ry="4"/>
</g>
<!-- Bottle -->
<g id="node10" class="node"><title>Bottle</title>
<path fill="none" stroke="black" d="M651.5,-293C651.5,-293 786.5,-293 786.5,-293 792.5,-293 798.5,-299 798.5,-305 798.5,-305 798.5,-477 798.5,-477 798.5,-483 792.5,-489 786.5,-489 786.5,-489 651.5,-489 651.5,-489 645.5,-489 639.5,-483 639.5,-477 639.5,-477 639.5,-305 639.5,-305 639.5,-299 645.5,-293 651.5,-293"/>
<text text-anchor="middle" x="719" y="-473.8" font-family="Times,serif" font-size="14.00">Bottle</text>
<polyline fill="none" stroke="black" points="639.5,-466 798.5,-466 "/>
<text text-anchor="start" x="647.5" y="-450.8" font-family="Times,serif" font-size="14.00">id :integer</text>
<text text-anchor="start" x="647.5" y="-435.8" font-family="Times,serif" font-size="14.00">label :string</text>
<text text-anchor="start" x="647.5" y="-420.8" font-family="Times,serif" font-size="14.00">organization_name :string</text>
<text text-anchor="start" x="647.5" y="-405.8" font-family="Times,serif" font-size="14.00">filling_date :date</text>
<text text-anchor="start" x="647.5" y="-390.8" font-family="Times,serif" font-size="14.00">style :string</text>
<text text-anchor="start" x="647.5" y="-375.8" font-family="Times,serif" font-size="14.00">amount :integer</text>
<text text-anchor="start" x="647.5" y="-360.8" font-family="Times,serif" font-size="14.00">about :text</text>
<text text-anchor="start" x="647.5" y="-345.8" font-family="Times,serif" font-size="14.00">measure :string</text>
<text text-anchor="start" x="647.5" y="-330.8" font-family="Times,serif" font-size="14.00">abv :string</text>
<text text-anchor="start" x="647.5" y="-315.8" font-family="Times,serif" font-size="14.00">private :boolean</text>
<text text-anchor="start" x="647.5" y="-300.8" font-family="Times,serif" font-size="14.00">user_id :integer</text>
</g>
<!-- User&#45;&gt;Bottle -->
<g id="edge6" class="edge"><title>User&#45;&gt;Bottle</title>
<path fill="none" stroke="#c5338a" d="M643.913,-535.387C650.548,-522.716 657.081,-510.242 663.356,-498.258"/>
<ellipse fill="none" stroke="#c5338a" cx="641.932" cy="-539.169" rx="4.00002" ry="4.00002"/>
<polygon fill="#c5338a" stroke="#c5338a" points="663.463,-498.053 672.089,-491.282 665.783,-493.624 668.102,-489.194 668.102,-489.194 668.102,-489.194 665.783,-493.624 664.116,-487.107 663.463,-498.053 663.463,-498.053"/>
</g>
<!-- Question -->
<g id="node11" class="node"><title>Question</title>
<path fill="none" stroke="black" d="M881.5,-345.5C881.5,-345.5 958.5,-345.5 958.5,-345.5 964.5,-345.5 970.5,-351.5 970.5,-357.5 970.5,-357.5 970.5,-424.5 970.5,-424.5 970.5,-430.5 964.5,-436.5 958.5,-436.5 958.5,-436.5 881.5,-436.5 881.5,-436.5 875.5,-436.5 869.5,-430.5 869.5,-424.5 869.5,-424.5 869.5,-357.5 869.5,-357.5 869.5,-351.5 875.5,-345.5 881.5,-345.5"/>
<text text-anchor="middle" x="920" y="-421.3" font-family="Times,serif" font-size="14.00">Question</text>
<polyline fill="none" stroke="black" points="869.5,-413.5 970.5,-413.5 "/>
<text text-anchor="start" x="877.5" y="-398.3" font-family="Times,serif" font-size="14.00">id :integer</text>
<text text-anchor="start" x="877.5" y="-383.3" font-family="Times,serif" font-size="14.00">title :string</text>
<text text-anchor="start" x="877.5" y="-368.3" font-family="Times,serif" font-size="14.00">content :text</text>
<text text-anchor="start" x="877.5" y="-353.3" font-family="Times,serif" font-size="14.00">user_id :integer</text>
</g>
<!-- User&#45;&gt;Question -->
<g id="edge4" class="edge"><title>User&#45;&gt;Question</title>
<path fill="none" stroke="#8cd8c2" d="M649.172,-671.218C709.952,-634.352 784.676,-582.746 840,-524 861.598,-501.066 880.231,-471.358 894.066,-445.935"/>
<ellipse fill="none" stroke="#8cd8c2" cx="645.634" cy="-673.35" rx="4.00002" ry="4.00002"/>
<polygon fill="#8cd8c2" stroke="#8cd8c2" points="894.24,-445.608 902.915,-438.899 896.592,-441.195 898.943,-436.783 898.943,-436.783 898.943,-436.783 896.592,-441.195 894.972,-434.666 894.24,-445.608 894.24,-445.608"/>
</g>
<!-- Picture -->
<g id="node12" class="node"><title>Picture</title>
<path fill="none" stroke="black" d="M634.5,-88.5C634.5,-88.5 779.5,-88.5 779.5,-88.5 785.5,-88.5 791.5,-94.5 791.5,-100.5 791.5,-100.5 791.5,-227.5 791.5,-227.5 791.5,-233.5 785.5,-239.5 779.5,-239.5 779.5,-239.5 634.5,-239.5 634.5,-239.5 628.5,-239.5 622.5,-233.5 622.5,-227.5 622.5,-227.5 622.5,-100.5 622.5,-100.5 622.5,-94.5 628.5,-88.5 634.5,-88.5"/>
<text text-anchor="middle" x="707" y="-224.3" font-family="Times,serif" font-size="14.00">Picture</text>
<polyline fill="none" stroke="black" points="622.5,-216.5 791.5,-216.5 "/>
<text text-anchor="start" x="630.5" y="-201.3" font-family="Times,serif" font-size="14.00">id :integer</text>
<text text-anchor="start" x="630.5" y="-186.3" font-family="Times,serif" font-size="14.00">user_id :integer</text>
<text text-anchor="start" x="630.5" y="-171.3" font-family="Times,serif" font-size="14.00">picture_file_name :string</text>
<text text-anchor="start" x="630.5" y="-156.3" font-family="Times,serif" font-size="14.00">picture_content_type :string</text>
<text text-anchor="start" x="630.5" y="-141.3" font-family="Times,serif" font-size="14.00">picture_file_size :integer</text>
<text text-anchor="start" x="630.5" y="-126.3" font-family="Times,serif" font-size="14.00">picture_update_at :datetime</text>
<text text-anchor="start" x="630.5" y="-111.3" font-family="Times,serif" font-size="14.00">attachable_id :integer</text>
<text text-anchor="start" x="630.5" y="-96.3" font-family="Times,serif" font-size="14.00">attachable_type :string</text>
</g>
<!-- User&#45;&gt;Picture -->
<g id="edge10" class="edge"><title>User&#45;&gt;Picture</title>
<path fill="none" stroke="#2d805b" d="M648.943,-665.475C707.474,-623.59 774.531,-563.211 807,-490 842.676,-409.556 835.807,-375.151 807,-292 801.713,-276.738 793.748,-261.92 784.578,-248.116"/>
<ellipse fill="none" stroke="#2d805b" cx="645.481" cy="-667.925" rx="4.00002" ry="4.00002"/>
<polygon fill="#2d805b" stroke="#2d805b" points="784.415,-247.881 782.425,-237.097 781.57,-243.77 778.725,-239.658 778.725,-239.658 778.725,-239.658 781.57,-243.77 775.024,-242.219 784.415,-247.881 784.415,-247.881"/>
</g>
<!-- ReputationSystem::Reputation -->
<g id="node14" class="node"><title>ReputationSystem::Reputation</title>
<ellipse fill="none" stroke="black" cx="823" cy="-18" rx="118.409" ry="18"/>
<text text-anchor="middle" x="823" y="-14.3" font-family="Times,serif" font-size="14.00">ReputationSystem::Reputation</text>
</g>
<!-- User&#45;&gt;ReputationSystem::Reputation -->
<g id="edge12" class="edge"><title>User&#45;&gt;ReputationSystem::Reputation</title>
<path fill="none" stroke="#6c6dbe" d="M435.046,-544.143C434.039,-543.416 433.023,-542.702 432,-542 390.782,-513.736 367.344,-542.709 321,-524 296.42,-514.077 285.308,-512.924 272,-490 246.03,-445.263 237.064,-307.212 253,-258 281.731,-169.278 296.437,-136.65 376,-88 429.974,-54.9968 593.101,-36.2032 706.585,-26.8068"/>
<ellipse fill="none" stroke="#6c6dbe" cx="438.393" cy="-546.694" rx="4.00002" ry="4.00002"/>
<polygon fill="#6c6dbe" stroke="#6c6dbe" points="706.754,-26.7932 717.086,-30.4667 711.737,-26.3873 716.721,-25.9815 716.721,-25.9815 716.721,-25.9815 711.737,-26.3873 716.355,-21.4964 706.754,-26.7932 706.754,-26.7932"/>
<text text-anchor="middle" x="283.5" y="-262.3" font-family="Times,serif" font-size="14.00">reputations</text>
</g>
<!-- ReputationSystem::Evaluation -->
<g id="node15" class="node"><title>ReputationSystem::Evaluation</title>
<ellipse fill="none" stroke="black" cx="1078" cy="-18" rx="117.935" ry="18"/>
<text text-anchor="middle" x="1078" y="-14.3" font-family="Times,serif" font-size="14.00">ReputationSystem::Evaluation</text>
</g>
<!-- User&#45;&gt;ReputationSystem::Evaluation -->
<g id="edge13" class="edge"><title>User&#45;&gt;ReputationSystem::Evaluation</title>
<path fill="none" stroke="#ecc1b3" d="M650.01,-702.5C759.863,-669.325 928.145,-603.371 1031,-490 1112.21,-400.488 1112.68,-358.179 1138,-240 1155.32,-159.157 1182.93,-125.257 1141,-54 1137.99,-48.8878 1133.94,-44.4688 1129.33,-40.6615"/>
<ellipse fill="none" stroke="#ecc1b3" cx="646.036" cy="-703.687" rx="4.00001" ry="4.00001"/>
<polygon fill="#ecc1b3" stroke="#ecc1b3" points="1129.27,-40.6229 1123.74,-31.1532 1125.2,-37.72 1121.13,-34.8172 1121.13,-34.8172 1121.13,-34.8172 1125.2,-37.72 1118.52,-38.4812 1129.27,-40.6229 1129.27,-40.6229"/>
<text text-anchor="middle" x="1165" y="-262.3" font-family="Times,serif" font-size="14.00">evaluations</text>
</g>
<!-- Answer&#45;&gt;ReputationSystem::Reputation -->
<g id="edge14" class="edge"><title>Answer&#45;&gt;ReputationSystem::Reputation</title>
<path fill="none" stroke="#0c5edf" d="M1012.81,-105.429C1005.48,-99.1159 997.794,-93.1292 990,-88 957.086,-66.3402 916.269,-49.3248 883.227,-37.6103"/>
<ellipse fill="none" stroke="#0c5edf" cx="1015.87" cy="-108.146" rx="4.00002" ry="4.00002"/>
<polygon fill="#0c5edf" stroke="#0c5edf" points="883.131,-37.577 875.161,-30.0457 878.408,-35.9369 873.685,-34.2967 873.685,-34.2967 873.685,-34.2967 878.408,-35.9369 872.209,-38.5478 883.131,-37.577 883.131,-37.577"/>
<text text-anchor="middle" x="986.5" y="-58.3" font-family="Times,serif" font-size="14.00">reputations</text>
</g>
<!-- Answer&#45;&gt;ReputationSystem::Evaluation -->
<g id="edge15" class="edge"><title>Answer&#45;&gt;ReputationSystem::Evaluation</title>
<path fill="none" stroke="#4daabd" d="M1071.62,-102.518C1073.12,-82.9402 1074.7,-62.1963 1075.92,-46.2796"/>
<ellipse fill="none" stroke="#4daabd" cx="1071.31" cy="-106.617" rx="4" ry="4"/>
<polygon fill="#4daabd" stroke="#4daabd" points="1075.93,-46.0763 1081.18,-36.4481 1076.31,-41.0908 1076.69,-36.1053 1076.69,-36.1053 1076.69,-36.1053 1076.31,-41.0908 1072.21,-35.7625 1075.93,-46.0763 1075.93,-46.0763"/>
<text text-anchor="middle" x="1106" y="-58.3" font-family="Times,serif" font-size="14.00">evaluations</text>
</g>
<!-- Profile&#45;&gt;Picture -->
<g id="edge16" class="edge"><title>Profile&#45;&gt;Picture</title>
<path fill="none" stroke="#1c8a71" d="M612.547,-293.8C623.727,-278.554 635.207,-262.899 646.141,-247.989"/>
<ellipse fill="none" stroke="#1c8a71" cx="610.052" cy="-297.202" rx="4.00002" ry="4.00002"/>
<polygon fill="#1c8a71" stroke="#1c8a71" points="646.24,-247.854 655.783,-242.451 649.197,-243.822 652.154,-239.79 652.154,-239.79 652.154,-239.79 649.197,-243.822 648.525,-237.129 646.24,-247.854 646.24,-247.854"/>
</g>
<!-- Bottle&#45;&gt;BottleTrade -->
<g id="edge18" class="edge"><title>Bottle&#45;&gt;BottleTrade</title>
<path fill="none" stroke="#4a30ca" d="M633.224,-294.829C632.15,-293.874 631.075,-292.931 630,-292 591.963,-259.054 545.069,-227.361 507.631,-203.877"/>
<ellipse fill="none" stroke="#4a30ca" cx="636.406" cy="-297.719" rx="4.00002" ry="4.00002"/>
<polygon fill="#4a30ca" stroke="#4a30ca" points="507.308,-203.676 501.197,-194.57 503.063,-201.033 498.819,-198.391 498.819,-198.391 498.819,-198.391 503.063,-201.033 496.44,-202.211 507.308,-203.676 507.308,-203.676"/>
</g>
<!-- Bottle&#45;&gt;Picture -->
<g id="edge17" class="edge"><title>Bottle&#45;&gt;Picture</title>
<path fill="none" stroke="#9ac5cf" d="M713.376,-284.553C712.757,-272.95 712.133,-261.247 711.53,-249.94"/>
<ellipse fill="none" stroke="#9ac5cf" cx="713.611" cy="-288.953" rx="4" ry="4"/>
<polygon fill="#9ac5cf" stroke="#9ac5cf" points="711.516,-249.667 715.477,-239.442 711.249,-244.674 710.983,-239.681 710.983,-239.681 710.983,-239.681 711.249,-244.674 706.489,-239.921 711.516,-249.667 711.516,-249.667"/>
</g>
<!-- Question&#45;&gt;Answer -->
<g id="edge19" class="edge"><title>Question&#45;&gt;Answer</title>
<path fill="none" stroke="#4e15f5" d="M953.854,-338.183C975.726,-304.706 1004.28,-260.997 1027.23,-225.867"/>
<ellipse fill="none" stroke="#4e15f5" cx="951.406" cy="-341.93" rx="4.00002" ry="4.00002"/>
<polygon fill="#4e15f5" stroke="#4e15f5" points="1027.47,-225.504 1036.71,-219.593 1030.21,-221.318 1032.94,-217.132 1032.94,-217.132 1032.94,-217.132 1030.21,-221.318 1029.17,-214.671 1027.47,-225.504 1027.47,-225.504"/>
</g>
<!-- Question&#45;&gt;ReputationSystem::Reputation -->
<g id="edge20" class="edge"><title>Question&#45;&gt;ReputationSystem::Reputation</title>
<path fill="none" stroke="#48ed45" d="M886.214,-338.489C869.623,-310.519 851.077,-274.652 841,-240 821.321,-172.333 820.582,-88.4316 821.759,-46.1166"/>
<ellipse fill="none" stroke="#48ed45" cx="888.323" cy="-341.996" rx="4.00002" ry="4.00002"/>
<polygon fill="#48ed45" stroke="#48ed45" points="821.761,-46.0441 826.596,-36.2015 821.93,-41.0469 822.098,-36.0497 822.098,-36.0497 822.098,-36.0497 821.93,-41.0469 817.601,-35.898 821.761,-46.0441 821.761,-46.0441"/>
<text text-anchor="middle" x="871.5" y="-160.3" font-family="Times,serif" font-size="14.00">reputations</text>
</g>
<!-- Question&#45;&gt;ReputationSystem::Evaluation -->
<g id="edge21" class="edge"><title>Question&#45;&gt;ReputationSystem::Evaluation</title>
<path fill="none" stroke="#f32a86" d="M915.234,-337.268C908.861,-253.36 902.154,-94.7504 938,-54 945.423,-45.561 964.84,-38.7382 986.932,-33.4352"/>
<ellipse fill="none" stroke="#f32a86" cx="915.556" cy="-341.407" rx="4" ry="4"/>
<polygon fill="#f32a86" stroke="#f32a86" points="987.132,-33.39 997.879,-35.5693 992.008,-32.2852 996.885,-31.1805 996.885,-31.1805 996.885,-31.1805 992.008,-32.2852 995.891,-26.7917 987.132,-33.39 987.132,-33.39"/>
<text text-anchor="middle" x="953" y="-160.3" font-family="Times,serif" font-size="14.00">evaluations</text>
</g>
</g>
</svg>
