<?xml version="1.0" encoding="UTF-8" standalone="no"?>
<!DOCTYPE svg PUBLIC "-//W3C//DTD SVG 1.1//EN"
 "http://www.w3.org/Graphics/SVG/1.1/DTD/svg11.dtd">
<!-- Generated by graphviz version 2.36.0 (20140111.2315)
 -->
<!-- Title: models_diagram Pages: 1 -->
<svg width="959pt" height="350pt"
 viewBox="0.00 0.00 959.00 350.00" xmlns="http://www.w3.org/2000/svg" xmlns:xlink="http://www.w3.org/1999/xlink">
<g id="graph0" class="graph" transform="scale(1 1) rotate(0) translate(4 346)">
<title>models_diagram</title>
<polygon fill="none" stroke="none" points="-4,4 -4,-346 955,-346 955,4 -4,4"/>
<!-- _diagram_info -->
<g id="node1" class="node"><title>_diagram_info</title>
<text text-anchor="start" x="184" y="-327.6" font-family="Times,serif" font-size="13.00">Models diagram</text>
<text text-anchor="start" x="184" y="-313.6" font-family="Times,serif" font-size="13.00">Date: Sep 21 2015 &#45; 20:39</text>
<text text-anchor="start" x="184" y="-299.6" font-family="Times,serif" font-size="13.00">Migration version: 20150921230651</text>
<text text-anchor="start" x="184" y="-285.6" font-family="Times,serif" font-size="13.00">Generated by RailRoady 1.3.1</text>
<text text-anchor="start" x="184" y="-271.6" font-family="Times,serif" font-size="13.00">http://railroady.prestonlee.com</text>
</g>
<!-- BottleTrade -->
<g id="node2" class="node"><title>BottleTrade</title>
<ellipse fill="none" stroke="black" cx="330" cy="-106" rx="52.4675" ry="18"/>
<text text-anchor="middle" x="330" y="-102.3" font-family="Times,serif" font-size="14.00">BottleTrade</text>
</g>
<!-- State -->
<g id="node3" class="node"><title>State</title>
<ellipse fill="none" stroke="black" cx="923" cy="-303" rx="28.3955" ry="18"/>
<text text-anchor="middle" x="923" y="-299.3" font-family="Times,serif" font-size="14.00">State</text>
</g>
<!-- City -->
<g id="node13" class="node"><title>City</title>
<ellipse fill="none" stroke="black" cx="923" cy="-194" rx="27" ry="18"/>
<text text-anchor="middle" x="923" y="-190.3" font-family="Times,serif" font-size="14.00">City</text>
</g>
<!-- State&#45;&gt;City -->
<g id="edge1" class="edge"><title>State&#45;&gt;City</title>
<path fill="none" stroke="#67bcfe" d="M923,-276.772C923,-260.434 923,-239.161 923,-222.408"/>
<ellipse fill="none" stroke="#67bcfe" cx="923" cy="-280.809" rx="4" ry="4"/>
<polygon fill="#67bcfe" stroke="#67bcfe" points="923,-222.149 927.5,-212.149 923,-217.149 923,-212.149 923,-212.149 923,-212.149 923,-217.149 918.5,-212.149 923,-222.149 923,-222.149"/>
</g>
<!-- Trade -->
<g id="node4" class="node"><title>Trade</title>
<ellipse fill="none" stroke="black" cx="33" cy="-194" rx="31.2965" ry="18"/>
<text text-anchor="middle" x="33" y="-190.3" font-family="Times,serif" font-size="14.00">Trade</text>
</g>
<!-- MessageTrade -->
<g id="node6" class="node"><title>MessageTrade</title>
<ellipse fill="none" stroke="black" cx="62" cy="-106" rx="62.0922" ry="18"/>
<text text-anchor="middle" x="62" y="-102.3" font-family="Times,serif" font-size="14.00">MessageTrade</text>
</g>
<!-- Trade&#45;&gt;MessageTrade -->
<g id="edge2" class="edge"><title>Trade&#45;&gt;MessageTrade</title>
<path fill="none" stroke="#6ee23f" d="M30.2968,-167.896C30.2171,-159.452 31.0622,-150.119 34,-142 35.294,-138.424 37.1145,-134.937 39.2133,-131.637"/>
<ellipse fill="none" stroke="#6ee23f" cx="30.4708" cy="-171.969" rx="4" ry="4"/>
<polygon fill="#6ee23f" stroke="#6ee23f" points="39.3381,-131.466 48.8784,-126.059 42.2933,-127.433 45.2484,-123.4 45.2484,-123.4 45.2484,-123.4 42.2933,-127.433 41.6185,-120.74 39.3381,-131.466 39.3381,-131.466"/>
<text text-anchor="middle" x="60" y="-146.3" font-family="Times,serif" font-size="14.00">messages</text>
</g>
<!-- User -->
<g id="node5" class="node"><title>User</title>
<ellipse fill="none" stroke="black" cx="435" cy="-303" rx="26.949" ry="18"/>
<text text-anchor="middle" x="435" y="-299.3" font-family="Times,serif" font-size="14.00">User</text>
</g>
<!-- User&#45;&gt;BottleTrade -->
<g id="edge7" class="edge"><title>User&#45;&gt;BottleTrade</title>
<path fill="none" stroke="#a109fe" d="M417.668,-280.598C411.926,-274.565 405.158,-268.444 398,-264 334.114,-224.34 281.252,-272.795 237,-212 213.847,-180.191 256.959,-146.711 291.918,-126.338"/>
<ellipse fill="none" stroke="#a109fe" cx="420.36" cy="-283.57" rx="4.00002" ry="4.00002"/>
<polygon fill="#a109fe" stroke="#a109fe" points="292.327,-126.108 303.249,-125.122 296.684,-123.655 301.041,-121.201 301.041,-121.201 301.041,-121.201 296.684,-123.655 298.833,-117.28 292.327,-126.108 292.327,-126.108"/>
</g>
<!-- User&#45;&gt;Trade -->
<g id="edge3" class="edge"><title>User&#45;&gt;Trade</title>
<path fill="none" stroke="#b83a15" d="M418.854,-280.025C413.03,-273.737 405.916,-267.613 398,-264 334.821,-235.164 149.64,-273.804 86,-246 72.386,-240.052 60.1996,-228.977 50.955,-218.663"/>
<ellipse fill="none" stroke="#b83a15" cx="421.624" cy="-283.248" rx="4.00002" ry="4.00002"/>
<polygon fill="#b83a15" stroke="#b83a15" points="50.9468,-218.654 47.9182,-208.114 47.7154,-214.838 44.4841,-211.022 44.4841,-211.022 44.4841,-211.022 47.7154,-214.838 41.0501,-213.93 50.9468,-218.654 50.9468,-218.654"/>
</g>
<!-- User&#45;&gt;MessageTrade -->
<g id="edge8" class="edge"><title>User&#45;&gt;MessageTrade</title>
<path fill="none" stroke="#0a7274" d="M418.811,-280.118C412.984,-273.835 405.88,-267.691 398,-264 304.345,-220.129 263.899,-279.342 166,-246 139.861,-237.098 131.494,-233.364 114,-212 92.7717,-186.075 101.793,-171.552 86,-142 84.3169,-138.85 82.4108,-135.639 80.4265,-132.502"/>
<ellipse fill="none" stroke="#0a7274" cx="421.582" cy="-283.333" rx="4.00002" ry="4.00002"/>
<polygon fill="#0a7274" stroke="#0a7274" points="80.2888,-132.295 78.4932,-121.477 77.518,-128.133 74.7473,-123.971 74.7473,-123.971 74.7473,-123.971 77.518,-128.133 71.0014,-126.464 80.2888,-132.295 80.2888,-132.295"/>
<text text-anchor="middle" x="140" y="-190.3" font-family="Times,serif" font-size="14.00">messages</text>
</g>
<!-- Answer -->
<g id="node7" class="node"><title>Answer</title>
<ellipse fill="none" stroke="black" cx="792" cy="-106" rx="38.0212" ry="18"/>
<text text-anchor="middle" x="792" y="-102.3" font-family="Times,serif" font-size="14.00">Answer</text>
</g>
<!-- User&#45;&gt;Answer -->
<g id="edge5" class="edge"><title>User&#45;&gt;Answer</title>
<path fill="none" stroke="#47ab4a" d="M469.732,-298.637C527.124,-291.539 643.046,-270.533 720,-212 747.368,-191.183 768.062,-156.892 780.087,-133.19"/>
<ellipse fill="none" stroke="#47ab4a" cx="465.673" cy="-299.116" rx="4.00001" ry="4.00001"/>
<polygon fill="#47ab4a" stroke="#47ab4a" points="780.16,-133.041 788.6,-126.039 782.359,-128.55 784.558,-124.06 784.558,-124.06 784.558,-124.06 782.359,-128.55 780.517,-122.08 780.16,-133.041 780.16,-133.041"/>
</g>
<!-- AvaliationTrade -->
<g id="node8" class="node"><title>AvaliationTrade</title>
<ellipse fill="none" stroke="black" cx="314" cy="-194" rx="68.3664" ry="18"/>
<text text-anchor="middle" x="314" y="-190.3" font-family="Times,serif" font-size="14.00">AvaliationTrade</text>
</g>
<!-- User&#45;&gt;AvaliationTrade -->
<g id="edge9" class="edge"><title>User&#45;&gt;AvaliationTrade</title>
<path fill="none" stroke="#15d231" d="M415.846,-280.88C410.299,-275.172 404.092,-269.153 398,-264 387.27,-254.923 383.074,-254.655 372,-246 360.913,-237.335 349.169,-227.203 339.17,-218.264"/>
<ellipse fill="none" stroke="#15d231" cx="418.811" cy="-283.997" rx="4.00002" ry="4.00002"/>
<polygon fill="#15d231" stroke="#15d231" points="338.992,-218.103 334.587,-208.061 335.281,-214.752 331.571,-211.401 331.571,-211.401 331.571,-211.401 335.281,-214.752 328.555,-214.741 338.992,-218.103 338.992,-218.103"/>
<text text-anchor="middle" x="401.5" y="-234.3" font-family="Times,serif" font-size="14.00">avaliations</text>
</g>
<!-- Profile -->
<g id="node9" class="node"><title>Profile</title>
<ellipse fill="none" stroke="black" cx="435" cy="-194" rx="34.1708" ry="18"/>
<text text-anchor="middle" x="435" y="-190.3" font-family="Times,serif" font-size="14.00">Profile</text>
</g>
<!-- User&#45;&gt;Profile -->
<g id="edge11" class="edge"><title>User&#45;&gt;Profile</title>
<path fill="none" stroke="#87bf10" d="M435,-276.772C435,-259.812 435,-237.533 435,-220.513"/>
<ellipse fill="none" stroke="#87bf10" cx="435" cy="-280.809" rx="4" ry="4"/>
<ellipse fill="#87bf10" stroke="#87bf10" cx="435" cy="-216.149" rx="4" ry="4"/>
</g>
<!-- Bottle -->
<g id="node10" class="node"><title>Bottle</title>
<ellipse fill="none" stroke="black" cx="520" cy="-194" rx="32.2457" ry="18"/>
<text text-anchor="middle" x="520" y="-190.3" font-family="Times,serif" font-size="14.00">Bottle</text>
</g>
<!-- User&#45;&gt;Bottle -->
<g id="edge6" class="edge"><title>User&#45;&gt;Bottle</title>
<path fill="none" stroke="#81d07b" d="M452.208,-280.338C466.445,-262.416 486.633,-237.003 501.273,-218.574"/>
<ellipse fill="none" stroke="#81d07b" cx="449.667" cy="-283.537" rx="4.00002" ry="4.00002"/>
<polygon fill="#81d07b" stroke="#81d07b" points="501.348,-218.48 511.091,-213.449 504.458,-214.565 507.568,-210.65 507.568,-210.65 507.568,-210.65 504.458,-214.565 504.044,-207.851 501.348,-218.48 501.348,-218.48"/>
</g>
<!-- Question -->
<g id="node11" class="node"><title>Question</title>
<ellipse fill="none" stroke="black" cx="669" cy="-194" rx="42.3701" ry="18"/>
<text text-anchor="middle" x="669" y="-190.3" font-family="Times,serif" font-size="14.00">Question</text>
</g>
<!-- User&#45;&gt;Question -->
<g id="edge4" class="edge"><title>User&#45;&gt;Question</title>
<path fill="none" stroke="#5bc58f" d="M467.711,-293.181C500.581,-283.703 552.221,-267.112 594,-246 610.643,-237.59 627.937,-226.047 641.719,-216.07"/>
<ellipse fill="none" stroke="#5bc58f" cx="463.624" cy="-294.343" rx="4.00001" ry="4.00001"/>
<polygon fill="#5bc58f" stroke="#5bc58f" points="641.761,-216.039 652.48,-213.723 645.785,-213.07 649.808,-210.102 649.808,-210.102 649.808,-210.102 645.785,-213.07 647.137,-206.481 641.761,-216.039 641.761,-216.039"/>
</g>
<!-- Picture -->
<g id="node12" class="node"><title>Picture</title>
<ellipse fill="none" stroke="black" cx="505" cy="-106" rx="35.6194" ry="18"/>
<text text-anchor="middle" x="505" y="-102.3" font-family="Times,serif" font-size="14.00">Picture</text>
</g>
<!-- User&#45;&gt;Picture -->
<g id="edge10" class="edge"><title>User&#45;&gt;Picture</title>
<path fill="none" stroke="#382576" d="M465.548,-290.117C496.027,-276.41 541.099,-250.672 561,-212 575.883,-183.079 551.281,-150.018 530.13,-128.847"/>
<ellipse fill="none" stroke="#382576" cx="461.805" cy="-291.746" rx="4.00002" ry="4.00002"/>
<polygon fill="#382576" stroke="#382576" points="530.082,-128.801 525.977,-118.632 526.472,-125.341 522.863,-121.881 522.863,-121.881 522.863,-121.881 526.472,-125.341 519.749,-125.13 530.082,-128.801 530.082,-128.801"/>
</g>
<!-- ReputationSystem::Reputation -->
<g id="node14" class="node"><title>ReputationSystem::Reputation</title>
<ellipse fill="none" stroke="black" cx="556" cy="-18" rx="118.409" ry="18"/>
<text text-anchor="middle" x="556" y="-14.3" font-family="Times,serif" font-size="14.00">ReputationSystem::Reputation</text>
</g>
<!-- User&#45;&gt;ReputationSystem::Reputation -->
<g id="edge12" class="edge"><title>User&#45;&gt;ReputationSystem::Reputation</title>
<path fill="none" stroke="#5b33dd" d="M418.43,-280.032C412.651,-273.863 405.671,-267.807 398,-264 339.436,-234.934 308.694,-278.564 252,-246 204.321,-218.615 158.784,-190.332 185,-142 212.71,-90.9129 369.444,-53.1226 470.129,-33.7077"/>
<ellipse fill="none" stroke="#5b33dd" cx="421.157" cy="-283.148" rx="4.00002" ry="4.00002"/>
<polygon fill="#5b33dd" stroke="#5b33dd" points="470.171,-33.6999 480.836,-36.2501 475.083,-32.7647 479.995,-31.8295 479.995,-31.8295 479.995,-31.8295 475.083,-32.7647 479.153,-27.4089 470.171,-33.6999 470.171,-33.6999"/>
<text text-anchor="middle" x="215.5" y="-146.3" font-family="Times,serif" font-size="14.00">reputations</text>
</g>
<!-- ReputationSystem::Evaluation -->
<g id="node15" class="node"><title>ReputationSystem::Evaluation</title>
<ellipse fill="none" stroke="black" cx="811" cy="-18" rx="117.935" ry="18"/>
<text text-anchor="middle" x="811" y="-14.3" font-family="Times,serif" font-size="14.00">ReputationSystem::Evaluation</text>
</g>
<!-- User&#45;&gt;ReputationSystem::Evaluation -->
<g id="edge13" class="edge"><title>User&#45;&gt;ReputationSystem::Evaluation</title>
<path fill="none" stroke="#51d335" d="M470.108,-300.349C532.752,-295.737 665.247,-278.252 751,-212 812.697,-164.333 843.47,-147.251 854,-70 854.96,-62.954 857.053,-60.4222 854,-54 852.041,-49.8789 849.332,-46.0839 846.22,-42.6355"/>
<ellipse fill="none" stroke="#51d335" cx="466.094" cy="-300.623" rx="4" ry="4"/>
<polygon fill="#51d335" stroke="#51d335" points="846.13,-42.55 842,-32.3917 842.512,-39.099 838.894,-35.6481 838.894,-35.6481 838.894,-35.6481 842.512,-39.099 835.788,-38.9044 846.13,-42.55 846.13,-42.55"/>
<text text-anchor="middle" x="859" y="-146.3" font-family="Times,serif" font-size="14.00">evaluations</text>
</g>
<!-- Answer&#45;&gt;ReputationSystem::Reputation -->
<g id="edge14" class="edge"><title>Answer&#45;&gt;ReputationSystem::Reputation</title>
<path fill="none" stroke="#7eb1c9" d="M755.042,-91.5323C715.787,-77.2273 653.382,-54.4867 608.918,-38.2837"/>
<ellipse fill="none" stroke="#7eb1c9" cx="758.829" cy="-92.9124" rx="4.00001" ry="4.00001"/>
<polygon fill="#7eb1c9" stroke="#7eb1c9" points="608.832,-38.2524 600.977,-30.6005 604.134,-36.5405 599.436,-34.8285 599.436,-34.8285 599.436,-34.8285 604.134,-36.5405 597.896,-39.0565 608.832,-38.2524 608.832,-38.2524"/>
<text text-anchor="middle" x="726.5" y="-58.3" font-family="Times,serif" font-size="14.00">reputations</text>
</g>
<!-- Answer&#45;&gt;ReputationSystem::Evaluation -->
<g id="edge15" class="edge"><title>Answer&#45;&gt;ReputationSystem::Evaluation</title>
<path fill="none" stroke="#40cb33" d="M789.544,-79.5309C789.396,-71.2778 789.93,-62.1527 792,-54 792.758,-51.0137 793.828,-48.0066 795.079,-45.0763"/>
<ellipse fill="none" stroke="#40cb33" cx="789.731" cy="-83.7425" rx="4" ry="4"/>
<polygon fill="#40cb33" stroke="#40cb33" points="795.087,-45.0588 803.558,-38.0947 797.306,-40.5781 799.525,-36.0975 799.525,-36.0975 799.525,-36.0975 797.306,-40.5781 795.493,-34.1004 795.087,-45.0588 795.087,-45.0588"/>
<text text-anchor="middle" x="823" y="-58.3" font-family="Times,serif" font-size="14.00">evaluations</text>
</g>
<!-- Profile&#45;&gt;Picture -->
<g id="edge16" class="edge"><title>Profile&#45;&gt;Picture</title>
<path fill="none" stroke="#6afb37" d="M453.152,-170.699C463.044,-158.546 475.295,-143.495 485.404,-131.075"/>
<ellipse fill="none" stroke="#6afb37" cx="450.364" cy="-174.124" rx="4.00002" ry="4.00002"/>
<polygon fill="#6afb37" stroke="#6afb37" points="485.693,-130.721 495.495,-125.806 488.849,-126.843 492.005,-122.965 492.005,-122.965 492.005,-122.965 488.849,-126.843 488.515,-120.124 485.693,-130.721 485.693,-130.721"/>
</g>
<!-- Bottle&#45;&gt;BottleTrade -->
<g id="edge18" class="edge"><title>Bottle&#45;&gt;BottleTrade</title>
<path fill="none" stroke="#7e97d2" d="M487.851,-178.448C455.281,-163.706 404.832,-140.871 369.767,-125"/>
<ellipse fill="none" stroke="#7e97d2" cx="491.906" cy="-180.284" rx="4.00002" ry="4.00002"/>
<polygon fill="#7e97d2" stroke="#7e97d2" points="369.422,-124.844 362.168,-116.621 364.867,-122.782 360.312,-120.72 360.312,-120.72 360.312,-120.72 364.867,-122.782 358.456,-124.82 369.422,-124.844 369.422,-124.844"/>
</g>
<!-- Bottle&#45;&gt;Picture -->
<g id="edge17" class="edge"><title>Bottle&#45;&gt;Picture</title>
<path fill="none" stroke="#fd4f4e" d="M515.656,-168.097C513.784,-157.359 511.589,-144.779 509.68,-133.834"/>
<ellipse fill="none" stroke="#fd4f4e" cx="516.349" cy="-172.069" rx="4.00001" ry="4.00001"/>
<polygon fill="#fd4f4e" stroke="#fd4f4e" points="509.676,-133.807 512.39,-123.182 508.817,-128.881 507.957,-123.956 507.957,-123.956 507.957,-123.956 508.817,-128.881 503.524,-124.729 509.676,-133.807 509.676,-133.807"/>
</g>
<!-- Question&#45;&gt;Answer -->
<g id="edge19" class="edge"><title>Question&#45;&gt;Answer</title>
<path fill="none" stroke="#9b62f6" d="M696.885,-173.503C716.664,-159.674 743.137,-141.165 763.132,-127.184"/>
<ellipse fill="none" stroke="#9b62f6" cx="693.423" cy="-175.924" rx="4.00002" ry="4.00002"/>
<polygon fill="#9b62f6" stroke="#9b62f6" points="763.345,-127.035 774.119,-124.993 767.442,-124.17 771.54,-121.305 771.54,-121.305 771.54,-121.305 767.442,-124.17 768.962,-117.617 763.345,-127.035 763.345,-127.035"/>
</g>
<!-- Question&#45;&gt;ReputationSystem::Reputation -->
<g id="edge20" class="edge"><title>Question&#45;&gt;ReputationSystem::Reputation</title>
<path fill="none" stroke="#9595b4" d="M640.144,-173.413C623.721,-160.959 603.912,-143.531 591,-124 575.174,-100.061 565.901,-68.3175 560.922,-46.0231"/>
<ellipse fill="none" stroke="#9595b4" cx="643.728" cy="-176.061" rx="4.00002" ry="4.00002"/>
<polygon fill="#9595b4" stroke="#9595b4" points="560.917,-45.9986 563.275,-35.2893 559.894,-41.1044 558.87,-36.2103 558.87,-36.2103 558.87,-36.2103 559.894,-41.1044 554.466,-37.1312 560.917,-45.9986 560.917,-45.9986"/>
<text text-anchor="middle" x="621.5" y="-102.3" font-family="Times,serif" font-size="14.00">reputations</text>
</g>
<!-- Question&#45;&gt;ReputationSystem::Evaluation -->
<g id="edge21" class="edge"><title>Question&#45;&gt;ReputationSystem::Evaluation</title>
<path fill="none" stroke="#097b71" d="M664.808,-167.524C661.289,-136.774 660.555,-85.3051 688,-54 695.284,-45.6919 704.384,-39.2912 714.319,-34.3704"/>
<ellipse fill="none" stroke="#097b71" cx="665.34" cy="-171.647" rx="4.00001" ry="4.00001"/>
<polygon fill="#097b71" stroke="#097b71" points="714.5,-34.2907 725.465,-34.3724 719.074,-32.2729 723.649,-30.2551 723.649,-30.2551 723.649,-30.2551 719.074,-32.2729 721.833,-26.1378 714.5,-34.2907 714.5,-34.2907"/>
<text text-anchor="middle" x="701" y="-102.3" font-family="Times,serif" font-size="14.00">evaluations</text>
</g>
</g>
</svg>
