<?xml version="1.0" encoding="UTF-8" standalone="no"?>
<!DOCTYPE svg PUBLIC "-//W3C//DTD SVG 1.1//EN"
 "http://www.w3.org/Graphics/SVG/1.1/DTD/svg11.dtd">
<!-- Generated by graphviz version 2.36.0 (20140111.2315)
 -->
<!-- Title: models_diagram Pages: 1 -->
<svg width="2050pt" height="1118pt"
 viewBox="0.00 0.00 2050.00 1118.00" xmlns="http://www.w3.org/2000/svg" xmlns:xlink="http://www.w3.org/1999/xlink">
<g id="graph0" class="graph" transform="scale(1 1) rotate(0) translate(4 1114)">
<title>models_diagram</title>
<polygon fill="none" stroke="none" points="-4,4 -4,-1114 2046,-1114 2046,4 -4,4"/>
<!-- _diagram_info -->
<g id="node1" class="node"><title>_diagram_info</title>
<text text-anchor="start" x="8" y="-1088.6" font-family="Times,serif" font-size="13.00">Models diagram</text>
<text text-anchor="start" x="8" y="-1074.6" font-family="Times,serif" font-size="13.00">Date: Sep 22 2015 &#45; 20:03</text>
<text text-anchor="start" x="8" y="-1060.6" font-family="Times,serif" font-size="13.00">Migration version: 20150921235055</text>
<text text-anchor="start" x="8" y="-1046.6" font-family="Times,serif" font-size="13.00">Generated by RailRoady 1.3.1</text>
<text text-anchor="start" x="8" y="-1032.6" font-family="Times,serif" font-size="13.00">http://railroady.prestonlee.com</text>
</g>
<!-- BottleTrade -->
<g id="node2" class="node"><title>BottleTrade</title>
<path fill="none" stroke="black" d="M1043.5,-111C1043.5,-111 1150.5,-111 1150.5,-111 1156.5,-111 1162.5,-117 1162.5,-123 1162.5,-123 1162.5,-235 1162.5,-235 1162.5,-241 1156.5,-247 1150.5,-247 1150.5,-247 1043.5,-247 1043.5,-247 1037.5,-247 1031.5,-241 1031.5,-235 1031.5,-235 1031.5,-123 1031.5,-123 1031.5,-117 1037.5,-111 1043.5,-111"/>
<text text-anchor="middle" x="1097" y="-231.8" font-family="Times,serif" font-size="14.00">BottleTrade</text>
<polyline fill="none" stroke="black" points="1031.5,-224 1162.5,-224 "/>
<text text-anchor="start" x="1039.5" y="-208.8" font-family="Times,serif" font-size="14.00">id :integer</text>
<text text-anchor="start" x="1039.5" y="-193.8" font-family="Times,serif" font-size="14.00">owner_id :integer</text>
<text text-anchor="start" x="1039.5" y="-178.8" font-family="Times,serif" font-size="14.00">trade_id :integer</text>
<text text-anchor="start" x="1039.5" y="-163.8" font-family="Times,serif" font-size="14.00">bottle_id :integer</text>
<text text-anchor="start" x="1039.5" y="-148.8" font-family="Times,serif" font-size="14.00">amount :integer</text>
<text text-anchor="start" x="1039.5" y="-133.8" font-family="Times,serif" font-size="14.00">created_at :datetime</text>
<text text-anchor="start" x="1039.5" y="-118.8" font-family="Times,serif" font-size="14.00">updated_at :datetime</text>
</g>
<!-- Bottle -->
<g id="node3" class="node"><title>Bottle</title>
<path fill="none" stroke="black" d="M852.5,-323C852.5,-323 987.5,-323 987.5,-323 993.5,-323 999.5,-329 999.5,-335 999.5,-335 999.5,-537 999.5,-537 999.5,-543 993.5,-549 987.5,-549 987.5,-549 852.5,-549 852.5,-549 846.5,-549 840.5,-543 840.5,-537 840.5,-537 840.5,-335 840.5,-335 840.5,-329 846.5,-323 852.5,-323"/>
<text text-anchor="middle" x="920" y="-533.8" font-family="Times,serif" font-size="14.00">Bottle</text>
<polyline fill="none" stroke="black" points="840.5,-526 999.5,-526 "/>
<text text-anchor="start" x="848.5" y="-510.8" font-family="Times,serif" font-size="14.00">id :integer</text>
<text text-anchor="start" x="848.5" y="-495.8" font-family="Times,serif" font-size="14.00">label :string</text>
<text text-anchor="start" x="848.5" y="-480.8" font-family="Times,serif" font-size="14.00">organization_name :string</text>
<text text-anchor="start" x="848.5" y="-465.8" font-family="Times,serif" font-size="14.00">filling_date :date</text>
<text text-anchor="start" x="848.5" y="-450.8" font-family="Times,serif" font-size="14.00">style :string</text>
<text text-anchor="start" x="848.5" y="-435.8" font-family="Times,serif" font-size="14.00">amount :integer</text>
<text text-anchor="start" x="848.5" y="-420.8" font-family="Times,serif" font-size="14.00">about :text</text>
<text text-anchor="start" x="848.5" y="-405.8" font-family="Times,serif" font-size="14.00">measure :string</text>
<text text-anchor="start" x="848.5" y="-390.8" font-family="Times,serif" font-size="14.00">abv :string</text>
<text text-anchor="start" x="848.5" y="-375.8" font-family="Times,serif" font-size="14.00">private :boolean</text>
<text text-anchor="start" x="848.5" y="-360.8" font-family="Times,serif" font-size="14.00">user_id :integer</text>
<text text-anchor="start" x="848.5" y="-345.8" font-family="Times,serif" font-size="14.00">created_at :datetime</text>
<text text-anchor="start" x="848.5" y="-330.8" font-family="Times,serif" font-size="14.00">updated_at :datetime</text>
</g>
<!-- Bottle&#45;&gt;BottleTrade -->
<g id="edge2" class="edge"><title>Bottle&#45;&gt;BottleTrade</title>
<path fill="none" stroke="#3081cc" d="M1007.47,-399.752C1098.88,-362.711 1229.61,-309.09 1233,-304 1258.43,-265.783 1189.07,-277.865 1177,-270 1169.95,-265.406 1163.14,-260.031 1156.67,-254.236"/>
<ellipse fill="none" stroke="#3081cc" cx="1003.56" cy="-401.333" rx="4.00001" ry="4.00001"/>
<polygon fill="#3081cc" stroke="#3081cc" points="1156.52,-254.102 1152.31,-243.978 1152.88,-250.681 1149.23,-247.26 1149.23,-247.26 1149.23,-247.26 1152.88,-250.681 1146.15,-250.542 1156.52,-254.102 1156.52,-254.102"/>
</g>
<!-- Picture -->
<g id="node12" class="node"><title>Picture</title>
<path fill="none" stroke="black" d="M285.5,-88.5C285.5,-88.5 430.5,-88.5 430.5,-88.5 436.5,-88.5 442.5,-94.5 442.5,-100.5 442.5,-100.5 442.5,-257.5 442.5,-257.5 442.5,-263.5 436.5,-269.5 430.5,-269.5 430.5,-269.5 285.5,-269.5 285.5,-269.5 279.5,-269.5 273.5,-263.5 273.5,-257.5 273.5,-257.5 273.5,-100.5 273.5,-100.5 273.5,-94.5 279.5,-88.5 285.5,-88.5"/>
<text text-anchor="middle" x="358" y="-254.3" font-family="Times,serif" font-size="14.00">Picture</text>
<polyline fill="none" stroke="black" points="273.5,-246.5 442.5,-246.5 "/>
<text text-anchor="start" x="281.5" y="-231.3" font-family="Times,serif" font-size="14.00">id :integer</text>
<text text-anchor="start" x="281.5" y="-216.3" font-family="Times,serif" font-size="14.00">user_id :integer</text>
<text text-anchor="start" x="281.5" y="-201.3" font-family="Times,serif" font-size="14.00">picture_file_name :string</text>
<text text-anchor="start" x="281.5" y="-186.3" font-family="Times,serif" font-size="14.00">picture_content_type :string</text>
<text text-anchor="start" x="281.5" y="-171.3" font-family="Times,serif" font-size="14.00">picture_file_size :integer</text>
<text text-anchor="start" x="281.5" y="-156.3" font-family="Times,serif" font-size="14.00">picture_update_at :datetime</text>
<text text-anchor="start" x="281.5" y="-141.3" font-family="Times,serif" font-size="14.00">attachable_id :integer</text>
<text text-anchor="start" x="281.5" y="-126.3" font-family="Times,serif" font-size="14.00">attachable_type :string</text>
<text text-anchor="start" x="281.5" y="-111.3" font-family="Times,serif" font-size="14.00">created_at :datetime</text>
<text text-anchor="start" x="281.5" y="-96.3" font-family="Times,serif" font-size="14.00">updated_at :datetime</text>
</g>
<!-- Bottle&#45;&gt;Picture -->
<g id="edge1" class="edge"><title>Bottle&#45;&gt;Picture</title>
<path fill="none" stroke="#135fd9" d="M832.467,-408.895C744.263,-380.802 605.729,-331.727 495,-270 480.559,-261.95 465.617,-252.918 451.144,-243.765"/>
<ellipse fill="none" stroke="#135fd9" cx="836.5" cy="-410.172" rx="4.00001" ry="4.00001"/>
<polygon fill="#135fd9" stroke="#135fd9" points="451.115,-243.746 445.105,-234.574 446.9,-241.057 442.685,-238.368 442.685,-238.368 442.685,-238.368 446.9,-241.057 440.264,-242.162 451.115,-243.746 451.115,-243.746"/>
</g>
<!-- ActsAsTaggableOn::Tagging -->
<g id="node15" class="node"><title>ActsAsTaggableOn::Tagging</title>
<ellipse fill="none" stroke="black" cx="618" cy="-179" rx="114.085" ry="18"/>
<text text-anchor="middle" x="618" y="-175.3" font-family="Times,serif" font-size="14.00">ActsAsTaggableOn::Tagging</text>
</g>
<!-- Bottle&#45;&gt;ActsAsTaggableOn::Tagging -->
<g id="edge3" class="edge"><title>Bottle&#45;&gt;ActsAsTaggableOn::Tagging</title>
<path fill="none" stroke="#226265" d="M832.634,-409.398C776.95,-389.014 707.052,-355.266 662,-304 637.772,-276.431 626.624,-234.623 621.681,-207.309"/>
<ellipse fill="none" stroke="#226265" cx="836.628" cy="-410.833" rx="4.00001" ry="4.00001"/>
<polygon fill="#226265" stroke="#226265" points="621.652,-207.132 624.465,-196.533 620.838,-202.198 620.025,-197.265 620.025,-197.265 620.025,-197.265 620.838,-202.198 615.585,-197.997 621.652,-207.132 621.652,-207.132"/>
<text text-anchor="middle" x="685" y="-292.3" font-family="Times,serif" font-size="14.00">taggings</text>
</g>
<!-- Bottle&#45;&gt;ActsAsTaggableOn::Tagging -->
<g id="edge5" class="edge"><title>Bottle&#45;&gt;ActsAsTaggableOn::Tagging</title>
<path fill="none" stroke="#cbdfc4" d="M832.035,-428.354C750.895,-417.018 634.695,-386.428 578,-304 557.154,-273.693 578.932,-231.854 597.594,-205.363"/>
<ellipse fill="none" stroke="#cbdfc4" cx="836.303" cy="-428.925" rx="4.00001" ry="4.00001"/>
<polygon fill="#cbdfc4" stroke="#cbdfc4" points="597.814,-205.064 607.363,-199.672 600.776,-201.035 603.738,-197.007 603.738,-197.007 603.738,-197.007 600.776,-201.035 600.112,-194.341 597.814,-205.064 597.814,-205.064"/>
<text text-anchor="middle" x="613" y="-292.3" font-family="Times,serif" font-size="14.00">tag_taggings</text>
</g>
<!-- ActsAsTaggableOn::Tag -->
<g id="node16" class="node"><title>ActsAsTaggableOn::Tag</title>
<ellipse fill="none" stroke="black" cx="915" cy="-179" rx="98.1881" ry="18"/>
<text text-anchor="middle" x="915" y="-175.3" font-family="Times,serif" font-size="14.00">ActsAsTaggableOn::Tag</text>
</g>
<!-- Bottle&#45;&gt;ActsAsTaggableOn::Tag -->
<g id="edge4" class="edge"><title>Bottle&#45;&gt;ActsAsTaggableOn::Tag</title>
<path fill="none" stroke="#cba636" d="M944.417,-312.577C944.451,-304.267 944.022,-296.015 943,-288 939.42,-259.929 930.807,-228.724 924.072,-207.105"/>
<polygon fill="#cba636" stroke="#cba636" points="944.413,-312.734 939.655,-322.614 944.283,-317.732 944.153,-322.731 944.153,-322.731 944.153,-322.731 944.283,-317.732 948.652,-322.847 944.413,-312.734 944.413,-312.734"/>
<polygon fill="#cba636" stroke="#cba636" points="923.988,-206.843 925.233,-195.948 922.467,-202.08 920.946,-197.317 920.946,-197.317 920.946,-197.317 922.467,-202.08 916.66,-198.686 923.988,-206.843 923.988,-206.843"/>
<text text-anchor="middle" x="971.5" y="-292.3" font-family="Times,serif" font-size="14.00">base_tags</text>
</g>
<!-- Bottle&#45;&gt;ActsAsTaggableOn::Tag -->
<g id="edge6" class="edge"><title>Bottle&#45;&gt;ActsAsTaggableOn::Tag</title>
<path fill="none" stroke="#f29327" d="M917.174,-312.732C917.114,-309.793 917.056,-306.879 917,-304 916.352,-270.81 915.759,-232.619 915.39,-207.491"/>
<polygon fill="#f29327" stroke="#f29327" points="917.175,-312.808 912.882,-322.899 917.278,-317.807 917.381,-322.806 917.381,-322.806 917.381,-322.806 917.278,-317.807 921.88,-322.714 917.175,-312.808 917.175,-312.808"/>
<polygon fill="#f29327" stroke="#f29327" points="915.387,-207.251 919.741,-197.187 915.314,-202.252 915.241,-197.252 915.241,-197.252 915.241,-197.252 915.314,-202.252 910.742,-197.318 915.387,-207.251 915.387,-207.251"/>
<text text-anchor="middle" x="928" y="-292.3" font-family="Times,serif" font-size="14.00">tags</text>
</g>
<!-- City -->
<g id="node4" class="node"><title>City</title>
<path fill="none" stroke="black" d="M244.5,-738C244.5,-738 351.5,-738 351.5,-738 357.5,-738 363.5,-744 363.5,-750 363.5,-750 363.5,-832 363.5,-832 363.5,-838 357.5,-844 351.5,-844 351.5,-844 244.5,-844 244.5,-844 238.5,-844 232.5,-838 232.5,-832 232.5,-832 232.5,-750 232.5,-750 232.5,-744 238.5,-738 244.5,-738"/>
<text text-anchor="middle" x="298" y="-828.8" font-family="Times,serif" font-size="14.00">City</text>
<polyline fill="none" stroke="black" points="232.5,-821 363.5,-821 "/>
<text text-anchor="start" x="240.5" y="-805.8" font-family="Times,serif" font-size="14.00">id :integer</text>
<text text-anchor="start" x="240.5" y="-790.8" font-family="Times,serif" font-size="14.00">name :string</text>
<text text-anchor="start" x="240.5" y="-775.8" font-family="Times,serif" font-size="14.00">state_id :integer</text>
<text text-anchor="start" x="240.5" y="-760.8" font-family="Times,serif" font-size="14.00">created_at :datetime</text>
<text text-anchor="start" x="240.5" y="-745.8" font-family="Times,serif" font-size="14.00">updated_at :datetime</text>
</g>
<!-- Profile -->
<g id="node10" class="node"><title>Profile</title>
<path fill="none" stroke="black" d="M382.5,-345.5C382.5,-345.5 517.5,-345.5 517.5,-345.5 523.5,-345.5 529.5,-351.5 529.5,-357.5 529.5,-357.5 529.5,-514.5 529.5,-514.5 529.5,-520.5 523.5,-526.5 517.5,-526.5 517.5,-526.5 382.5,-526.5 382.5,-526.5 376.5,-526.5 370.5,-520.5 370.5,-514.5 370.5,-514.5 370.5,-357.5 370.5,-357.5 370.5,-351.5 376.5,-345.5 382.5,-345.5"/>
<text text-anchor="middle" x="450" y="-511.3" font-family="Times,serif" font-size="14.00">Profile</text>
<polyline fill="none" stroke="black" points="370.5,-503.5 529.5,-503.5 "/>
<text text-anchor="start" x="378.5" y="-488.3" font-family="Times,serif" font-size="14.00">id :integer</text>
<text text-anchor="start" x="378.5" y="-473.3" font-family="Times,serif" font-size="14.00">first_name :string</text>
<text text-anchor="start" x="378.5" y="-458.3" font-family="Times,serif" font-size="14.00">last_name :string</text>
<text text-anchor="start" x="378.5" y="-443.3" font-family="Times,serif" font-size="14.00">birth_date :date</text>
<text text-anchor="start" x="378.5" y="-428.3" font-family="Times,serif" font-size="14.00">state_id :string</text>
<text text-anchor="start" x="378.5" y="-413.3" font-family="Times,serif" font-size="14.00">city_id :string</text>
<text text-anchor="start" x="378.5" y="-398.3" font-family="Times,serif" font-size="14.00">about :text</text>
<text text-anchor="start" x="378.5" y="-383.3" font-family="Times,serif" font-size="14.00">organization_name :string</text>
<text text-anchor="start" x="378.5" y="-368.3" font-family="Times,serif" font-size="14.00">created_at :datetime</text>
<text text-anchor="start" x="378.5" y="-353.3" font-family="Times,serif" font-size="14.00">updated_at :datetime</text>
</g>
<!-- City&#45;&gt;Profile -->
<g id="edge7" class="edge"><title>City&#45;&gt;Profile</title>
<path fill="none" stroke="#15dd7a" d="M323.735,-730.234C346.584,-677.17 380.422,-598.587 407.318,-536.123"/>
<ellipse fill="none" stroke="#15dd7a" cx="322.01" cy="-734.24" rx="4.00002" ry="4.00002"/>
<polygon fill="#15dd7a" stroke="#15dd7a" points="407.448,-535.821 415.536,-528.416 409.425,-531.229 411.403,-526.637 411.403,-526.637 411.403,-526.637 409.425,-531.229 407.27,-524.857 407.448,-535.821 407.448,-535.821"/>
</g>
<!-- Question -->
<g id="node5" class="node"><title>Question</title>
<path fill="none" stroke="black" d="M1218.5,-375.5C1218.5,-375.5 1325.5,-375.5 1325.5,-375.5 1331.5,-375.5 1337.5,-381.5 1337.5,-387.5 1337.5,-387.5 1337.5,-484.5 1337.5,-484.5 1337.5,-490.5 1331.5,-496.5 1325.5,-496.5 1325.5,-496.5 1218.5,-496.5 1218.5,-496.5 1212.5,-496.5 1206.5,-490.5 1206.5,-484.5 1206.5,-484.5 1206.5,-387.5 1206.5,-387.5 1206.5,-381.5 1212.5,-375.5 1218.5,-375.5"/>
<text text-anchor="middle" x="1272" y="-481.3" font-family="Times,serif" font-size="14.00">Question</text>
<polyline fill="none" stroke="black" points="1206.5,-473.5 1337.5,-473.5 "/>
<text text-anchor="start" x="1214.5" y="-458.3" font-family="Times,serif" font-size="14.00">id :integer</text>
<text text-anchor="start" x="1214.5" y="-443.3" font-family="Times,serif" font-size="14.00">title :string</text>
<text text-anchor="start" x="1214.5" y="-428.3" font-family="Times,serif" font-size="14.00">content :text</text>
<text text-anchor="start" x="1214.5" y="-413.3" font-family="Times,serif" font-size="14.00">user_id :integer</text>
<text text-anchor="start" x="1214.5" y="-398.3" font-family="Times,serif" font-size="14.00">created_at :datetime</text>
<text text-anchor="start" x="1214.5" y="-383.3" font-family="Times,serif" font-size="14.00">updated_at :datetime</text>
</g>
<!-- Answer -->
<g id="node8" class="node"><title>Answer</title>
<path fill="none" stroke="black" d="M1388.5,-103.5C1388.5,-103.5 1495.5,-103.5 1495.5,-103.5 1501.5,-103.5 1507.5,-109.5 1507.5,-115.5 1507.5,-115.5 1507.5,-242.5 1507.5,-242.5 1507.5,-248.5 1501.5,-254.5 1495.5,-254.5 1495.5,-254.5 1388.5,-254.5 1388.5,-254.5 1382.5,-254.5 1376.5,-248.5 1376.5,-242.5 1376.5,-242.5 1376.5,-115.5 1376.5,-115.5 1376.5,-109.5 1382.5,-103.5 1388.5,-103.5"/>
<text text-anchor="middle" x="1442" y="-239.3" font-family="Times,serif" font-size="14.00">Answer</text>
<polyline fill="none" stroke="black" points="1376.5,-231.5 1507.5,-231.5 "/>
<text text-anchor="start" x="1384.5" y="-216.3" font-family="Times,serif" font-size="14.00">id :integer</text>
<text text-anchor="start" x="1384.5" y="-201.3" font-family="Times,serif" font-size="14.00">content :text</text>
<text text-anchor="start" x="1384.5" y="-186.3" font-family="Times,serif" font-size="14.00">user_id :integer</text>
<text text-anchor="start" x="1384.5" y="-171.3" font-family="Times,serif" font-size="14.00">question_id :integer</text>
<text text-anchor="start" x="1384.5" y="-156.3" font-family="Times,serif" font-size="14.00">answers :boolean</text>
<text text-anchor="start" x="1384.5" y="-141.3" font-family="Times,serif" font-size="14.00">best :boolean</text>
<text text-anchor="start" x="1384.5" y="-126.3" font-family="Times,serif" font-size="14.00">created_at :datetime</text>
<text text-anchor="start" x="1384.5" y="-111.3" font-family="Times,serif" font-size="14.00">updated_at :datetime</text>
</g>
<!-- Question&#45;&gt;Answer -->
<g id="edge8" class="edge"><title>Question&#45;&gt;Answer</title>
<path fill="none" stroke="#e9562d" d="M1316.42,-368.365C1337.81,-336.291 1363.66,-297.503 1386.35,-263.481"/>
<ellipse fill="none" stroke="#e9562d" cx="1314.08" cy="-371.886" rx="4.00002" ry="4.00002"/>
<polygon fill="#e9562d" stroke="#e9562d" points="1386.49,-263.262 1395.78,-257.437 1389.27,-259.101 1392.04,-254.941 1392.04,-254.941 1392.04,-254.941 1389.27,-259.101 1388.3,-252.445 1386.49,-263.262 1386.49,-263.262"/>
</g>
<!-- FavoriteQuestion -->
<g id="node14" class="node"><title>FavoriteQuestion</title>
<path fill="none" stroke="black" d="M1537.5,-126C1537.5,-126 1644.5,-126 1644.5,-126 1650.5,-126 1656.5,-132 1656.5,-138 1656.5,-138 1656.5,-220 1656.5,-220 1656.5,-226 1650.5,-232 1644.5,-232 1644.5,-232 1537.5,-232 1537.5,-232 1531.5,-232 1525.5,-226 1525.5,-220 1525.5,-220 1525.5,-138 1525.5,-138 1525.5,-132 1531.5,-126 1537.5,-126"/>
<text text-anchor="middle" x="1591" y="-216.8" font-family="Times,serif" font-size="14.00">FavoriteQuestion</text>
<polyline fill="none" stroke="black" points="1525.5,-209 1656.5,-209 "/>
<text text-anchor="start" x="1533.5" y="-193.8" font-family="Times,serif" font-size="14.00">id :integer</text>
<text text-anchor="start" x="1533.5" y="-178.8" font-family="Times,serif" font-size="14.00">question_id :integer</text>
<text text-anchor="start" x="1533.5" y="-163.8" font-family="Times,serif" font-size="14.00">user_id :integer</text>
<text text-anchor="start" x="1533.5" y="-148.8" font-family="Times,serif" font-size="14.00">created_at :datetime</text>
<text text-anchor="start" x="1533.5" y="-133.8" font-family="Times,serif" font-size="14.00">updated_at :datetime</text>
</g>
<!-- Question&#45;&gt;FavoriteQuestion -->
<g id="edge9" class="edge"><title>Question&#45;&gt;FavoriteQuestion</title>
<path fill="none" stroke="#cfb5e3" d="M1344.54,-393.439C1395.22,-362.666 1463.03,-317.917 1516,-270 1526.07,-260.887 1536,-250.403 1545.16,-239.884"/>
<ellipse fill="none" stroke="#cfb5e3" cx="1340.93" cy="-395.62" rx="4.00002" ry="4.00002"/>
<polygon fill="#cfb5e3" stroke="#cfb5e3" points="1545.2,-239.842 1555.11,-235.16 1548.44,-236.04 1551.69,-232.238 1551.69,-232.238 1551.69,-232.238 1548.44,-236.04 1548.27,-229.315 1545.2,-239.842 1545.2,-239.842"/>
</g>
<!-- Question&#45;&gt;ActsAsTaggableOn::Tagging -->
<g id="edge12" class="edge"><title>Question&#45;&gt;ActsAsTaggableOn::Tagging</title>
<path fill="none" stroke="#cb18e1" d="M1199.17,-395.823C1147.41,-369.997 1075.39,-338.078 1008,-322 947.136,-307.479 783.156,-331.601 727,-304 715.42,-298.309 666.204,-239.276 638.025,-204.756"/>
<ellipse fill="none" stroke="#cb18e1" cx="1202.77" cy="-397.628" rx="4.00002" ry="4.00002"/>
<polygon fill="#cb18e1" stroke="#cb18e1" points="637.997,-204.721 635.174,-194.125 634.841,-200.844 631.684,-196.966 631.684,-196.966 631.684,-196.966 634.841,-200.844 628.194,-199.807 637.997,-204.721 637.997,-204.721"/>
<text text-anchor="middle" x="750" y="-292.3" font-family="Times,serif" font-size="14.00">taggings</text>
</g>
<!-- Question&#45;&gt;ActsAsTaggableOn::Tagging -->
<g id="edge14" class="edge"><title>Question&#45;&gt;ActsAsTaggableOn::Tagging</title>
<path fill="none" stroke="#fa37ba" d="M1199.1,-393.329C1126.46,-352.127 1022.8,-294.326 1002,-288 918.732,-262.67 890.923,-293.067 807,-270 750.788,-254.55 690.816,-223.126 653.865,-201.813"/>
<ellipse fill="none" stroke="#fa37ba" cx="1202.99" cy="-395.538" rx="4.00002" ry="4.00002"/>
<polygon fill="#fa37ba" stroke="#fa37ba" points="653.62,-201.669 647.252,-192.742 649.302,-199.149 644.983,-196.628 644.983,-196.628 644.983,-196.628 649.302,-199.149 642.715,-200.514 653.62,-201.669 653.62,-201.669"/>
<text text-anchor="middle" x="1067" y="-292.3" font-family="Times,serif" font-size="14.00">tag_taggings</text>
</g>
<!-- Question&#45;&gt;ActsAsTaggableOn::Tag -->
<g id="edge13" class="edge"><title>Question&#45;&gt;ActsAsTaggableOn::Tag</title>
<path fill="none" stroke="#308c7a" d="M1202.91,-368.294C1164.81,-332.106 1123.03,-293.608 1112,-288 1075.64,-269.517 1058.76,-287.683 1022,-270 988.638,-253.952 957.049,-225.081 936.963,-204.363"/>
<polygon fill="#308c7a" stroke="#308c7a" points="1203.22,-368.596 1207.36,-378.75 1206.85,-372.043 1210.47,-375.49 1210.47,-375.49 1210.47,-375.49 1206.85,-372.043 1213.57,-372.231 1203.22,-368.596 1203.22,-368.596"/>
<polygon fill="#308c7a" stroke="#308c7a" points="936.731,-204.119 933.112,-193.767 933.29,-200.492 929.848,-196.865 929.848,-196.865 929.848,-196.865 933.29,-200.492 926.584,-199.963 936.731,-204.119 936.731,-204.119"/>
<text text-anchor="middle" x="1157.5" y="-292.3" font-family="Times,serif" font-size="14.00">base_tags</text>
</g>
<!-- Question&#45;&gt;ActsAsTaggableOn::Tag -->
<g id="edge15" class="edge"><title>Question&#45;&gt;ActsAsTaggableOn::Tag</title>
<path fill="none" stroke="#8f69ef" d="M1248.9,-366.203C1235.65,-337.351 1215.96,-306.31 1188,-288 1125.92,-247.342 1090.25,-299.149 1022,-270 987.605,-255.309 955.852,-225.7 936.021,-204.452"/>
<polygon fill="#8f69ef" stroke="#8f69ef" points="1248.96,-366.322 1248.87,-377.288 1250.97,-370.899 1252.98,-375.475 1252.98,-375.475 1252.98,-375.475 1250.97,-370.899 1257.1,-373.663 1248.96,-366.322 1248.96,-366.322"/>
<polygon fill="#8f69ef" stroke="#8f69ef" points="936.007,-204.437 932.597,-194.014 932.639,-200.741 929.271,-197.046 929.271,-197.046 929.271,-197.046 932.639,-200.741 925.945,-200.077 936.007,-204.437 936.007,-204.437"/>
<text text-anchor="middle" x="1217" y="-292.3" font-family="Times,serif" font-size="14.00">tags</text>
</g>
<!-- ReputationSystem::Reputation -->
<g id="node17" class="node"><title>ReputationSystem::Reputation</title>
<ellipse fill="none" stroke="black" cx="1451" cy="-18" rx="118.409" ry="18"/>
<text text-anchor="middle" x="1451" y="-14.3" font-family="Times,serif" font-size="14.00">ReputationSystem::Reputation</text>
</g>
<!-- Question&#45;&gt;ReputationSystem::Reputation -->
<g id="edge10" class="edge"><title>Question&#45;&gt;ReputationSystem::Reputation</title>
<path fill="none" stroke="#23a3f3" d="M1274.65,-366.947C1279.3,-263.611 1290.47,-76.673 1311,-54 1318.58,-45.6287 1338.19,-38.8128 1360.41,-33.4949"/>
<ellipse fill="none" stroke="#23a3f3" cx="1274.46" cy="-371.158" rx="4" ry="4"/>
<polygon fill="#23a3f3" stroke="#23a3f3" points="1360.66,-33.438 1371.41,-35.6215 1365.54,-32.3352 1370.41,-31.2323 1370.41,-31.2323 1370.41,-31.2323 1365.54,-32.3352 1369.42,-26.8431 1360.66,-33.438 1360.66,-33.438"/>
<text text-anchor="middle" x="1329.5" y="-175.3" font-family="Times,serif" font-size="14.00">reputations</text>
</g>
<!-- ReputationSystem::Evaluation -->
<g id="node18" class="node"><title>ReputationSystem::Evaluation</title>
<ellipse fill="none" stroke="black" cx="1196" cy="-18" rx="117.935" ry="18"/>
<text text-anchor="middle" x="1196" y="-14.3" font-family="Times,serif" font-size="14.00">ReputationSystem::Evaluation</text>
</g>
<!-- Question&#45;&gt;ReputationSystem::Evaluation -->
<g id="edge11" class="edge"><title>Question&#45;&gt;ReputationSystem::Evaluation</title>
<path fill="none" stroke="#69a8d2" d="M1275,-367.16C1273.02,-340.301 1266.54,-310.527 1250,-288 1239.18,-273.259 1223.22,-285.167 1213,-270 1166.4,-200.818 1179.87,-95.1604 1189.72,-45.9569"/>
<ellipse fill="none" stroke="#69a8d2" cx="1275.24" cy="-371.397" rx="4" ry="4"/>
<polygon fill="#69a8d2" stroke="#69a8d2" points="1189.74,-45.8593 1196.2,-37.0031 1190.77,-40.9669 1191.8,-36.0745 1191.8,-36.0745 1191.8,-36.0745 1190.77,-40.9669 1187.4,-35.1459 1189.74,-45.8593 1189.74,-45.8593"/>
<text text-anchor="middle" x="1244" y="-175.3" font-family="Times,serif" font-size="14.00">evaluations</text>
</g>
<!-- Trade -->
<g id="node6" class="node"><title>Trade</title>
<path fill="none" stroke="black" d="M1920,-375.5C1920,-375.5 2030,-375.5 2030,-375.5 2036,-375.5 2042,-381.5 2042,-387.5 2042,-387.5 2042,-484.5 2042,-484.5 2042,-490.5 2036,-496.5 2030,-496.5 2030,-496.5 1920,-496.5 1920,-496.5 1914,-496.5 1908,-490.5 1908,-484.5 1908,-484.5 1908,-387.5 1908,-387.5 1908,-381.5 1914,-375.5 1920,-375.5"/>
<text text-anchor="middle" x="1975" y="-481.3" font-family="Times,serif" font-size="14.00">Trade</text>
<polyline fill="none" stroke="black" points="1908,-473.5 2042,-473.5 "/>
<text text-anchor="start" x="1916" y="-458.3" font-family="Times,serif" font-size="14.00">id :integer</text>
<text text-anchor="start" x="1916" y="-443.3" font-family="Times,serif" font-size="14.00">negotiator_id :integer</text>
<text text-anchor="start" x="1916" y="-428.3" font-family="Times,serif" font-size="14.00">negotiant_id :integer</text>
<text text-anchor="start" x="1916" y="-413.3" font-family="Times,serif" font-size="14.00">status :integer</text>
<text text-anchor="start" x="1916" y="-398.3" font-family="Times,serif" font-size="14.00">created_at :datetime</text>
<text text-anchor="start" x="1916" y="-383.3" font-family="Times,serif" font-size="14.00">updated_at :datetime</text>
</g>
<!-- MessageTrade -->
<g id="node11" class="node"><title>MessageTrade</title>
<path fill="none" stroke="black" d="M1774.5,-118.5C1774.5,-118.5 1881.5,-118.5 1881.5,-118.5 1887.5,-118.5 1893.5,-124.5 1893.5,-130.5 1893.5,-130.5 1893.5,-227.5 1893.5,-227.5 1893.5,-233.5 1887.5,-239.5 1881.5,-239.5 1881.5,-239.5 1774.5,-239.5 1774.5,-239.5 1768.5,-239.5 1762.5,-233.5 1762.5,-227.5 1762.5,-227.5 1762.5,-130.5 1762.5,-130.5 1762.5,-124.5 1768.5,-118.5 1774.5,-118.5"/>
<text text-anchor="middle" x="1828" y="-224.3" font-family="Times,serif" font-size="14.00">MessageTrade</text>
<polyline fill="none" stroke="black" points="1762.5,-216.5 1893.5,-216.5 "/>
<text text-anchor="start" x="1770.5" y="-201.3" font-family="Times,serif" font-size="14.00">id :integer</text>
<text text-anchor="start" x="1770.5" y="-186.3" font-family="Times,serif" font-size="14.00">user_id :integer</text>
<text text-anchor="start" x="1770.5" y="-171.3" font-family="Times,serif" font-size="14.00">trade_id :integer</text>
<text text-anchor="start" x="1770.5" y="-156.3" font-family="Times,serif" font-size="14.00">content :text</text>
<text text-anchor="start" x="1770.5" y="-141.3" font-family="Times,serif" font-size="14.00">created_at :datetime</text>
<text text-anchor="start" x="1770.5" y="-126.3" font-family="Times,serif" font-size="14.00">updated_at :datetime</text>
</g>
<!-- Trade&#45;&gt;MessageTrade -->
<g id="edge16" class="edge"><title>Trade&#45;&gt;MessageTrade</title>
<path fill="none" stroke="#72429c" d="M1936.33,-367.917C1915.12,-331.127 1888.88,-285.608 1867.54,-248.585"/>
<ellipse fill="none" stroke="#72429c" cx="1938.54" cy="-371.748" rx="4.00002" ry="4.00002"/>
<polygon fill="#72429c" stroke="#72429c" points="1867.5,-248.516 1866.4,-237.605 1865,-244.185 1862.5,-239.853 1862.5,-239.853 1862.5,-239.853 1865,-244.185 1858.6,-242.1 1867.5,-248.516 1867.5,-248.516"/>
<text text-anchor="middle" x="1923" y="-292.3" font-family="Times,serif" font-size="14.00">messages</text>
</g>
<!-- AvaliationTrade -->
<g id="node7" class="node"><title>AvaliationTrade</title>
<path fill="none" stroke="black" d="M1770.5,-360.5C1770.5,-360.5 1877.5,-360.5 1877.5,-360.5 1883.5,-360.5 1889.5,-366.5 1889.5,-372.5 1889.5,-372.5 1889.5,-499.5 1889.5,-499.5 1889.5,-505.5 1883.5,-511.5 1877.5,-511.5 1877.5,-511.5 1770.5,-511.5 1770.5,-511.5 1764.5,-511.5 1758.5,-505.5 1758.5,-499.5 1758.5,-499.5 1758.5,-372.5 1758.5,-372.5 1758.5,-366.5 1764.5,-360.5 1770.5,-360.5"/>
<text text-anchor="middle" x="1824" y="-496.3" font-family="Times,serif" font-size="14.00">AvaliationTrade</text>
<polyline fill="none" stroke="black" points="1758.5,-488.5 1889.5,-488.5 "/>
<text text-anchor="start" x="1766.5" y="-473.3" font-family="Times,serif" font-size="14.00">id :integer</text>
<text text-anchor="start" x="1766.5" y="-458.3" font-family="Times,serif" font-size="14.00">rating :integer</text>
<text text-anchor="start" x="1766.5" y="-443.3" font-family="Times,serif" font-size="14.00">content :text</text>
<text text-anchor="start" x="1766.5" y="-428.3" font-family="Times,serif" font-size="14.00">trade_id :integer</text>
<text text-anchor="start" x="1766.5" y="-413.3" font-family="Times,serif" font-size="14.00">assessed_id :integer</text>
<text text-anchor="start" x="1766.5" y="-398.3" font-family="Times,serif" font-size="14.00">appraiser_id :integer</text>
<text text-anchor="start" x="1766.5" y="-383.3" font-family="Times,serif" font-size="14.00">created_at :datetime</text>
<text text-anchor="start" x="1766.5" y="-368.3" font-family="Times,serif" font-size="14.00">updated_at :datetime</text>
</g>
<!-- Answer&#45;&gt;ReputationSystem::Reputation -->
<g id="edge17" class="edge"><title>Answer&#45;&gt;ReputationSystem::Reputation</title>
<path fill="none" stroke="#18aaaf" d="M1446.7,-94.9537C1447.69,-77.395 1448.68,-60.0674 1449.45,-46.4062"/>
<ellipse fill="none" stroke="#18aaaf" cx="1446.46" cy="-99.1622" rx="4" ry="4"/>
<polygon fill="#18aaaf" stroke="#18aaaf" points="1449.46,-46.2859 1454.51,-36.5562 1449.74,-41.2939 1450.02,-36.3019 1450.02,-36.3019 1450.02,-36.3019 1449.74,-41.2939 1445.53,-36.0475 1449.46,-46.2859 1449.46,-46.2859"/>
<text text-anchor="middle" x="1478.5" y="-58.3" font-family="Times,serif" font-size="14.00">reputations</text>
</g>
<!-- Answer&#45;&gt;ReputationSystem::Evaluation -->
<g id="edge18" class="edge"><title>Answer&#45;&gt;ReputationSystem::Evaluation</title>
<path fill="none" stroke="#8a8a7b" d="M1374.8,-98.0374C1370.62,-94.4716 1366.35,-91.0971 1362,-88 1330.65,-65.6659 1290.98,-48.8371 1258.29,-37.3926"/>
<ellipse fill="none" stroke="#8a8a7b" cx="1377.85" cy="-100.736" rx="4.00002" ry="4.00002"/>
<polygon fill="#8a8a7b" stroke="#8a8a7b" points="1258.28,-37.3922 1250.27,-29.9021 1253.55,-35.7765 1248.82,-34.1607 1248.82,-34.1607 1248.82,-34.1607 1253.55,-35.7765 1247.37,-38.4193 1258.28,-37.3922 1258.28,-37.3922"/>
<text text-anchor="middle" x="1364" y="-58.3" font-family="Times,serif" font-size="14.00">evaluations</text>
</g>
<!-- User -->
<g id="node9" class="node"><title>User</title>
<path fill="none" stroke="black" d="M1321,-603C1321,-603 1497,-603 1497,-603 1503,-603 1509,-609 1509,-615 1509,-615 1509,-967 1509,-967 1509,-973 1503,-979 1497,-979 1497,-979 1321,-979 1321,-979 1315,-979 1309,-973 1309,-967 1309,-967 1309,-615 1309,-615 1309,-609 1315,-603 1321,-603"/>
<text text-anchor="middle" x="1409" y="-963.8" font-family="Times,serif" font-size="14.00">User</text>
<polyline fill="none" stroke="black" points="1309,-956 1509,-956 "/>
<text text-anchor="start" x="1317" y="-940.8" font-family="Times,serif" font-size="14.00">id :integer</text>
<text text-anchor="start" x="1317" y="-925.8" font-family="Times,serif" font-size="14.00">name :string</text>
<text text-anchor="start" x="1317" y="-910.8" font-family="Times,serif" font-size="14.00">email :string</text>
<text text-anchor="start" x="1317" y="-895.8" font-family="Times,serif" font-size="14.00">encrypted_password :string</text>
<text text-anchor="start" x="1317" y="-880.8" font-family="Times,serif" font-size="14.00">reset_password_token :string</text>
<text text-anchor="start" x="1317" y="-865.8" font-family="Times,serif" font-size="14.00">reset_password_sent_at :datetime</text>
<text text-anchor="start" x="1317" y="-850.8" font-family="Times,serif" font-size="14.00">remember_created_at :datetime</text>
<text text-anchor="start" x="1317" y="-835.8" font-family="Times,serif" font-size="14.00">sign_in_count :integer</text>
<text text-anchor="start" x="1317" y="-820.8" font-family="Times,serif" font-size="14.00">current_sign_in_at :datetime</text>
<text text-anchor="start" x="1317" y="-805.8" font-family="Times,serif" font-size="14.00">last_sign_in_at :datetime</text>
<text text-anchor="start" x="1317" y="-790.8" font-family="Times,serif" font-size="14.00">current_sign_in_ip :inet</text>
<text text-anchor="start" x="1317" y="-775.8" font-family="Times,serif" font-size="14.00">last_sign_in_ip :inet</text>
<text text-anchor="start" x="1317" y="-760.8" font-family="Times,serif" font-size="14.00">confirmation_token :string</text>
<text text-anchor="start" x="1317" y="-745.8" font-family="Times,serif" font-size="14.00">confirmed_at :datetime</text>
<text text-anchor="start" x="1317" y="-730.8" font-family="Times,serif" font-size="14.00">confirmation_sent_at :datetime</text>
<text text-anchor="start" x="1317" y="-715.8" font-family="Times,serif" font-size="14.00">unconfirmed_email :string</text>
<text text-anchor="start" x="1317" y="-700.8" font-family="Times,serif" font-size="14.00">failed_attempts :integer</text>
<text text-anchor="start" x="1317" y="-685.8" font-family="Times,serif" font-size="14.00">unlock_token :string</text>
<text text-anchor="start" x="1317" y="-670.8" font-family="Times,serif" font-size="14.00">locked_at :datetime</text>
<text text-anchor="start" x="1317" y="-655.8" font-family="Times,serif" font-size="14.00">created_at :datetime</text>
<text text-anchor="start" x="1317" y="-640.8" font-family="Times,serif" font-size="14.00">updated_at :datetime</text>
<text text-anchor="start" x="1317" y="-625.8" font-family="Times,serif" font-size="14.00">provider :string</text>
<text text-anchor="start" x="1317" y="-610.8" font-family="Times,serif" font-size="14.00">uid :string</text>
</g>
<!-- User&#45;&gt;BottleTrade -->
<g id="edge23" class="edge"><title>User&#45;&gt;BottleTrade</title>
<path fill="none" stroke="#446f56" d="M1402.86,-594.578C1395.61,-485.657 1379.91,-363.752 1346,-322 1317.46,-286.864 1293.36,-300.99 1250,-288 1217.99,-278.41 1205.61,-287.265 1177,-270 1169.67,-265.575 1162.63,-260.261 1155.99,-254.456"/>
<ellipse fill="none" stroke="#446f56" cx="1403.13" cy="-598.738" rx="4" ry="4"/>
<polygon fill="#446f56" stroke="#446f56" points="1155.73,-254.217 1151.42,-244.131 1152.05,-250.829 1148.37,-247.441 1148.37,-247.441 1148.37,-247.441 1152.05,-250.829 1145.32,-250.75 1155.73,-254.217 1155.73,-254.217"/>
</g>
<!-- User&#45;&gt;Bottle -->
<g id="edge22" class="edge"><title>User&#45;&gt;Bottle</title>
<path fill="none" stroke="#0a4f0c" d="M1302.37,-713.027C1214.21,-649.383 1090.52,-560.092 1007.94,-500.483"/>
<ellipse fill="none" stroke="#0a4f0c" cx="1305.62" cy="-715.372" rx="4.00002" ry="4.00002"/>
<polygon fill="#0a4f0c" stroke="#0a4f0c" points="1007.94,-500.482 1002.47,-490.98 1003.89,-497.555 999.832,-494.629 999.832,-494.629 999.832,-494.629 1003.89,-497.555 997.198,-498.278 1007.94,-500.482 1007.94,-500.482"/>
</g>
<!-- User&#45;&gt;Question -->
<g id="edge20" class="edge"><title>User&#45;&gt;Question</title>
<path fill="none" stroke="#a8aedb" d="M1333.42,-595.248C1321.03,-563.345 1308.97,-532.246 1298.85,-506.181"/>
<ellipse fill="none" stroke="#a8aedb" cx="1334.94" cy="-599.176" rx="4.00001" ry="4.00001"/>
<polygon fill="#a8aedb" stroke="#a8aedb" points="1298.83,-506.136 1299.41,-495.185 1297.02,-501.475 1295.21,-496.813 1295.21,-496.813 1295.21,-496.813 1297.02,-501.475 1291.02,-498.442 1298.83,-506.136 1298.83,-506.136"/>
</g>
<!-- User&#45;&gt;Trade -->
<g id="edge19" class="edge"><title>User&#45;&gt;Trade</title>
<path fill="none" stroke="#5ac4cb" d="M1516.96,-755.364C1622.75,-717.47 1784.22,-648.684 1898,-550 1912.66,-537.284 1925.81,-521.167 1936.92,-505.116"/>
<ellipse fill="none" stroke="#5ac4cb" cx="1512.89" cy="-756.811" rx="4.00001" ry="4.00001"/>
<polygon fill="#5ac4cb" stroke="#5ac4cb" points="1936.96,-505.049 1946.27,-499.256 1939.75,-500.898 1942.54,-496.747 1942.54,-496.747 1942.54,-496.747 1939.75,-500.898 1938.8,-494.239 1936.96,-505.049 1936.96,-505.049"/>
</g>
<!-- User&#45;&gt;AvaliationTrade -->
<g id="edge25" class="edge"><title>User&#45;&gt;AvaliationTrade</title>
<path fill="none" stroke="#f19008" d="M1516.46,-728.333C1586.64,-684.578 1677.3,-621.15 1744,-550 1752.78,-540.638 1761.37,-530.265 1769.48,-519.712"/>
<ellipse fill="none" stroke="#f19008" cx="1512.7" cy="-730.663" rx="4.00002" ry="4.00002"/>
<polygon fill="#f19008" stroke="#f19008" points="1769.56,-519.605 1779.18,-514.329 1772.57,-515.612 1775.58,-511.62 1775.58,-511.62 1775.58,-511.62 1772.57,-515.612 1771.99,-508.911 1769.56,-519.605 1769.56,-519.605"/>
<text text-anchor="middle" x="1749.5" y="-572.3" font-family="Times,serif" font-size="14.00">avaliations</text>
</g>
<!-- User&#45;&gt;Answer -->
<g id="edge21" class="edge"><title>User&#45;&gt;Answer</title>
<path fill="none" stroke="#bec0de" d="M1419.57,-594.541C1425.59,-483.278 1432.83,-349.587 1437.42,-264.702"/>
<ellipse fill="none" stroke="#bec0de" cx="1419.34" cy="-598.84" rx="4" ry="4"/>
<polygon fill="#bec0de" stroke="#bec0de" points="1437.42,-264.582 1442.46,-254.84 1437.69,-259.589 1437.96,-254.596 1437.96,-254.596 1437.96,-254.596 1437.69,-259.589 1433.47,-254.353 1437.42,-264.582 1437.42,-264.582"/>
</g>
<!-- User&#45;&gt;Profile -->
<g id="edge28" class="edge"><title>User&#45;&gt;Profile</title>
<path fill="none" stroke="#578376" d="M1300.95,-750.227C1109.21,-679.651 713.154,-533.865 537.352,-469.154"/>
<ellipse fill="none" stroke="#578376" cx="1304.88" cy="-751.674" rx="4.00001" ry="4.00001"/>
<ellipse fill="#578376" stroke="#578376" cx="533.413" cy="-467.704" rx="4.00001" ry="4.00001"/>
</g>
<!-- User&#45;&gt;MessageTrade -->
<g id="edge24" class="edge"><title>User&#45;&gt;MessageTrade</title>
<path fill="none" stroke="#afe3d3" d="M1515.46,-718.988C1560.68,-683.557 1610.02,-636.948 1641,-584 1701.19,-481.148 1643.21,-427.824 1698,-322 1712.43,-294.133 1733.76,-267.607 1754.99,-245.187"/>
<ellipse fill="none" stroke="#afe3d3" cx="1512.27" cy="-721.462" rx="4.00002" ry="4.00002"/>
<polygon fill="#afe3d3" stroke="#afe3d3" points="1755.23,-244.939 1765.41,-240.87 1758.7,-241.342 1762.17,-237.745 1762.17,-237.745 1762.17,-237.745 1758.7,-241.342 1758.94,-234.619 1755.23,-244.939 1755.23,-244.939"/>
<text text-anchor="middle" x="1724" y="-432.3" font-family="Times,serif" font-size="14.00">messages</text>
</g>
<!-- User&#45;&gt;Picture -->
<g id="edge26" class="edge"><title>User&#45;&gt;Picture</title>
<path fill="none" stroke="#683f46" d="M1300.53,-781.593C1057.16,-760.272 479.594,-695.155 361,-550 300.073,-475.427 309.472,-361.319 327.726,-279.548"/>
<ellipse fill="none" stroke="#683f46" cx="1304.71" cy="-781.956" rx="4" ry="4"/>
<polygon fill="#683f46" stroke="#683f46" points="327.741,-279.484 334.376,-270.754 328.866,-274.612 329.992,-269.741 329.992,-269.741 329.992,-269.741 328.866,-274.612 325.607,-268.728 327.741,-279.484 327.741,-279.484"/>
</g>
<!-- User&#45;&gt;FavoriteQuestion -->
<g id="edge27" class="edge"><title>User&#45;&gt;FavoriteQuestion</title>
<path fill="none" stroke="#60f379" d="M1467.21,-594.908C1503.57,-473.039 1547.99,-324.143 1572.51,-241.956"/>
<ellipse fill="none" stroke="#60f379" cx="1465.99" cy="-599.001" rx="4.00001" ry="4.00001"/>
<polygon fill="#60f379" stroke="#60f379" points="1572.55,-241.852 1579.72,-233.557 1573.98,-237.061 1575.4,-232.27 1575.4,-232.27 1575.4,-232.27 1573.98,-237.061 1571.09,-230.983 1572.55,-241.852 1572.55,-241.852"/>
</g>
<!-- User&#45;&gt;ReputationSystem::Reputation -->
<g id="edge29" class="edge"><title>User&#45;&gt;ReputationSystem::Reputation</title>
<path fill="none" stroke="#55bcc3" d="M1506.47,-595.206C1513.83,-579.948 1521.08,-564.745 1528,-550 1582.08,-434.704 1568,-390.183 1644,-288 1651.34,-278.136 1659.86,-281.168 1665,-270 1698.8,-196.511 1712.62,-153.387 1665,-88 1641.64,-55.9195 1603.08,-38.4371 1565.08,-29.0176"/>
<ellipse fill="none" stroke="#55bcc3" cx="1504.59" cy="-599.098" rx="4.00002" ry="4.00002"/>
<polygon fill="#55bcc3" stroke="#55bcc3" points="1564.66,-28.9219 1555.93,-22.2953 1559.79,-27.8014 1554.92,-26.6809 1554.92,-26.6809 1554.92,-26.6809 1559.79,-27.8014 1553.91,-31.0664 1564.66,-28.9219 1564.66,-28.9219"/>
<text text-anchor="middle" x="1674.5" y="-292.3" font-family="Times,serif" font-size="14.00">reputations</text>
</g>
<!-- User&#45;&gt;ReputationSystem::Evaluation -->
<g id="edge30" class="edge"><title>User&#45;&gt;ReputationSystem::Evaluation</title>
<path fill="none" stroke="#14d207" d="M1300.74,-778.727C1109.5,-756.572 701.286,-699.161 375,-584 344.256,-573.149 329.694,-575.982 310,-550 242.497,-460.943 269.619,-415.144 258,-304 249.607,-223.713 167.255,-189.089 264,-88 318.363,-31.196 824.75,-20.8546 1067.46,-19.1816"/>
<ellipse fill="none" stroke="#14d207" cx="1304.87" cy="-779.203" rx="4.00001" ry="4.00001"/>
<polygon fill="#14d207" stroke="#14d207" points="1067.75,-19.1798 1077.78,-23.6147 1072.75,-19.1473 1077.75,-19.1148 1077.75,-19.1148 1077.75,-19.1148 1072.75,-19.1473 1077.72,-14.6149 1067.75,-19.1798 1067.75,-19.1798"/>
<text text-anchor="middle" x="289" y="-292.3" font-family="Times,serif" font-size="14.00">evaluations</text>
</g>
<!-- Profile&#45;&gt;Picture -->
<g id="edge31" class="edge"><title>Profile&#45;&gt;Picture</title>
<path fill="none" stroke="#800407" d="M376.633,-338.108C370.794,-327.027 365.724,-315.551 362,-304 359.51,-296.276 357.666,-288.139 356.332,-279.878"/>
<ellipse fill="none" stroke="#800407" cx="378.658" cy="-341.818" rx="4.00002" ry="4.00002"/>
<polygon fill="#800407" stroke="#800407" points="356.303,-279.668 359.407,-269.151 355.626,-274.714 354.949,-269.76 354.949,-269.76 354.949,-269.76 355.626,-274.714 350.49,-270.37 356.303,-279.668 356.303,-279.668"/>
</g>
<!-- Profile&#45;&gt;ActsAsTaggableOn::Tagging -->
<g id="edge32" class="edge"><title>Profile&#45;&gt;ActsAsTaggableOn::Tagging</title>
<path fill="none" stroke="#ab8e69" d="M374.748,-337.474C369.645,-320.189 370.446,-302.955 382,-288 401.377,-262.92 421.506,-281.601 451,-270 498.767,-251.212 550.267,-221.944 583.252,-201.92"/>
<ellipse fill="none" stroke="#ab8e69" cx="376.184" cy="-341.632" rx="4.00001" ry="4.00001"/>
<polygon fill="#ab8e69" stroke="#ab8e69" points="583.519,-201.757 594.397,-200.371 587.782,-199.145 592.046,-196.533 592.046,-196.533 592.046,-196.533 587.782,-199.145 589.696,-192.696 583.519,-201.757 583.519,-201.757"/>
<text text-anchor="middle" x="405" y="-292.3" font-family="Times,serif" font-size="14.00">taggings</text>
</g>
<!-- Profile&#45;&gt;ActsAsTaggableOn::Tagging -->
<g id="edge34" class="edge"><title>Profile&#45;&gt;ActsAsTaggableOn::Tagging</title>
<path fill="none" stroke="#2eca9f" d="M456.764,-337.335C460.828,-320.063 466.928,-302.869 476,-288 499.592,-249.331 542.573,-219.596 575.09,-201.208"/>
<ellipse fill="none" stroke="#2eca9f" cx="455.887" cy="-341.36" rx="4.00001" ry="4.00001"/>
<polygon fill="#2eca9f" stroke="#2eca9f" points="575.199,-201.148 586.13,-200.266 579.579,-198.736 583.959,-196.325 583.959,-196.325 583.959,-196.325 579.579,-198.736 581.788,-192.383 575.199,-201.148 575.199,-201.148"/>
<text text-anchor="middle" x="511" y="-292.3" font-family="Times,serif" font-size="14.00">tag_taggings</text>
</g>
<!-- Profile&#45;&gt;ActsAsTaggableOn::Tag -->
<g id="edge33" class="edge"><title>Profile&#45;&gt;ActsAsTaggableOn::Tag</title>
<path fill="none" stroke="#4cb7d8" d="M539.501,-408.614C607.585,-386.351 702.017,-350.649 777,-304 801.18,-288.957 857.796,-235.536 890.503,-203.93"/>
<polygon fill="#4cb7d8" stroke="#4cb7d8" points="539.167,-408.723 528.267,-407.52 534.41,-410.262 529.653,-411.801 529.653,-411.801 529.653,-411.801 534.41,-410.262 531.038,-416.083 539.167,-408.723 539.167,-408.723"/>
<polygon fill="#4cb7d8" stroke="#4cb7d8" points="890.699,-203.74 901.011,-200.011 894.289,-200.26 897.879,-196.78 897.879,-196.78 897.879,-196.78 894.289,-200.26 894.747,-193.549 890.699,-203.74 890.699,-203.74"/>
<text text-anchor="middle" x="825.5" y="-292.3" font-family="Times,serif" font-size="14.00">base_tags</text>
</g>
<!-- Profile&#45;&gt;ActsAsTaggableOn::Tag -->
<g id="edge35" class="edge"><title>Profile&#45;&gt;ActsAsTaggableOn::Tag</title>
<path fill="none" stroke="#63c4c6" d="M539.741,-425.967C628.533,-412.798 763.743,-380.83 853,-304 882.762,-278.381 899.771,-235.05 908.194,-206.99"/>
<polygon fill="#63c4c6" stroke="#63c4c6" points="539.586,-425.989 529.049,-422.953 534.637,-426.698 529.688,-427.408 529.688,-427.408 529.688,-427.408 534.637,-426.698 530.326,-431.862 539.586,-425.989 539.586,-425.989"/>
<polygon fill="#63c4c6" stroke="#63c4c6" points="908.284,-206.673 915.34,-198.279 909.647,-201.863 911.011,-197.052 911.011,-197.052 911.011,-197.052 909.647,-201.863 906.681,-195.825 908.284,-206.673 908.284,-206.673"/>
<text text-anchor="middle" x="878" y="-292.3" font-family="Times,serif" font-size="14.00">tags</text>
</g>
<!-- State -->
<g id="node13" class="node"><title>State</title>
<path fill="none" stroke="black" d="M244.5,-1018.5C244.5,-1018.5 351.5,-1018.5 351.5,-1018.5 357.5,-1018.5 363.5,-1024.5 363.5,-1030.5 363.5,-1030.5 363.5,-1097.5 363.5,-1097.5 363.5,-1103.5 357.5,-1109.5 351.5,-1109.5 351.5,-1109.5 244.5,-1109.5 244.5,-1109.5 238.5,-1109.5 232.5,-1103.5 232.5,-1097.5 232.5,-1097.5 232.5,-1030.5 232.5,-1030.5 232.5,-1024.5 238.5,-1018.5 244.5,-1018.5"/>
<text text-anchor="middle" x="298" y="-1094.3" font-family="Times,serif" font-size="14.00">State</text>
<polyline fill="none" stroke="black" points="232.5,-1086.5 363.5,-1086.5 "/>
<text text-anchor="start" x="240.5" y="-1071.3" font-family="Times,serif" font-size="14.00">id :integer</text>
<text text-anchor="start" x="240.5" y="-1056.3" font-family="Times,serif" font-size="14.00">name :string</text>
<text text-anchor="start" x="240.5" y="-1041.3" font-family="Times,serif" font-size="14.00">created_at :datetime</text>
<text text-anchor="start" x="240.5" y="-1026.3" font-family="Times,serif" font-size="14.00">updated_at :datetime</text>
</g>
<!-- State&#45;&gt;City -->
<g id="edge36" class="edge"><title>State&#45;&gt;City</title>
<path fill="none" stroke="#94daaa" d="M298,-1010.17C298,-965.515 298,-901.483 298,-854.333"/>
<ellipse fill="none" stroke="#94daaa" cx="298" cy="-1014.25" rx="4" ry="4"/>
<polygon fill="#94daaa" stroke="#94daaa" points="298,-854.241 302.5,-844.241 298,-849.241 298,-844.241 298,-844.241 298,-844.241 298,-849.241 293.5,-844.242 298,-854.241 298,-854.241"/>
</g>
</g>
</svg>
